<svg fill="none" height="12" viewBox="0 0 12 12" width="12" xmlns="http://www.w3.org/2000/svg" xmlns:xlink="http://www.w3.org/1999/xlink"><clipPath id="a"><path d="m0 0h12v12h-12z"/></clipPath><g clip-path="url(#a)" opacity=".3"><path d="m6 11c-2.7615 0-5-2.2385-5-5s2.2385-5 5-5 5 2.2385 5 5-2.2385 5-5 5zm0-1c1.06087 0 2.07828-.42143 2.82843-1.17157.75014-.75015 1.17157-1.76756 1.17157-2.82843s-.42143-2.07828-1.17157-2.82843c-.75015-.75014-1.76756-1.17157-2.82843-1.17157s-2.07828.42143-2.82843 1.17157c-.75014.75015-1.17157 1.76756-1.17157 2.82843s.42143 2.07828 1.17157 2.82843c.75015.75014 1.76756 1.17157 2.82843 1.17157zm-2.5-4h1c0 .39782.15804.77936.43934 1.06066s.66284.43934 1.06066.43934.77936-.15804 1.06066-.43934.43934-.66284.43934-1.06066h1c0 .66304-.26339 1.29893-.73223 1.76777s-1.10473.73223-1.76777.73223-1.29893-.26339-1.76777-.73223-.73223-1.10473-.73223-1.76777z" fill="#fff"/></g></svg>