<svg width="12" height="12" viewBox="0 0 12 12" fill="none" xmlns="http://www.w3.org/2000/svg">
<g clip-path="url(#clip0_92_977)">
<path d="M9.5 7.50001V2.00001C9.49965 1.92491 9.48239 1.85085 9.4495 1.78333C9.41661 1.71582 9.36893 1.65658 9.31 1.61001C9.25191 1.56303 9.18403 1.52965 9.11135 1.51235C9.03867 1.49504 8.96303 1.49424 8.89 1.51001L4.39 2.51001C4.27891 2.53507 4.1797 2.59729 4.10878 2.68639C4.03787 2.77549 3.99949 2.88614 4 3.00001V7.17001C3.65867 7.00887 3.27428 6.96275 2.90452 7.03858C2.53475 7.1144 2.19954 7.30807 1.94917 7.59054C1.6988 7.87301 1.54677 8.22905 1.51589 8.60525C1.48501 8.98144 1.57694 9.35751 1.7779 9.67703C1.97886 9.99655 2.278 10.2423 2.63045 10.3774C2.9829 10.5125 3.36966 10.5297 3.7327 10.4264C4.09575 10.323 4.4155 10.1048 4.64399 9.80434C4.87249 9.5039 4.9974 9.13747 5 8.76001C5.00517 8.67343 5.00517 8.5866 5 8.50001V3.40001L8.5 2.62501V6.17001C8.15847 6.00878 7.77386 5.96269 7.40391 6.03868C7.03396 6.11467 6.69865 6.30864 6.44833 6.59145C6.19802 6.87425 6.04621 7.23064 6.01571 7.60708C5.98522 7.98352 6.07767 8.3597 6.27919 8.67911C6.48072 8.99853 6.78043 9.24394 7.13332 9.37849C7.48622 9.51305 7.87324 9.52948 8.23626 9.42532C8.59929 9.32116 8.91873 9.10204 9.1466 8.80085C9.37447 8.49967 9.49848 8.13269 9.5 7.75501C9.50475 7.67008 9.50475 7.58495 9.5 7.50001V7.50001ZM3.27 9.50001C3.12909 9.49997 2.99108 9.45996 2.872 9.38463C2.75291 9.3093 2.65763 9.20174 2.59721 9.07444C2.53679 8.94714 2.51372 8.80532 2.53066 8.66543C2.54761 8.52554 2.60388 8.39333 2.69294 8.28413C2.78201 8.17494 2.90021 8.09324 3.03384 8.04852C3.16746 8.00381 3.31103 7.9979 3.44788 8.0315C3.58473 8.06509 3.70924 8.13681 3.80697 8.23833C3.9047 8.33984 3.97163 8.46699 4 8.60501C4.00491 8.65489 4.00491 8.70514 4 8.75501C4.00004 8.95003 3.92361 9.13728 3.78712 9.27658C3.65064 9.41587 3.46498 9.49609 3.27 9.50001V9.50001ZM7.77 8.50001C7.62763 8.50112 7.48788 8.46169 7.3671 8.38631C7.24631 8.31094 7.14947 8.20274 7.08791 8.07436C7.02634 7.94599 7.00258 7.80274 7.01942 7.66136C7.03625 7.51999 7.09297 7.38632 7.18296 7.27599C7.27295 7.16566 7.39249 7.08323 7.5276 7.03832C7.6627 6.99341 7.8078 6.98789 7.94593 7.0224C8.08406 7.05691 8.20952 7.13002 8.30763 7.23319C8.40575 7.33636 8.47247 7.46533 8.5 7.60501C8.50491 7.65489 8.50491 7.70514 8.5 7.75501C8.49869 7.9522 8.41978 8.14093 8.28035 8.28036C8.14092 8.41979 7.95218 8.4987 7.755 8.50001H7.77Z" fill="white" fill-opacity="0.3"/>
</g>
<defs>
<clipPath id="clip0_92_977">
<rect width="12" height="12" fill="white"/>
</clipPath>
</defs>
</svg>
