<svg fill="none" height="12" viewBox="0 0 12 12" width="12" xmlns="http://www.w3.org/2000/svg" xmlns:xlink="http://www.w3.org/1999/xlink"><clipPath id="a"><path d="m0 0h12v12h-12z"/></clipPath><g clip-path="url(#a)"><path d="m9.5 7.50001v-5.5c-.00035-.0751-.01761-.14916-.0505-.21668-.03289-.06751-.08057-.12675-.1395-.17332-.05809-.04698-.12597-.08036-.19865-.09766-.07268-.01731-.14832-.01811-.22135-.00234l-4.5 1c-.11109.02506-.2103.08728-.28122.17638-.07091.0891-.10929.19975-.10878.31362v4.17c-.34133-.16114-.72572-.20726-1.09548-.13143-.36977.07582-.70498.26949-.95535.55196s-.4024.63851-.43328 1.01471c-.03088.37619.06105.75226.26201 1.07178s.5001.56527.85255.70037.73921.1523 1.10225.049c.36305-.1034.6828-.3216.91129-.62206.2285-.30044.35341-.66687.35601-1.04433.00517-.08658.00517-.17341 0-.26v-5.1l3.5-.775v3.545c-.34153-.16123-.72614-.20732-1.09609-.13133s-.70526.26996-.95558.55277c-.25031.2828-.40212.63919-.43262 1.01563-.03049.37644.06196.75262.26348 1.07203.20153.31942.50124.56483.85413.69938.3529.13456.73992.15099 1.10294.04683.36303-.10416.68247-.32328.91034-.62447.22787-.30118.35188-.66816.3534-1.04584.00475-.08493.00475-.17006 0-.255zm-6.23 2c-.14091-.00004-.27892-.04005-.398-.11538-.11909-.07533-.21437-.18289-.27479-.31019s-.08349-.26912-.06655-.40901c.01695-.13989.07322-.2721.16228-.3813.08907-.10919.20727-.19089.3409-.23561.13362-.04471.27719-.05062.41404-.01702.13685.03359.26136.10531.35909.20683.09773.10151.16466.22866.19303.36668.00491.04988.00491.10013 0 .15.00004.19502-.07639.38227-.21288.52157-.13648.13929-.32214.21951-.51712.22343zm4.5-1c-.14237.00111-.28212-.03832-.4029-.1137-.12079-.07537-.21763-.18357-.27919-.31195-.06157-.12837-.08533-.27162-.06849-.413.01683-.14137.07355-.27504.16354-.38537s.20953-.19276.34464-.23767c.1351-.04491.2802-.05043.41833-.01592s.26359.10762.3617.21079c.09812.10317.16484.23214.19237.37182.00491.04988.00491.10013 0 .15-.00131.19719-.08022.38592-.21965.52535s-.32817.21834-.52535.21965z" fill="#fff" fill-opacity=".3"/></g></svg>