<svg height="27" viewBox="0 0 25 27" width="25" xmlns="http://www.w3.org/2000/svg"><path d="m22.948 17.101c.731.557 1.146 1.356 1.318 2.281.336 1.814-.574 3.103-2.286 3.23-.845.061-1.697.014-2.544.015h-2.63c-.653 2.523-1.996 4.35-4.533 4.261-2.324-.08-3.726-1.64-4.194-4.26h-2.742c-.727 0-1.454-.009-2.182 0-1.036.014-2.022-.26-2.396-1.378-.404-1.205-.365-2.505.523-3.508.533-.599 1.214-1.042 1.92-1.632v-5.229c-.002-4.448 2.77-9.004 8.033-9.848 4.323-.693 8.8 2.314 9.976 7.174.303 1.251.357 2.586.424 3.89.069 1.365.015 2.74.015 4.103.5.344.91.605 1.299.901zm-10.655 7.341c.948.038 1.745-.424 1.988-1.703h-3.767c.205 1.162.914 1.67 1.779 1.703zm-9.33-4.388c1.982.3 17.674.238 18.986-.069-.436-1.054-.422-1.147-.933-1.226-1.525-.235-1.73-1.378-1.73-2.728 0-1.968.04-3.94-.055-5.904-.24-4.859-4.97-7.502-8.24-6.599-3.304.911-5.421 3.583-5.561 7.296-.068 1.768-.01 3.543-.02 5.314-.01 1.884-.017 1.883-1.735 2.631-.535.233-.974.536-.712 1.285z" fill="#fff"/></svg>