<svg width="240" height="240" viewBox="0 0 240 240" fill="none" xmlns="http://www.w3.org/2000/svg">
<rect width="240" height="240" fill="#BABABA"/>
<path d="M120 140C127.911 140 135.645 137.654 142.223 133.259C148.801 128.864 153.928 122.616 156.955 115.307C159.983 107.998 160.775 99.9556 159.231 92.1964C157.688 84.4372 153.878 77.3098 148.284 71.7157C142.69 66.1216 135.563 62.312 127.804 60.7686C120.044 59.2252 112.002 60.0173 104.693 63.0448C97.3836 66.0723 91.1365 71.1992 86.7412 77.7772C82.346 84.3552 80 92.0888 80 100C80 110.609 84.2143 120.783 91.7157 128.284C99.2172 135.786 109.391 140 120 140Z" fill="white"/>
<path d="M180 240C182.652 240 185.196 238.946 187.071 237.071C188.946 235.196 190 232.652 190 230C190 211.435 182.625 193.63 169.497 180.503C156.37 167.375 138.565 160 120 160C101.435 160 83.6301 167.375 70.5025 180.503C57.375 193.63 50 211.435 50 230C50 232.652 51.0536 235.196 52.9289 237.071C54.8043 238.946 57.3478 240 60 240" fill="white"/>
</svg>
