<svg width="12" height="12" viewBox="0 0 12 12" fill="none" xmlns="http://www.w3.org/2000/svg">
<g opacity="0.3" clip-path="url(#clip0_4776_10670)">
<path d="M6 11C3.2385 11 1 8.7615 1 6C1 3.2385 3.2385 1 6 1C8.7615 1 11 3.2385 11 6C11 8.7615 8.7615 11 6 11ZM6 10C7.06087 10 8.07828 9.57857 8.82843 8.82843C9.57857 8.07828 10 7.06087 10 6C10 4.93913 9.57857 3.92172 8.82843 3.17157C8.07828 2.42143 7.06087 2 6 2C4.93913 2 3.92172 2.42143 3.17157 3.17157C2.42143 3.92172 2 4.93913 2 6C2 7.06087 2.42143 8.07828 3.17157 8.82843C3.92172 9.57857 4.93913 10 6 10ZM7.75 4.25L6.75 6.75L4.25 7.75L5.25 5.25L7.75 4.25Z" fill="white"/>
</g>
<defs>
<clipPath id="clip0_4776_10670">
<rect width="12" height="12" fill="white"/>
</clipPath>
</defs>
</svg>
