<svg height="93" viewBox="0 0 272 93" width="272" xmlns="http://www.w3.org/2000/svg"><g fill="#515050"><path d="m27.99.457c2.604 4.077 4.71 8.075 7.016 11.95 2.293 3.855 4.456 7.786 6.689 11.676 2.258 3.935 4.536 7.858 6.8 11.788 2.236 3.877 4.467 7.756 6.79 11.792l-27.225 17.277-27.245-17.277z"/><path d="m28.046 92.796c-2.084-3.06-4.066-6-6.08-8.917-2.634-3.818-5.308-7.61-7.937-11.433-2.276-3.31-4.503-6.652-6.772-9.965-1.62-2.368-3.278-4.708-4.908-7.07a4.714 4.714 0 0 1 -.662-1.382c4.507 2.503 8.754 5.376 13.107 8.076 4.39 2.723 8.702 5.572 13.216 8.472 8.905-5.537 17.757-11.31 26.732-16.988-.605 1.438-23.182 34.586-26.697 39.207z"/><path d="m232.608 21.499c2.928-3.55 7.228-4.253 10.709-1.831 1.761 1.224 2.538 3.036 2.57 5.115.059 3.874.02 7.749.021 11.623v2.978c-1.728.069-3.315.094-5.03-.037-.032-.571-.082-1.077-.083-1.582-.007-3.823-.055-7.646.015-11.466.045-2.422-1.083-3.107-2.689-3.375-1.357-.227-3.359.374-3.897 2.387a8.76 8.76 0 0 0 -.297 2.154c-.03 3.35-.009 6.702-.018 10.053-.001.557-.056 1.115-.093 1.794-1.682.2-3.223.13-4.923.048-.035-.558-.092-1.058-.093-1.56-.007-3.56.007-7.12-.014-10.68-.004-.618-.112-1.24-.225-1.85-.313-1.692-1.586-2.397-3.019-2.416-1.637-.021-3.099.97-3.479 2.429-.235.899-.356 1.85-.368 2.779-.042 3.403-.015 6.807-.02 10.209 0 .308-.044.616-.081 1.103a38.048 38.048 0 0 1 -4.777-.011c-.287-1.222-.389-17.825-.144-20.427 1.008-.36 2.816-.421 4.92-.143l.147 2.24c1.404-1.926 3.226-2.822 5.511-2.717 2.287.106 4.115 1.026 5.357 3.183z"/><path d="m169.662 49.241c1.814-.086 3.354-.148 5.03.035.223 3.245.078 6.368.105 9.486.026 3.14.018 6.28.002 9.42-.016 3.118.072 6.241-.064 9.478-1.706.215-3.244.143-4.932.057l-.142-2.499c-.724.611-1.392 1.311-2.183 1.817-2.865 1.835-7.403 1.34-9.97-.864-2.346-2.013-3.294-4.637-3.487-7.595-.166-2.526.07-5.004 1.314-7.29 1.876-3.445 5.734-5.09 9.248-4.487 2.27.392 2.915.776 5.08 2.625zm-.39 15.442c-.652-2.008-2.86-3.58-4.905-3.497-2.315.094-4.073 1.406-4.774 3.595a8.218 8.218 0 0 0 -.073 4.911c1.197 4.116 5.426 4.501 7.89 2.787 1.751-1.219 2.271-3.022 2.335-5.507-.093-.467-.188-1.408-.474-2.289z"/><path d="m125.718 39.123h-4.966c-.025-.56-.065-1.063-.066-1.566-.006-3.561.003-7.122-.005-10.682-.007-3.207-2.168-4.73-5.223-3.767-1.826.577-2.848 2.278-2.874 4.385-.034 2.775-.01 5.55-.01 8.324v3.285c-1.703.18-3.293.049-4.85.083-.32-1.218-.427-25.75-.154-28.15 1.063-.312 3.047-.36 4.845-.101.343 1.088.11 2.24.15 3.368.043 1.15.01 2.303.01 3.456v3.7c1.183-1.78 2.662-2.778 4.548-3.033 2.278-.308 4.522-.224 6.342 1.438.599.546 1.185 1.228 1.469 1.966.425 1.102.783 2.303.81 3.47.099 4.292.05 8.586.052 12.88 0 .255-.041.509-.078.944z"/><path d="m135.538 30.58c.013 2.298.946 3.695 2.86 4.384 1.935.698 4.715.563 6.407-1.908h4.517c-.058.448-.039.751-.139 1.008-1.85 4.73-7.132 6.293-10.642 5.536-2.437-.526-4.519-1.573-6.048-3.59-.997-1.318-1.648-2.8-1.888-4.42-.583-3.933-.134-7.62 2.852-10.597 3.406-3.396 9.323-3.694 13.153-.453 1.436 1.215 2.215 2.912 2.681 4.7.435 1.672.513 3.398.292 5.34zm8.973-3.856c-.17-2.582-1.589-3.84-4.007-3.982-2.342-.138-4.74 1.332-4.836 3.982z"/><path d="m173.449 30.65c.178 2.315 1.225 3.835 3.403 4.42 2.377.639 4.445.18 5.964-1.958 1.508-.077 3-.102 4.562.009-.096 1.307-.665 2.243-1.345 3.077-3.55 4.35-10.06 4.818-14.421 1.014-1.794-1.566-2.764-3.702-3.054-6.028-.325-2.61-.194-5.216 1.079-7.641 1.697-3.233 4.377-4.94 7.985-5.211 1.415-.106 2.789.05 4.153.558 2.17.807 3.747 2.162 4.766 4.258 1.137 2.34 1.307 4.773 1.107 7.503zm9.054-3.945c0-1.515-.374-2.28-1.278-3.07-.953-.831-2.065-.86-3.233-.88-1.97-.034-4.128 1.447-4.337 3.95z"/><path d="m73.21 30.636c.194 2.48 1.1 3.721 3.15 4.384 1.831.592 4.351.565 6.234-1.964.673 0 1.45-.003 2.228.002.717.004 1.433.018 2.217.028.003 1.404-.687 2.374-1.403 3.202-2.49 2.874-5.678 3.925-9.428 3.27-5.119-.894-8.026-5.089-8.068-10.069-.018-2.128.234-4.17 1.253-6.062 1.725-3.205 4.438-4.86 8.054-5.108 5.494-.376 9.51 3.345 9.94 9.164.071.976.01 1.963.01 3.153zm9.06-3.909c-.25-2.81-1.717-4.033-4.544-3.958-2.515.067-4.222 1.625-4.28 3.958z"/><path d="m83.606 74.204c-.946-1.288-1.513-2.754-1.752-4.313-.411-2.67-.295-5.3.907-7.8 1.175-2.444 3.066-4.024 5.636-4.846 2.526-.81 5.05-.767 7.515.137 3.198 1.172 5.049 3.623 5.897 6.825.654 2.47.524 4.956-.302 7.393-1.09 3.22-3.317 5.248-6.554 6.153-.993.277-2.046.339-3.071.5-3.382-.141-6.229-1.262-8.276-4.05zm13.231-6.665c-.029-.626-.029-1.255-.098-1.876-.04-.358-.178-.706-.294-1.052-.707-2.11-2.735-3.268-4.87-3.151-2.103.115-3.814 1.37-4.395 3.389-.471 1.634-.538 3.288-.036 4.932.541 1.768 1.605 3.07 3.483 3.446 2.093.418 4.655.16 5.732-2.787.332-.91.411-1.91.606-2.87z"/><path d="m246.301 74.77c-.82.91-1.805 1.81-2.9 2.307-2.36 1.074-4.862 1.382-7.472.788-4.004-.912-6.327-3.464-7.336-7.297-.679-2.58-.52-5.174.454-7.678 1.128-2.902 3.15-4.797 6.19-5.692 2.792-.825 5.458-.626 8.068.547 2.365 1.063 3.911 2.91 4.77 5.331.492 1.385.774 2.815.662 4.074.076 2.984-.563 5.541-2.436 7.62zm-12.672-7.483c0 .47-.037.944.007 1.411.135 1.46.695 2.75 1.841 3.676 2.225 1.798 6.842 1.48 7.84-2.659.388-1.618.38-3.2-.059-4.787-.577-2.079-2.308-3.388-4.517-3.456-2.503-.078-4.066.933-4.77 3.2-.26.833-.329 1.727-.484 2.594z"/><path d="m180.933 63.679c-.137-.001-.274-.122-.493-.228.41-2.552 1.72-4.494 4.035-5.578 2.617-1.227 5.406-1.61 8.248-.821 2.892.803 4.695 2.958 4.745 6.062.073 4.506.02 9.014.017 13.52-.002.307-.05.615-.09 1.073-1.52.15-3.008.11-4.658.006-.052-.86-.103-1.672-.163-2.621-.533.51-1.007.96-1.478 1.417-2.155 2.087-7.487 2.466-10.037-.348-2.38-2.626-2.031-7.684 1.529-9.431 1.34-.658 2.752-.97 4.19-1.211 1.079-.18 2.178-.235 3.264-.374a5.755 5.755 0 0 0 1.215-.285c1.034-.367 1.474-.995 1.443-1.981-.028-.925-.588-1.788-1.552-1.927-1.437-.205-2.888-.335-4.288.43-.93.507-1.146 1.45-1.794 2.306-1.418 0-2.776.006-4.133-.01zm7.868 5.084c-.918.16-1.85.333-2.72.65-.948.347-1.545 1.439-1.478 2.37.071 1.012.583 1.507 1.752 1.935.796.29 1.524.08 2.296-.027 2.195-.302 4.281-2.372 3.833-5.451-1.229.17-2.463.31-3.684.523z"/><path d="m271.885 77.703h-4.916c-.028-.511-.077-1.01-.078-1.51-.006-3.612.003-7.225-.01-10.84-.004-.568-.025-1.158-.17-1.703-.59-2.204-2.849-2.628-4.386-2.345-2.166.397-3.483 2.033-3.53 4.37-.068 3.349-.034 6.702-.042 10.052-.002.569 0 1.137 0 1.859-1.7.376-3.285.158-4.834.176-.306-1.246-.407-18.074-.133-20.658a26.638 26.638 0 0 1 4.842.036l.21 2.33c.236-.201.422-.308.54-.466 1.866-2.501 6.387-2.95 9.371-1.391 1.131.59 2.062 1.516 2.48 2.735.383 1.12.7 2.324.722 3.498.085 4.239.036 8.482.03 12.723 0 .352-.058.703-.096 1.134z"/><path d="m149.204 77.7h-4.862c-.029-.593-.074-1.102-.075-1.61-.006-3.51-.003-7.02-.003-10.53 0-.366.02-.734-.009-1.098-.16-2.07-1.954-3.511-4.012-3.235-2.54.34-4.02 1.96-4.076 4.54-.042 1.938-.008 3.877-.01 5.815-.005 1.886-.01 3.77-.022 5.657 0 .099-.056.197-.086.297-1.063.314-2.989.362-4.762.118-.04-.035-.084-.065-.115-.106-.03-.04-.064-.091-.064-.137-.025-6.336-.048-12.672-.067-19.007 0-.312.02-.627.054-.937.01-.092.095-.175.198-.351h4.767l.16 2.566c1.663-2.268 3.926-3.107 6.555-2.952 1.978.117 3.781.712 5.092 2.374.987 1.252 1.432 2.716 1.461 4.222.088 4.607.038 9.218.034 13.827 0 .146-.08.29-.158.547z"/><path d="m124.677 77.695h-4.753l-.254-2.284c-.19.133-.378.21-.487.349-2.08 2.664-7.131 2.917-10.081.276a6.583 6.583 0 0 1 -2.226-4.865c-.078-4.553-.022-9.11-.013-13.664 0-.094.07-.19.176-.448 1.517-.103 3.103-.093 4.84.02.025.64.064 1.2.064 1.759.006 3.717-.017 7.435.012 11.153.016 2.134 1.342 3.377 3.473 3.358 1.69-.015 3.109-.963 3.658-2.672.346-1.077.573-2.233.607-3.361.084-2.825.027-5.655.027-8.482v-1.53c1.119-.364 2.917-.422 4.852-.183.036.037.077.07.109.11s.075.084.08.129c.03.259.073.519.073.777 0 6.336-.004 12.672-.014 19.008 0 .147-.074.293-.143.55z"/><path d="m210.12 39.1h-4.733l-.163-2.31c-1.134 1.351-2.432 2.284-4.123 2.56-4.353.71-8.435-1.728-8.689-6.517-.239-4.543-.063-9.108-.065-13.663 0-.098.055-.197.142-.492 1.525-.114 3.116-.05 4.88-.034.026.601.067 1.104.068 1.607.006 3.352.003 6.703.004 10.055 0 .418.023.838.011 1.256-.037 1.42.677 2.766 2.193 3.267 1.36.45 3.135-.064 4.116-1.209 1.16-1.353 1.434-2.999 1.465-4.682.053-2.827.016-5.655.016-8.483v-1.572c.85-.454 1.697-.215 2.508-.254.78-.038 1.561-.009 2.215-.009.158.142.2.175.235.213.034.037.087.08.09.121.027.47.067.94.066 1.41-.01 6.124-.027 12.25-.048 18.375 0 .09-.09.178-.189.36z"/><path d="m67.269 57.07 2.704-.134c.136-1.045.293-2.013.382-2.988.21-2.298 1.74-4.457 4.71-4.518 1.412-.03 2.825-.006 4.224-.006.51.715.23 1.47.28 2.178.049.673.012 1.352.012 2.212h-3.085c-1.291.833-1.378 1.835-1.218 3.097l3.616.168c.165 1.51.06 2.954.066 4.584l-3.754.17v15.881c-1.667.132-3.21.085-4.626.044-.665-.557-.482-1.173-.483-1.726-.014-4.191-.006-8.383-.011-12.574-.001-.512-.043-1.024-.07-1.622l-2.747-.166z"/><path d="m204.586 61.721h-3.598c-.241-1.587-.184-3.065-.041-4.7h3.627v-4.522c1.728-.42 3.249-1.072 5.067-1.234v5.67l4.029.115c.21 1.548.13 2.981.05 4.415-1.304.595-2.601.06-3.896.425-.04.326-.113.674-.115 1.022-.01 2.621-.018 5.241-.001 7.861.01 1.82.486 2.264 2.362 2.288.618.008 1.236.001 1.913.001.306 1.584.132 3.03.145 4.555-.421.066-.77.18-1.112.163-1.458-.072-2.926-.099-4.37-.297-2.365-.324-3.933-2.214-4.01-4.888-.086-2.984-.04-5.973-.05-8.959z"/><path d="m103.182 39.107c-2.157 0-4.051.179-5.893-.051-1.782-.222-2.992-1.47-3.514-3.207a10.434 10.434 0 0 1 -.427-2.765c-.055-2.721-.02-5.444-.02-8.165v-1.703h-3.412c-.575-.794-.302-1.548-.351-2.253-.046-.673-.01-1.352-.01-2.044 1.2-.586 2.445-.037 3.733-.441v-4.35l5.034-1.435c.284 1.983-.006 3.909.202 5.935h3.834c.304 1.515.164 2.899.107 4.462l-3.946.121c-.03.393-.07.695-.07.997-.005 2.669-.015 5.338 0 8.008.01 1.848.575 2.399 2.437 2.473.61.024 1.223.064 1.924.102z"/><path d="m159.631 39.104h-4.763c-.345-1.11-.483-16.94-.179-20.229.753-.442 1.602-.184 2.411-.226.779-.04 1.561-.009 2.523-.009l.129 2.112c.899-.633 1.759-1.459 2.784-1.9 1.076-.463 2.303-.64 3.708-.408.154 1.568.05 3.152.045 4.89-.596.033-1.098.097-1.598.084-2.962-.074-4.994 1.861-4.98 4.984.013 3.034.004 6.067-.004 9.101-.001.507-.047 1.014-.076 1.601z"/><path d="m218.632 57.077h4.719c.308 1.322.324 19.15.018 20.623h-4.62c-.046-.044-.087-.077-.121-.116-.033-.038-.077-.08-.083-.124-.032-.206-.073-.414-.073-.62 0-6.387.003-12.774.013-19.16 0-.148.069-.295.147-.603z"/><path d="m218.504 48.865c.488-.035.842-.081 1.197-.083 1.299-.01 2.598-.004 3.86-.004.378 1.283.393 4.163.026 5.624-1.636.222-3.316.13-5.083.064z"/></g></svg>