<svg fill="none" height="54" viewBox="0 0 59 54" width="59" xmlns="http://www.w3.org/2000/svg"><path d="m51 32v8h8v5.3333h-8v8h-5.3333v-8h-8v-5.3333h8v-8zm.0214-32c1.4613 0 2.6453 1.18667 2.6453 2.648v24.9307c-1.713-.6051-3.5166-.9135-5.3333-.912v-21.33337h-42.66669l.00266 37.33337 24.77863-24.7814c.4586-.46 1.0694-.7367 1.7177-.7779.6482-.0413 1.2892.1557 1.8023.5539l.248.2267 9.456 9.4667c-2.0676.63-3.9862 1.6723-5.6401 3.0639s-3.0089 3.1037-3.9832 5.0331c-.9743 1.9295-1.5478 4.0362-1.6859 6.1933-.138 2.1571.1622 4.3198.8826 6.3577l-30.26669-.0027c-.70183-.0007-1.37468-.28-1.8707-.7765-.496017-.4965-.774636-1.1697-.774636-1.8715v-42.704c.00488-.70033.285067-1.37062.780036-1.866086.49496-.495466 1.16498-.77632827 1.8653-.781914zm-34.688 10.6667c1.4145 0 2.771.5619 3.7712 1.5621s1.5621 2.3567 1.5621 3.7712-.5619 2.771-1.5621 3.7712-2.3567 1.5621-3.7712 1.5621-2.7711-.5619-3.7713-1.5621-1.5621-2.3567-1.5621-3.7712.5619-2.771 1.5621-3.7712 2.3568-1.5621 3.7713-1.5621z" fill="#bcbcbc"/></svg>