<svg height="32" viewBox="0 0 48 32" width="48" xmlns="http://www.w3.org/2000/svg"><path d="m29.3669604 0-7.844 12.732-3.21 5.21-3.244 5.266c-1.0192047.8591608-2.3643191 1.2273398-3.679 1.007-.936614-.1518338-1.8017594-.5943769-2.47299998-1.265-.845-.845-1.314-2.084-1.287-3.399.025-1.194.453-2.26 1.174-2.924.946-.87 1.89599998-1.204 2.79799998-1.204 1.337 0 2.566.733 3.511 1.536l.03.025c.003.003.232.238.431.563l4.171-6.65c-2.176-1.763-4.548-2.779-6.913-3.045-3.25799998-.369-6.49999998.682-9.19499998 3.163-2.241 2.063-3.567 5.117-3.634 8.379-.04843971 2.2296528.49832991 4.4319193 1.584 6.38.52436693.941432 1.17581295 1.8062131 1.936 2.57 1.06346047 1.0633057 2.31541812 1.9195336 3.692 2.525 1.54977274.6824662 3.22461418 1.035 4.91799998 1.035 3.118 0 6.236-1.186 8.61-3.56l.316-.317.828-1.343 2.905-4.715 4.627-7.51 4.702 7.51h-6.459l-4.215 7.63h24.451l-.03-.048z" fill="#fff"/></svg>