<svg height="32" viewBox="0 0 164 32" width="164" xmlns="http://www.w3.org/2000/svg"><g fill="none" fill-rule="evenodd"><path d="m106.08 29v-2.92h1.95c.406667 0 .775-.0766667 1.105-.23s.593333-.3783333.79-.675.295-.655.295-1.075v-.12c0-.42-.096667-.7766667-.29-1.07s-.455-.5183333-.785-.675-.701667-.235-1.115-.235h-2.59v7zm1.88-3.5h-1.88v-2.92h1.88c.513333 0 .911667.1216667 1.195.365s.425.5916667.425 1.045v.1c0 .4466667-.145.7933333-.435 1.04s-.685.37-1.185.37zm5.37 3.6c.52 0 .916667-.1016667 1.19-.305s.47-.435.59-.695h.12v.9h.58v-4.86h-.6v2.43c0 .6666667-.166667 1.165-.5 1.495s-.75.495-1.25.495c-.446667 0-.803333-.1183333-1.07-.355s-.4-.6183333-.4-1.145v-2.92h-.6v2.96c0 .4466667.088333.8183333.265 1.115s.413333.5183333.71.665.618333.22.965.22zm6.84.04c.433333 0 .826667-.1016667 1.18-.305s.635-.4933333.845-.87.315-.8216667.315-1.335v-.12c0-.5133333-.103333-.9583333-.31-1.335s-.486667-.6666667-.84-.87-.75-.305-1.19-.305c-.353333 0-.655.0483333-.905.145s-.453333.22-.61.37-.278333.3083333-.365.475h-.12v-2.99h-.6v7h.58v-.89h.12c.14.2666667.358333.505.655.715s.711667.315 1.245.315zm-.14-.54c-.546667 0-.993333-.1766667-1.34-.53s-.52-.84-.52-1.46v-.08c0-.62.173333-1.1066667.52-1.46s.793333-.53 1.34-.53c.553333 0 1.001667.1766667 1.345.53s.515.84.515 1.46v.08c0 .62-.171667 1.1066667-.515 1.46s-.791667.53-1.345.53zm4.6.4v-7h-.6v7zm2.06-5.7c.153333 0 .278333-.05.375-.15s.145-.2233333.145-.37c0-.1533333-.048333-.2783333-.145-.375s-.221667-.145-.375-.145c-.146667 0-.27.0483333-.37.145s-.15.2216667-.15.375c0 .1466667.05.27.15.37s.223333.15.37.15zm.3 5.7v-4.86h-.6v4.86zm3.98.14c.466667 0 .861667-.0883333 1.185-.265s.58-.4066667.77-.69.315-.5816667.375-.895l-.59-.12c-.066667.4-.24.7383333-.52 1.015s-.686667.415-1.22.415c-.353333 0-.67-.0816667-.95-.245s-.501667-.3933333-.665-.69-.245-.6483333-.245-1.055v-.08c0-.4066667.081667-.7583333.245-1.055s.385-.5266667.665-.69.596667-.245.95-.245.65.065.89.195.426667.3033333.56.52.216667.455.25.715l.59-.12c-.046667-.3133333-.161667-.6116667-.345-.895s-.436667-.5133333-.76-.69-.718333-.265-1.185-.265c-.473333 0-.895.1016667-1.265.305s-.661667.4933333-.875.87-.32.825-.32 1.345v.1c0 .5133333.106667.96.32 1.34s.505.6716667.875.875.791667.305 1.265.305zm9.43-.14c.4 0 .758333-.0716667 1.075-.215s.566667-.3516667.75-.625.275-.6.275-.98v-.1c0-.3266667-.061667-.5966667-.185-.81s-.276667-.3816667-.46-.505-.361667-.205-.535-.245v-.12c.173333-.0533333.35-.14.53-.26s.333333-.2866667.46-.5.19-.4833333.19-.81v-.08c0-.3466667-.088333-.6516667-.265-.915s-.421667-.4683333-.735-.615-.67-.22-1.07-.22h-3.47v.58h1v5.84h-1v.58zm-.02-3.82h-1.78v-2.6h1.78c.46 0 .821667.115 1.085.345s.395.5316667.395.905v.1c0 .3733333-.131667.675-.395.905s-.625.345-1.085.345zm-.04 3.24h-1.74v-2.66h1.74c.5 0 .878333.1166667 1.135.35s.385.5466667.385.94v.08c0 .3933333-.128333.7066667-.385.94s-.635.35-1.135.35zm5.86.72c.433333 0 .79-.0683333 1.07-.205s.508333-.31.685-.52.315-.425.415-.645l-.54-.24c-.133333.3-.325.5533333-.575.76s-.601667.31-1.055.31c-.533333 0-.975-.165-1.325-.495s-.535-.7983333-.555-1.405h4.14v-.32c0-.4933333-.1-.9183333-.3-1.275s-.475-.63-.825-.82-.751667-.285-1.205-.285c-.466667 0-.881667.105-1.245.315s-.648333.5033333-.855.88-.31.815-.31 1.315v.12c0 .4933333.103333.93.31 1.31s.495.675.865.885.805.315 1.305.315zm1.65-2.96h-3.52c.073333-.5266667.27-.9316667.59-1.215s.723333-.425 1.21-.425c.493333 0 .896667.1416667 1.21.425s.483333.6883333.51 1.215zm5.11 2.82v-.54h-1.14c-.2 0-.3-.1-.3-.3v-3.48h1.7v-.54h-1.7v-1.82h-.6v1.82h-1.56v.54h1.56v3.56c0 .24.065.4266667.195.56s.325.2.585.2zm3.09.14c.333333 0 .61-.0433333.83-.13s.398333-.2.535-.34.248333-.2833333.335-.43h.1v.07c0 .2133333.06.3816667.18.505s.283333.185.49.185h.64v-.52h-.47c-.186667 0-.28-.1-.28-.3v-2.36c0-.5733333-.168333-1.02-.505-1.34s-.811667-.48-1.425-.48c-.4 0-.743333.0683333-1.03.205s-.516667.32-.69.55-.3.4883333-.38.775l.58.17c.086667-.3533333.255-.635.505-.845s.588333-.315 1.015-.315c.433333 0 .763333.11.99.33s.34.5266667.34.92v.39h-1.78c-.333333 0-.636667.0533333-.91.16s-.49.2666667-.65.48-.24.4833333-.24.81c0 .32.08.5933333.24.82s.378333.3983333.655.515.585.175.925.175zm.04-.54c-.366667 0-.668333-.085-.905-.255s-.355-.4116667-.355-.725.115-.545.345-.695.518333-.225.865-.225h1.77v.12c0 .5666667-.158333 1.005-.475 1.315s-.731667.465-1.245.465z" fill="#fff" fill-rule="nonzero"/><g fill="#fff" fill-rule="nonzero"><path d="m29.3669604 0-7.844 12.732-3.21 5.21-3.244 5.266c-1.0192047.8591608-2.3643191 1.2273398-3.679 1.007-.936614-.1518338-1.8017594-.5943769-2.47299998-1.265-.845-.845-1.314-2.084-1.287-3.399.025-1.194.453-2.26 1.174-2.924.946-.87 1.89599998-1.204 2.79799998-1.204 1.337 0 2.566.733 3.511 1.536l.03.025c.003.003.232.238.431.563l4.171-6.65c-2.176-1.763-4.548-2.779-6.913-3.045-3.25799998-.369-6.49999998.682-9.19499998 3.163-2.241 2.063-3.567 5.117-3.634 8.379-.04843971 2.2296528.49832991 4.4319193 1.584 6.38.52436693.941432 1.17581295 1.8062131 1.936 2.57 1.06346047 1.0633057 2.31541812 1.9195336 3.692 2.525 1.54977274.6824662 3.22461418 1.035 4.91799998 1.035 3.118 0 6.236-1.186 8.61-3.56l.316-.317.828-1.343 2.905-4.715 4.627-7.51 4.702 7.51h-6.459l-4.215 7.63h24.451l-.03-.048z"/><path d="m59.4909604 5.695h4.119l5.237 12.515h-4.51l-.656-1.669h-4.35l-.638 1.669h-4.44zm3.16 7.899-1.136-3.018-1.136 3.018z"/><path d="m73.7999604 5.783h4.332l2.663 4.367 2.662-4.367h4.332v12.427h-4.136v-6.16l-2.858 4.42h-.072l-2.858-4.42v6.16h-4.065z"/><path d="m93.6489604 5.783h5.59c3.3039996 0 5.5579996 1.474 5.5579996 4.42v.036c0 3-2.29 4.598-5.6449996 4.598h-1.35v3.373h-4.153zm5.272 6.09c1.065 0 1.7749996-.48 1.7749996-1.368v-.035c0-.906-.656-1.368-1.7569996-1.368h-1.136v2.77z"/><path d="m110.12396 5.783h4.153v8.876h5.842v3.551h-9.996z"/><path d="m125.49796 5.783h4.154v12.427h-4.154z"/><path d="m135.54596 5.783h10.403v3.55h-6.249v1.58h5.805v3.231h-5.805v4.066h-4.154z"/><path d="m155.05596 13.807-4.686-8.023h4.652l2.13 4.083 2.148-4.083h4.598l-4.687 7.97v4.456h-4.154z"/></g><path d="m99.4285714 22.5v1.9645714l1.3897036-1.3889375.606091.6060915-1.390652 1.3897032h1.966286v.8571428h-1.965429l1.389795 1.3897032-.606091.6060915-1.3897036-1.3897947v1.9654286h-.8571428v-1.9662857l-1.3897032 1.3906518-.6060915-.6060915 1.3889375-1.3897032h-1.9645714v-.8571428h1.9654286l-1.3897947-1.3897032.6060915-.6060915 1.3897032 1.3897947v-1.9654286z" fill="#e52b25"/></g></svg>