<svg xmlns="http://www.w3.org/2000/svg" width="164" height="32"><g fill="none" fill-rule="nonzero"><path fill="#FFF" d="M70.9 29v-.54h-1.14c-.2 0-.3-.1-.3-.3v-3.48h1.7v-.54h-1.7v-1.82h-.6v1.82H67.3v.54h1.56v3.56c0 .24.065.427.195.56.13.133.325.2.585.2h1.26Zm3.84.14c.433 0 .79-.068 1.07-.205.28-.137.508-.31.685-.52.177-.21.315-.425.415-.645l-.54-.24c-.133.3-.325.553-.575.76-.25.207-.602.31-1.055.31-.533 0-.975-.165-1.325-.495-.35-.33-.535-.798-.555-1.405H77v-.32c0-.493-.1-.918-.3-1.275-.2-.357-.475-.63-.825-.82A2.485 2.485 0 0 0 74.67 24c-.467 0-.882.105-1.245.315-.363.21-.648.503-.855.88-.207.377-.31.815-.31 1.315v.12c0 .493.103.93.31 1.31.207.38.495.675.865.885.37.21.805.315 1.305.315Zm1.65-2.96h-3.52c.073-.527.27-.932.59-1.215.32-.283.723-.425 1.21-.425.493 0 .897.142 1.21.425.313.283.483.688.51 1.215Zm4.02 2.96c.593 0 1.063-.125 1.41-.375s.52-.605.52-1.065c0-.307-.078-.553-.235-.74a1.53 1.53 0 0 0-.635-.435 4.427 4.427 0 0 0-.9-.235l-.46-.08c-.347-.06-.62-.152-.82-.275-.2-.123-.3-.318-.3-.585 0-.273.11-.48.33-.62.22-.14.513-.21.88-.21.373 0 .685.08.935.24.25.16.408.433.475.82l.56-.12c-.087-.473-.298-.835-.635-1.085S80.753 24 80.2 24c-.547 0-.985.12-1.315.36-.33.24-.495.57-.495.99 0 .28.072.513.215.7.143.187.338.335.585.445.247.11.523.192.83.245l.46.08c.38.067.685.157.915.27.23.113.345.317.345.61a.77.77 0 0 1-.365.675c-.243.163-.565.245-.965.245-.267 0-.518-.043-.755-.13a1.357 1.357 0 0 1-.6-.435c-.163-.203-.272-.482-.325-.835l-.59.11c.093.647.348 1.11.765 1.39.417.28.918.42 1.505.42Zm6.37-.14v-.54h-1.14c-.2 0-.3-.1-.3-.3v-3.48h1.7v-.54h-1.7v-1.82h-.6v1.82h-1.56v.54h1.56v3.56c0 .24.065.427.195.56.13.133.325.2.585.2h1.26Zm2.2 0v-2.43c0-.667.167-1.165.5-1.495.333-.33.75-.495 1.25-.495.447 0 .803.117 1.07.35.267.233.4.617.4 1.15V29h.6v-2.96c0-.447-.088-.818-.265-1.115a1.69 1.69 0 0 0-.705-.665 2.138 2.138 0 0 0-.97-.22c-.52 0-.917.102-1.19.305a1.83 1.83 0 0 0-.59.695h-.12v-.9h-.58V29h.6Zm7.76.14c.433 0 .79-.068 1.07-.205.28-.137.508-.31.685-.52.177-.21.315-.425.415-.645l-.54-.24c-.133.3-.325.553-.575.76-.25.207-.602.31-1.055.31-.533 0-.975-.165-1.325-.495-.35-.33-.535-.798-.555-1.405H99v-.32c0-.493-.1-.918-.3-1.275-.2-.357-.475-.63-.825-.82A2.485 2.485 0 0 0 96.67 24c-.467 0-.882.105-1.245.315-.363.21-.648.503-.855.88-.207.377-.31.815-.31 1.315v.12c0 .493.103.93.31 1.31.207.38.495.675.865.885.37.21.805.315 1.305.315Zm1.65-2.96h-3.52c.073-.527.27-.932.59-1.215.32-.283.723-.425 1.21-.425.493 0 .897.142 1.21.425.313.283.483.688.51 1.215ZM103.5 29v-.54h-1.14c-.2 0-.3-.1-.3-.3v-3.48h1.7v-.54h-1.7v-1.82h-.6v1.82H99.9v.54h1.56v3.56c0 .24.065.427.195.56.13.133.325.2.585.2h1.26Zm7.4.14c.493 0 .925-.105 1.295-.315.37-.21.657-.503.86-.88.203-.377.305-.815.305-1.315v-.12c0-.5-.102-.938-.305-1.315a2.185 2.185 0 0 0-.86-.88c-.37-.21-.802-.315-1.295-.315-.493 0-.925.105-1.295.315-.37.21-.657.503-.86.88-.203.377-.305.815-.305 1.315v.12c0 .5.102.938.305 1.315s.49.67.86.88c.37.21.802.315 1.295.315Zm0-.54c-.567 0-1.018-.182-1.355-.545-.337-.363-.505-.845-.505-1.445v-.08c0-.6.168-1.082.505-1.445.337-.363.788-.545 1.355-.545.573 0 1.027.182 1.36.545.333.363.5.845.5 1.445v.08c0 .6-.167 1.082-.5 1.445-.333.363-.787.545-1.36.545Zm4.58 2.4v-2.85h.12c.087.16.208.317.365.47.157.153.36.278.61.375.25.097.552.145.905.145.44 0 .837-.102 1.19-.305a2.2 2.2 0 0 0 .84-.87c.207-.377.31-.822.31-1.335v-.12c0-.52-.105-.967-.315-1.34a2.243 2.243 0 0 0-.845-.865 2.323 2.323 0 0 0-1.18-.305c-.533 0-.948.105-1.245.315-.297.21-.515.448-.655.715h-.12v-.89h-.58V31h.6Zm1.86-2.4c-.547 0-.993-.177-1.34-.53-.347-.353-.52-.84-.52-1.46v-.08c0-.62.173-1.107.52-1.46.347-.353.793-.53 1.34-.53.553 0 1.002.177 1.345.53.343.353.515.84.515 1.46v.08c0 .62-.172 1.107-.515 1.46s-.792.53-1.345.53Zm6.24.54c.433 0 .79-.068 1.07-.205.28-.137.508-.31.685-.52.177-.21.315-.425.415-.645l-.54-.24c-.133.3-.325.553-.575.76-.25.207-.602.31-1.055.31-.533 0-.975-.165-1.325-.495-.35-.33-.535-.798-.555-1.405h4.14v-.32c0-.493-.1-.918-.3-1.275-.2-.357-.475-.63-.825-.82A2.485 2.485 0 0 0 123.51 24c-.467 0-.882.105-1.245.315-.363.21-.648.503-.855.88-.207.377-.31.815-.31 1.315v.12c0 .493.103.93.31 1.31.207.38.495.675.865.885.37.21.805.315 1.305.315Zm1.65-2.96h-3.52c.073-.527.27-.932.59-1.215.32-.283.723-.425 1.21-.425.493 0 .897.142 1.21.425.313.283.483.688.51 1.215Zm2.69 2.82v-2.43c0-.667.167-1.165.5-1.495.333-.33.75-.495 1.25-.495.447 0 .803.117 1.07.35.267.233.4.617.4 1.15V29h.6v-2.96c0-.447-.088-.818-.265-1.115a1.69 1.69 0 0 0-.705-.665 2.138 2.138 0 0 0-.97-.22c-.52 0-.917.102-1.19.305a1.83 1.83 0 0 0-.59.695h-.12v-.9h-.58V29h.6Zm11.7.14c.433 0 .827-.102 1.18-.305s.635-.493.845-.87c.21-.377.315-.822.315-1.335v-.12c0-.513-.103-.958-.31-1.335a2.2 2.2 0 0 0-.84-.87 2.342 2.342 0 0 0-1.19-.305c-.353 0-.655.048-.905.145-.25.097-.453.22-.61.37-.157.15-.278.308-.365.475h-.12V22h-.6v7h.58v-.89h.12c.14.267.358.505.655.715.297.21.712.315 1.245.315Zm-.14-.54c-.547 0-.993-.177-1.34-.53-.347-.353-.52-.84-.52-1.46v-.08c0-.62.173-1.107.52-1.46.347-.353.793-.53 1.34-.53.553 0 1.002.177 1.345.53.343.353.515.84.515 1.46v.08c0 .62-.172 1.107-.515 1.46s-.792.53-1.345.53Zm6.24.54c.433 0 .79-.068 1.07-.205.28-.137.508-.31.685-.52.177-.21.315-.425.415-.645l-.54-.24c-.133.3-.325.553-.575.76-.25.207-.602.31-1.055.31-.533 0-.975-.165-1.325-.495-.35-.33-.535-.798-.555-1.405h4.14v-.32c0-.493-.1-.918-.3-1.275-.2-.357-.475-.63-.825-.82A2.485 2.485 0 0 0 145.65 24c-.467 0-.882.105-1.245.315-.363.21-.648.503-.855.88-.207.377-.31.815-.31 1.315v.12c0 .493.103.93.31 1.31.207.38.495.675.865.885.37.21.805.315 1.305.315Zm1.65-2.96h-3.52c.073-.527.27-.932.59-1.215.32-.283.723-.425 1.21-.425.493 0 .897.142 1.21.425.313.283.483.688.51 1.215Zm5.11 2.82v-.54h-1.14c-.2 0-.3-.1-.3-.3v-3.48h1.7v-.54h-1.7v-1.82h-.6v1.82h-1.56v.54h1.56v3.56c0 .24.065.427.195.56.13.133.325.2.585.2h1.26Zm3.09.14c.333 0 .61-.043.83-.13.22-.087.398-.2.535-.34a2.28 2.28 0 0 0 .335-.43h.1v.07c0 .213.06.382.18.505s.283.185.49.185h.64v-.52h-.47c-.187 0-.28-.1-.28-.3v-2.36c0-.573-.168-1.02-.505-1.34-.337-.32-.812-.48-1.425-.48-.4 0-.743.068-1.03.205-.287.137-.517.32-.69.55-.173.23-.3.488-.38.775l.58.17a1.55 1.55 0 0 1 .505-.845c.25-.21.588-.315 1.015-.315.433 0 .763.11.99.33.227.22.34.527.34.92v.39h-1.78c-.333 0-.637.053-.91.16-.273.107-.49.267-.65.48-.16.213-.24.483-.24.81 0 .32.08.593.24.82.16.227.378.398.655.515.277.117.585.175.925.175Zm.04-.54c-.367 0-.668-.085-.905-.255-.237-.17-.355-.412-.355-.725s.115-.545.345-.695c.23-.15.518-.225.865-.225h1.77v.12c0 .567-.158 1.005-.475 1.315-.317.31-.732.465-1.245.465Z"/><path fill="#E52B25" d="M61.449 22.992v1.964l1.389-1.389.606.606-1.39 1.39h1.966v.857h-1.965l1.389 1.39-.606.606-1.389-1.39v1.966h-.858v-1.967l-1.389 1.391-.606-.606 1.389-1.39H58.02v-.857h1.965l-1.389-1.39.606-.606 1.389 1.39v-1.965z"/><path fill="#FFF" d="m155.056 13.807-4.686-8.023h4.652l2.13 4.083 2.148-4.083h4.598l-4.687 7.97v4.456h-4.154zM135.546 5.783h10.403v3.55H139.7v1.58h5.805v3.231H139.7v4.066h-4.154zM125.498 5.783h4.154V18.21h-4.154zM110.124 5.783h4.153v8.876h5.842v3.551h-9.996zM93.649 5.783h5.59c3.304 0 5.558 1.474 5.558 4.42v.036c0 3-2.29 4.598-5.645 4.598h-1.35v3.373h-4.153V5.783Zm5.272 6.09c1.065 0 1.775-.48 1.775-1.368v-.035c0-.906-.656-1.368-1.757-1.368h-1.136v2.77l1.118.001ZM73.8 5.783h4.332l2.663 4.367 2.662-4.367h4.332V18.21h-4.136v-6.16l-2.858 4.42h-.072l-2.858-4.42v6.16H73.8zM59.491 5.695h4.119l5.237 12.515h-4.51l-.656-1.669h-4.35l-.638 1.669h-4.44l5.238-12.515Zm3.16 7.899-1.136-3.018-1.136 3.018h2.272ZM29.367 0l-7.844 12.732-3.21 5.21-3.244 5.266a4.543 4.543 0 0 1-3.679 1.007 4.523 4.523 0 0 1-2.473-1.265c-.845-.845-1.314-2.084-1.287-3.399.025-1.194.453-2.26 1.174-2.924.946-.87 1.896-1.204 2.798-1.204 1.337 0 2.566.733 3.511 1.536l.03.025c.003.003.232.238.431.563l4.171-6.65c-2.176-1.763-4.548-2.779-6.913-3.045-3.258-.369-6.5.682-9.195 3.163C1.396 13.078.07 16.132.003 19.394a12.546 12.546 0 0 0 1.584 6.38 11.744 11.744 0 0 0 1.936 2.57 12.127 12.127 0 0 0 3.692 2.525 12.203 12.203 0 0 0 4.918 1.035c3.118 0 6.236-1.186 8.61-3.56l.316-.317.828-1.343 2.905-4.715 4.627-7.51 4.702 7.51h-6.459l-4.215 7.63h24.451l-.03-.048L29.367 0Z"/></g></svg>
