<svg height="33" viewBox="0 0 165 33" width="165" xmlns="http://www.w3.org/2000/svg"><g fill="#fff"><path d="m29.601.848-7.844 12.732-3.21 5.21-3.244 5.266a4.543 4.543 0 0 1 -3.679 1.007 4.523 4.523 0 0 1 -2.473-1.265c-.845-.845-1.314-2.084-1.287-3.399.025-1.194.453-2.26 1.174-2.924.946-.87 1.896-1.204 2.798-1.204 1.337 0 2.566.733 3.511 1.536l.03.025c.003.003.232.238.431.563l4.171-6.65c-2.176-1.763-4.548-2.779-6.913-3.045-3.258-.369-6.5.682-9.195 3.163-2.241 2.063-3.567 5.117-3.634 8.379a12.546 12.546 0 0 0 1.584 6.38 11.744 11.744 0 0 0 1.936 2.57 12.127 12.127 0 0 0 3.692 2.525 12.204 12.204 0 0 0 4.918 1.035c3.118 0 6.236-1.186 8.61-3.56l.316-.317.828-1.343 2.905-4.715 4.627-7.51 4.702 7.51h-6.459l-4.215 7.63h24.451l-.03-.048z"/><path d="m59.725 10.543h4.119l5.237 12.515h-4.51l-.656-1.669h-4.35l-.638 1.669h-4.44zm3.16 7.899-1.136-3.018-1.136 3.018z"/><path d="m74.034 10.631h4.332l2.663 4.367 2.662-4.367h4.332v12.427h-4.136v-6.16l-2.858 4.42h-.072l-2.858-4.42v6.16h-4.065z"/><path d="m93.883 10.631h5.59c3.304 0 5.558 1.474 5.558 4.42v.036c0 3-2.29 4.598-5.645 4.598h-1.35v3.373h-4.153zm5.272 6.09c1.065 0 1.775-.48 1.775-1.368v-.035c0-.906-.656-1.368-1.757-1.368h-1.136v2.77z"/><path d="m110.358 10.631h4.153v8.876h5.842v3.551h-9.996z"/><path d="m125.732 10.631h4.154v12.427h-4.154z"/><path d="m135.78 10.631h10.403v3.55h-6.249v1.58h5.805v3.231h-5.805v4.066h-4.154z"/><path d="m155.29 18.655-4.686-8.023h4.652l2.13 4.083 2.148-4.083h4.598l-4.687 7.97v4.456h-4.154z"/></g></svg>