<svg height="183" viewBox="0 0 695 183" width="695" xmlns="http://www.w3.org/2000/svg"><g fill="#515050"><path d="m279.599187 42.6220511v97.4099999h-11.58v-81.2599999l-22.79 81.2599999h-28.55l-22.82-81.2599999v81.2599999h-11.55v-97.4099999h18.09l24.91 86.8299999h11.29l24.91-86.8299999z"/><path d="m299.359187 42.6220511h11.13v12.81h-11.13zm0 27.69h11.13v69.7199999h-11.13z"/><path d="m380.339187 89.5220511v50.5099999h-11.13v-46.9999999c0-8.49-3.9-14.75-13.08-14.75s-16.11 6.23-16.11 16.85v44.9999999h-11.17v-69.8199999h11.17v8.63c4.249667-6.7712487 11.72659-10.8319912 19.72-10.71 11 0 20.6 7.23 20.6 21.29z"/><path d="m402.019187 119.992051v-39.6599999h-9.18v-10h9.32v-17.41h11v17.39h15.46v10h-15.44v39.3799999c0 9.32 3.89 11.41 10.29 11.41h5.85v10.000264h-6c-11.54.029736-21.3-2.470264-21.3-21.110264z"/><path d="m493.879187 92.5820511v25.1799999c0 14.47-9.32 24.35-22.26 24.35-7.94 0-14.89-3.48-18.09-8.76v6.68h-11.13v-97.4099999h11.13v34.37c3.2-5.28 10.15-8.76 18.09-8.76 12.94 0 22.26 9.9 22.26 24.35zm-11.13.83c0-10.15-6.12-15.16-14.61-15.16s-14.61 5-14.61 15.16v23.5199999c0 10.15 6.12 15.16 14.61 15.16s14.61-5 14.61-15.16z"/><path d="m560.949187 70.3120511v69.7199999h-11.13v-6.68c-3.2 5.28-10.16 8.76-18.09 8.76-12.94 0-22.27-9.88-22.27-24.35v-25.1799999c0-14.47 9.33-24.35 22.27-24.35 7.93 0 14.89 3.48 18.09 8.76v-6.68zm-11.13 46.6199999v-23.5199999c0-10.15-6.13-15.16-14.61-15.16s-14.61 5-14.61 15.16v23.5199999c0 10.15 6.12 15.16 14.61 15.16s14.61-4.96 14.61-15.16z"/><path d="m577.229187 117.762051v-2.22h11.13v2.64c0 9.18 5.43 13.91 15.44 13.91 6.4 0 13.5-1.94 13.5-9.73 0-7.38-5.56-9.47-16.7-13-13.49-4.17-22.4-8.2-22.4-20.7299999 0-15.72 14.06-20.45 24.77-20.45 11.83 0 24.63 6 24.63 22v3.2h-11.13v-2.89c0-9.6-7.1-12.24-13.78-12.24-7.23 0-13.08 3.06-13.08 9.46 0 6.82 6.82 9 16 11.82 14.61 4.3199999 23.1 9.3299999 23.1 22.2699999 0 15.44-13.08 20.310037-25.32 20.310037-15.73.019963-26.16-8.070037-26.16-24.350037z"/><path d="m654.309187 108.722051v7.65c0 9.46 5.85 15.72 14.61 15.72 9.05 0 14.61-4.87 14.61-14.33h11.14c0 16.42-9.74 24.35-25.75 24.35-15.44 0-25.74-9.74-25.74-24.49v-24.8999999c0-14.75 10.3-24.49 25.74-24.49s25.75 9.74 25.75 24.49v15.9999999zm0-14.7499999v6.1599999h29.22v-6.1599999c0-9.46-5.84-15.72-14.61-15.72s-14.61 6.26-14.61 15.72z"/><path d="m125.159187 69.9920511h-12.66v-48.65c.027806-9.8691386-6.733681-18.46229742-16.3324191-20.75683342-9.5987382-2.29453599-19.5154974 2.3117616-23.9539991 11.12654302-4.4385018 8.8147815-2.2338423 19.5245699 5.3253698 25.8695665 7.5592121 6.3449967 18.4890295 6.6599301 26.4010484.7607239v31.65h-48.8400004c-11.7139596 0-21.21 9.4960405-21.21 21.21v.46 48.6399999h-12.66c-11.69463254-.004992-21.18886341 9.452727-21.22906017 21.147292-.03994229 11.694565 9.38925574 21.217121 21.08364787 21.292716 11.6943921.074699 21.2451884-9.325894 21.3554123-21.020008v-12.86h31.85c-5.8524898 7.884266-5.5218771 18.756412.7988633 26.270501 6.3207404 7.514088 16.9756849 9.701559 25.7456731 5.285612 8.769989-4.415947 13.357437-14.278411 11.084708-23.830792-2.272729-9.552382-10.81022-16.292123-20.6292444-16.285321h-48.84v-32.1c8.4368894 6.291609 20.2129051 5.437494 27.6536071-2.005718 7.440702-7.4432115 8.2908462-19.2195145 1.9963929-27.6542819h31.8400004v12.86c.11021 11.6872899 9.654497 21.0828839 21.342077 21.0095829s21.113268-9.587868 21.076982-21.2756218c-.036496-11.6877534-9.521249-21.1434415-21.209059-21.1439611zm-33.8700004-36c-5.1214001.0040454-9.7407637-3.0778985-11.7034424-7.8082946-1.9626786-4.7303962-.8820125-10.1773273 2.7379343-13.8001357 3.6199468-3.62280834 9.0660222-4.70777831 13.7979678-2.74883823 4.7319457 1.95894013 7.8175407 6.57586683 7.8175407 11.69726853-.005491 6.987368-5.6626499 12.6534705-12.6500004 12.67zm12.6500044 127.5199999c0 5.121402-3.085599 9.738329-7.8175447 11.697269-4.7319456 1.95894-10.178021.87397-13.7979678-2.748839-3.6199468-3.622808-4.7006129-9.069739-2.7379343-13.800135 1.9626787-4.730396 6.5820423-7.81234 11.7034424-7.808299 3.357641.002655 6.5767086 1.339016 8.9490444 3.715102 2.372335 2.376086 3.703609 5.597261 3.70096 8.954902zm-82.7100044 12.62c-5.1214017 0-9.7383285-3.085595-11.69726859-7.81754-1.95894008-4.731946-.87397011-10.178021 2.74883829-13.797968s9.0697395-4.700613 13.8001356-2.737934c4.7303962 1.962678 7.81234 6.582042 7.8082986 11.703442-.0055237 6.988019-5.6719824 12.65-12.6600039 12.65zm33.87-70.31c-5.1241266-.000025-9.7429324-3.088881-11.700093-7.8245117-1.9571606-4.7356305-.8666732-10.1840463 2.76236-13.8016133s9.0808726-4.6908073 13.8102858-2.7186703c4.7294132 1.9721369 7.8036371 6.6006944 7.7875108 11.7247954-.0055782 6.9896395-5.6704242 12.6544859-12.6600636 12.6599999zm70.0600004 0c-5.121401.004045-9.740764-3.077898-11.703443-7.8082945-1.962678-4.7303962-.882012-10.1773273 2.737934-13.8001357 3.619947-3.6228083 9.066023-4.7077783 13.797968-2.7488382 4.731946 1.9589401 7.817557 6.5758668 7.817557 11.6972685.011043 6.999077-5.65095 12.6834499-12.650016 12.6999999z"/></g></svg>