<svg height="90" viewBox="0 0 342 90" width="342" xmlns="http://www.w3.org/2000/svg"><g fill="#515050"><path d="m171.21 18.750188v52.5c-.005386.411962-.338038.7446141-.75.75h-5.46c-2.54654.0019837-4.919633-1.2900333-6.3-3.43l-24.78-38.3.85 19.13v21.85c-.005386.411962-.338038.7446141-.75.75h-7.22c-.411962-.0053859-.744614-.338038-.75-.75v-52.5c.005386-.4119621.338038-.7446142.75-.75h5.43c2.543204.0013525 4.913413 1.2880371 6.3 3.42l24.78 38.24-.77-19.06v-21.85c0-.4142136.335786-.75.75-.75h7.22c.392326.0310501.696048.3564673.7.75z"/><path d="m245 72.0003072h-7.64c-.242219-.0024107-.468419-.1215463-.607329-.3199889-.13891-.1984427-.173425-.4517574-.092671-.6801303l20.24-52.28c.177416-.4485486.617934-.7368878 1.1-.72h9.57c.463896.0039994.879102.2887118 1.05.72l20.18 52.28c.080754.2283729.046239.4816876-.092671.6801303-.13891.1984426-.36511.3175782-.607329.3199889h-7.64c-.312915.0013037-.594718-.1892108-.71-.4801192l-16.31-43c-.107656-.2966134-.389454-.4941192-.705-.4941192s-.597344.1975058-.705.4941192l-16.31 43c-.116593.2943502-.403449.4855872-.72.4801192z"/><path d="m341.84 70.790188-15.18-19.39c8.57-1.62 13.58-7.4 13.58-16.27 0-10.19-6.63-17.13-18.36-17.13h-21.17c-.618559 0-1.12.501441-1.12 1.12 0 3.9764502 3.22355 7.2 7.2 7.2h14.21c7.09 0 10.49 3.63 10.49 8.87s-3.32 9-10.49 9h-20.29c-.620173.0054884-1.12.5098027-1.12 1.13v26c0 .4142135.335786.75.75.75h7.22c.411962-.0053859.744614-.338038.75-.75v-19.45h8.33l13.17 17.19c1.429901 1.8647186 3.650185 2.9526577 6 2.94h5.48c.278712-.0154365.525791-.1843814.6413-.4385002.115508-.2541187.080332-.5513615-.0913-.7714998z"/><path d="m222.17 18.000188h-33.5c-.552285 0-1 .4477152-1 1 0 4.0482472 3.281753 7.3300686 7.33 7.3300686h27.17c.199733.0026492.392082-.0754954.533328-.2167411.141245-.1412458.21939-.3335944.216741-.5333275v-6.83c0-.4142136-.335855-.75-.750069-.75zm0 45.67h-25c-.411962-.0053859-.744614-.338038-.75-.75v-13.54c0-.4142136.335786-.75.75-.75h23.11c.414214 0 .75-.3357865.75-.75v-6.88c0-.4142136-.335786-.75-.75-.75h-31.49c-.620173.0054884-1.12.5098027-1.12 1.13v29.46c0 .2970424.118.5819188.32804.7919596.210041.2100407.494918.3280404.79196.3280404h33.38c.414214 0 .75-.3357865.75-.75v-6.83c-.016222-.4008354-.348878-.7157493-.75-.71z"/><path d="m72.24 4.57018796-18.82 27.93000004c-.6326556.8363019-.5119456 2.0192463.2765878 2.7105272s1.977101.6561367 2.7234122-.0805272l18.52-16c.2182596-.2001508.5348271-.2509055.8047183-.1290192.2698913.1218864.4411264.3929391.4352817.6890192v50.29c-.0030849.3126548-.199811.5905926-.4936562.6974454s-.6231501.020199-.8263438-.2174454l-56-67.00000004c-1.8096501-2.17729593-4.4888897-3.44371246-7.32-3.46018796h-1.95c-5.29641075 0-9.59 4.29377721-9.59 9.59018796v70.82000004c0 5.2964107 4.29358925 9.59 9.59 9.59 3.3323673 0 6.4256326-1.7306596 8.17-4.57l18.82-27.93c.6326556-.836302.5119456-2.0192463-.2765878-2.7105273-.7885334-.6912809-1.977101-.6561367-2.7234122.0805273l-18.52 16c-.2182596.2001507-.5348271.2509054-.8047183.1290191-.2698913-.1218864-.4411264-.3929391-.4352817-.6890191v-50.24c.0030849-.3126548.199811-.5905927.4936562-.6974455s.6231501-.020199.8263438.2174455l56 67c1.8233309 2.1575852 4.5051624 3.4015453 7.33 3.4h2c2.5434261 0 4.9826802-1.0103721 6.781154-2.808846 1.7984739-1.7984739 2.808846-4.2377279 2.808846-6.781154v-70.81000004c0-2.55385602-1.0185542-5.00224709-2.8300259-6.8024557-1.8114716-1.80020861-4.2661681-2.80352254-6.8199741-2.78773226-3.3323673 0-6.4256326 1.73084752-8.17 4.57018796z"/></g></svg>