<?xml version="1.0" encoding="UTF-8"?>
<svg width="144px" height="144px" viewBox="0 0 144 144" version="1.1" xmlns="http://www.w3.org/2000/svg" xmlns:xlink="http://www.w3.org/1999/xlink">
    <title>near_icon</title>
    <g id="Page-1" stroke="none" stroke-width="1" fill="none" fill-rule="evenodd">
        <g id="near_icon" fill="#FFFFFF" fill-rule="nonzero">
            <path d="M115.58,7.31000053 L85.48,52 C84.5934764,53.3309212 84.825571,55.1119815 86.0235679,56.171263 C87.2215648,57.2305445 89.017642,57.242815 90.23,56.2000005 L119.86,30.5 C120.214818,30.1825687 120.723738,30.1049142 121.157077,30.3020836 C121.590417,30.499253 121.866215,30.9339542 121.86,31.4100005 L121.86,111.870001 C121.859809,112.374608 121.543957,112.825187 121.069665,112.997454 C120.595372,113.16972 120.063981,113.026867 119.74,112.640001 L30.18,5.43000053 C27.2643305,1.98706257 22.981646,0 18.47,0 L15.34,0 C6.86795194,0 0,6.86795247 0,15.3400005 L0,128.660001 C0,137.132049 6.86795194,144 15.34,144 C20.6739335,144 25.6262004,141.233736 28.42,136.690001 L58.52,92 C59.4065236,90.6690798 59.174429,88.8880196 57.9764321,87.828738 C56.7784352,86.7694565 54.982358,86.7571861 53.77,87.8000005 L24.14,113.5 C23.7851821,113.817432 23.2762621,113.895087 22.8429228,113.697917 C22.4095835,113.500748 22.1337854,113.066047 22.14,112.590001 L22.14,32.1100005 C22.140191,31.6053928 22.4560431,31.1548141 22.9303354,30.9825475 C23.4046278,30.8102809 23.9360189,30.9531345 24.26,31.3400005 L113.81,138.570001 C116.72567,142.012938 121.008354,144 125.52,144 L128.65,144 C132.720153,144.002654 136.624512,142.387651 139.503483,139.510556 C142.382454,136.63346 144,132.730155 144,128.660001 L144,15.3400005 C144,6.86795247 137.132048,0 128.66,0 C123.326067,0 118.3738,2.76626505 115.58,7.31000053 L115.58,7.31000053 Z" id="Path"></path>
        </g>
    </g>
</svg>