<svg viewBox="0 0 288 288" xmlns="http://www.w3.org/2000/svg"><path d="m187.58 79.81-30.1 44.69a3.2 3.2 0 0 0 4.75 4.2l29.63-25.7a1.2 1.2 0 0 1 2 .91v80.46a1.2 1.2 0 0 1 -2.12.77l-89.56-107.21a15.35 15.35 0 0 0 -11.71-5.43h-3.13a15.34 15.34 0 0 0 -15.34 15.34v113.32a15.34 15.34 0 0 0 15.34 15.34 15.35 15.35 0 0 0 13.08-7.31l30.1-44.69a3.2 3.2 0 0 0 -4.75-4.2l-29.63 25.7a1.2 1.2 0 0 1 -2-.91v-80.48a1.2 1.2 0 0 1 2.12-.77l89.55 107.23a15.35 15.35 0 0 0 11.71 5.43h3.13a15.34 15.34 0 0 0 15.35-15.34v-113.32a15.34 15.34 0 0 0 -15.34-15.34 15.35 15.35 0 0 0 -13.08 7.31z"/></svg>