<svg fill="none" height="22" viewBox="0 0 18 22" width="18" xmlns="http://www.w3.org/2000/svg"><path d="m15.3334 11.8893-13.63065 9.0867c-.10039.0668-.21703.1051-.33748.1109s-.24021-.0213-.34652-.0782c-.106314-.0569-.195196-.1416-.257183-.245-.061987-.1035-.094757-.2218-.094819-.3424v-18.84262c.000062-.12059.032832-.23891.094819-.34235.061987-.10343.150869-.18812.257183-.245041.10631-.056918.22607-.083935.34652-.078173s.23709.044088.33748.110894l13.63065 9.08669v-8.44402c0-.35363.1405-.692763.3905-.942812.2501-.250048.5892-.390524.9428-.390524.3537 0 .6928.140476.9429.390524.25.250049.3905.589182.3905.942812v18.66662c0 .3537-.1405.6928-.3905.9429-.2501.25-.5892.3905-.9429.3905-.3536 0-.6927-.1405-.9428-.3905-.25-.2501-.3905-.5892-.3905-.9429z" fill="#fff"/></svg>