<svg width="170" height="170" viewBox="0 0 170 170" fill="none" xmlns="http://www.w3.org/2000/svg">
<path d="M153.425 30.1042C152.015 28.866 150.172 28.2377 148.299 28.3572C146.427 28.4767 144.678 29.3343 143.438 30.7417L130.192 45.9708L125.729 40.9417C124.48 39.5327 122.722 38.6777 120.842 38.5648C118.963 38.4519 117.115 39.0903 115.706 40.3396C114.297 41.5889 113.442 43.3467 113.329 45.2263C113.217 47.106 113.855 48.9535 115.104 50.3625L124.95 61.4125C125.62 62.1552 126.44 62.7475 127.356 63.1503C128.272 63.5532 129.262 63.7576 130.263 63.75C131.256 63.7387 132.237 63.5185 133.14 63.1036C134.043 62.6887 134.848 62.0883 135.504 61.3417L153.992 40.0917C155.239 38.691 155.879 36.853 155.773 34.9808C155.667 33.1086 154.822 31.3548 153.425 30.1042Z" fill="white"/>
<path d="M70.8333 77.9167C76.4371 77.9167 81.9151 76.255 86.5745 73.1417C91.2339 70.0283 94.8655 65.6033 97.0099 60.426C99.1544 55.2488 99.7155 49.5519 98.6223 44.0558C97.529 38.5597 94.8305 33.5111 90.868 29.5486C86.9055 25.5862 81.857 22.8877 76.3609 21.7944C70.8648 20.7012 65.1679 21.2623 59.9906 23.4068C54.8134 25.5512 50.3883 29.1828 47.275 33.8422C44.1617 38.5016 42.5 43.9795 42.5 49.5833C42.5 57.0978 45.4851 64.3045 50.7986 69.618C56.1122 74.9316 63.3189 77.9167 70.8333 77.9167Z" fill="white"/>
<path d="M113.333 148.75C115.212 148.75 117.014 148.004 118.342 146.675C119.67 145.347 120.417 143.545 120.417 141.667C120.417 128.516 115.193 115.905 105.894 106.606C96.5954 97.3073 83.9837 92.0833 70.8333 92.0833C57.683 92.0833 45.0713 97.3073 35.7726 106.606C26.4739 115.905 21.25 128.516 21.25 141.667C21.25 143.545 21.9963 145.347 23.3247 146.675C24.653 148.004 26.4547 148.75 28.3333 148.75" fill="white"/>
</svg>
