<svg width="514" height="154" viewBox="0 0 514 154" fill="none" xmlns="http://www.w3.org/2000/svg">
<path fill-rule="evenodd" clip-rule="evenodd" d="M13.8477 8.12906C13.8477 8.12906 12.514 -2.4186 3.83349 0.515541C-5.49479 3.67069 4.23742 24.5526 11.447 25.6196C18.2908 26.6332 33.1673 11.1318 27.741 5.31686C20.1275 -2.83014 13.8553 8.12144 13.8553 8.12144L13.8477 8.12906ZM108.499 15.5869C98.3476 11.1437 89.8805 33.367 92.4717 34.0148C92.9755 34.1407 93.9568 32.7186 95.1332 31.0139C96.4481 29.1084 98.0067 26.8497 99.4146 26.005C102.09 24.4045 112.774 17.454 108.499 15.5869ZM90.9874 120.756C94.9249 127.255 109.077 131.976 108.022 131.029L108.017 131.035C105.269 128.555 104.184 126.616 102.946 124.402C101.837 122.419 100.605 120.216 97.9452 117.209C92.3153 110.841 87.05 114.257 90.9874 120.756ZM413.689 152.072C413.125 153.391 424.405 155.677 432.323 151.173C440.234 146.661 439.837 140.755 438.633 139.657C437.999 139.075 436.209 140.624 433.934 142.591C431.89 144.359 429.455 146.466 427.118 147.667C422.742 149.919 418.574 150.806 416.073 151.338C414.679 151.635 413.803 151.821 413.697 152.072H413.689ZM63.7643 77.4701C64.1149 77.6759 64.3207 78.0646 64.2902 78.4685L64.2978 78.4456C64.2673 78.8572 64.0082 79.2077 63.6348 79.3601L60.6625 80.5643L60.0071 83.5289C59.9919 83.6813 59.9538 83.8261 59.8852 83.9633C59.6108 84.4892 58.9706 84.6949 58.4448 84.4206H58.4295C58.3076 84.3596 58.1933 84.2682 58.1018 84.1615L56.0441 81.7075L52.8509 82.0123C52.6375 82.0352 52.4393 81.9894 52.2564 81.898C52.0887 81.8065 51.9363 81.677 51.8372 81.5093C51.6162 81.1664 51.6238 80.7243 51.8372 80.3814L53.5368 77.6606L52.2564 74.7189C52.0887 74.3531 52.1573 73.9186 52.4164 73.6062C52.6832 73.3013 53.1023 73.1642 53.491 73.2632L56.6004 74.0406L59.0011 71.9143C59.3059 71.6399 59.7404 71.5713 60.1138 71.7238C60.4949 71.8838 60.7464 72.2344 60.7768 72.6383L61.0055 75.8392L63.7643 77.4701ZM507.09 119.826C507.441 120.032 507.646 120.42 507.616 120.824L507.623 120.801C507.593 121.213 507.334 121.563 506.96 121.716L503.988 122.92L503.333 125.885C503.318 126.037 503.279 126.182 503.211 126.319C502.936 126.845 502.296 127.051 501.77 126.776H501.755C501.633 126.715 501.519 126.624 501.427 126.517L499.37 124.063L496.177 124.368C495.963 124.391 495.765 124.345 495.582 124.254C495.414 124.162 495.262 124.033 495.163 123.865C494.942 123.522 494.95 123.08 495.163 122.737L496.862 120.016L495.582 117.075C495.414 116.709 495.483 116.274 495.742 115.962C496.009 115.657 496.428 115.52 496.817 115.619L499.926 116.396L502.327 114.27C502.632 113.996 503.066 113.927 503.44 114.079C503.821 114.24 504.072 114.59 504.103 114.994L504.331 118.195L507.09 119.826ZM513.09 31.8258C513.441 32.0316 513.646 32.4203 513.616 32.8242L513.623 32.8013C513.593 33.2129 513.334 33.5634 512.96 33.7159L509.988 34.92L509.333 37.8846C509.318 38.0371 509.279 38.1818 509.211 38.319C508.936 38.8449 508.296 39.0507 507.77 38.7763H507.755C507.633 38.7153 507.519 38.6239 507.427 38.5172L505.37 36.0632L502.177 36.368C501.963 36.3909 501.765 36.3452 501.582 36.2537C501.414 36.1623 501.262 36.0327 501.163 35.865C500.942 35.5221 500.95 35.08 501.163 34.7371L502.862 32.0163L501.582 29.0746C501.414 28.7088 501.483 28.2744 501.742 27.9619C502.009 27.657 502.428 27.5199 502.817 27.6189L505.926 28.3963L508.327 26.27C508.632 25.9956 509.066 25.9271 509.44 26.0795C509.821 26.2395 510.072 26.5901 510.103 26.994L510.331 30.1949L513.09 31.8258ZM428.09 70.8258C428.441 71.0316 428.646 71.4203 428.616 71.8242L428.624 71.8013C428.593 72.2129 428.334 72.5634 427.96 72.7159L424.988 73.92L424.333 76.8846C424.318 77.037 424.279 77.1818 424.211 77.319C423.936 77.8449 423.296 78.0507 422.77 77.7763H422.755C422.633 77.7153 422.519 77.6239 422.427 77.5172L420.37 75.0632L417.177 75.368C416.963 75.3909 416.765 75.3452 416.582 75.2537C416.414 75.1623 416.262 75.0327 416.163 74.865C415.942 74.5221 415.95 74.08 416.163 73.7371L417.862 71.0163L416.582 68.0746C416.414 67.7088 416.483 67.2744 416.742 66.9619C417.009 66.6571 417.428 66.5199 417.817 66.6189L420.926 67.3963L423.327 65.27C423.632 64.9956 424.066 64.9271 424.439 65.0795C424.821 65.2395 425.072 65.5901 425.103 65.994L425.331 69.1949L428.09 70.8258ZM176.783 13C167.281 13 159.578 20.7029 159.578 30.2048C159.578 36.5328 162.994 42.0629 168.083 45.0513C167.223 47.0997 166.747 49.3497 166.747 51.7108C166.747 54.8446 167.585 57.7826 169.049 60.3132H135.205C125.703 60.3132 118 68.0161 118 77.5181C118 87.02 125.703 94.7229 135.205 94.7229H201.291C200.465 96.3663 200 98.2222 200 100.187C200 106.917 205.456 112.373 212.187 112.373H249.57C247.981 114.432 247.036 117.012 247.036 119.813C247.036 126.544 252.492 132 259.223 132H356.717C363.447 132 368.904 126.544 368.904 119.813C368.904 113.083 363.447 107.626 356.717 107.626H319.334C320.922 105.568 321.867 102.988 321.867 100.187C321.867 95.516 319.24 91.4589 315.382 89.4132C318.34 86.3234 320.157 82.1329 320.157 77.5181C320.157 74.3843 319.319 71.4462 317.855 68.9156H351.699C361.201 68.9156 368.904 61.2128 368.904 51.7108C368.904 47.9653 367.707 44.4994 365.675 41.6746H396.861C403.592 41.6746 409.048 36.2184 409.048 29.4879C409.048 22.7573 403.592 17.3011 396.861 17.3011H355.91C352.877 14.6243 348.893 13 344.53 13H176.783Z" fill="#0F131B" fill-opacity="0.2"/>
</svg>
