<svg width="170" height="170" viewBox="0 0 170 170" fill="none" xmlns="http://www.w3.org/2000/svg">
<path d="M134.583 106.25V28.3333C134.579 27.2694 134.334 26.2202 133.868 25.2637C133.402 24.3072 132.727 23.468 131.892 22.8083C131.069 22.1426 130.107 21.6698 129.078 21.4247C128.048 21.1795 126.976 21.1682 125.942 21.3917L62.1918 35.5583C60.618 35.9132 59.2125 36.7947 58.2079 38.057C57.2032 39.3193 56.6595 40.8867 56.6668 42.5V101.575C51.8312 99.2922 46.3858 98.6388 41.1474 99.7129C35.9091 100.787 31.1603 103.531 27.6133 107.532C24.0664 111.534 21.9127 116.578 21.4752 121.907C21.0378 127.237 22.3401 132.564 25.187 137.091C28.0339 141.618 32.2717 145.099 37.2648 147.013C42.2579 148.927 47.7369 149.17 52.88 147.707C58.0232 146.243 62.553 143.151 65.79 138.895C69.027 134.638 70.7966 129.447 70.8334 124.1C70.9067 122.873 70.9067 121.643 70.8334 120.417V48.1667L120.417 37.1875V87.4083C115.578 85.1241 110.13 84.4712 104.889 85.5478C99.6478 86.6243 94.8976 89.3722 91.3515 93.3786C87.8053 97.3851 85.6548 102.434 85.2227 107.767C84.7906 113.1 86.1004 118.429 88.9554 122.954C91.8103 127.479 96.0562 130.956 101.056 132.862C106.055 134.768 111.538 135.001 116.681 133.525C121.823 132.05 126.349 128.945 129.577 124.679C132.805 120.412 134.562 115.213 134.583 109.862C134.651 108.659 134.651 107.453 134.583 106.25Z" fill="white"/>
</svg>
