<svg width="556" height="146" viewBox="0 0 556 146" fill="none" xmlns="http://www.w3.org/2000/svg">
<g clip-path="url(#clip0_448_1383)">
<path d="M95.8701 9.73351C93.872 7.91673 91.2349 6.9665 88.5372 7.09122C85.8395 7.21593 83.3013 8.4054 81.4793 10.3988L78.2985 13.7632C77.755 14.338 77.3941 15.0612 77.2616 15.8411C77.1291 16.6211 77.2308 17.4228 77.5539 18.1449C77.877 18.867 78.407 19.4771 79.0769 19.8981C79.7467 20.319 80.5264 20.5318 81.3172 20.5096C82.108 20.4875 82.8745 20.2313 83.5197 19.7735C84.1649 19.3157 84.6599 18.6768 84.942 17.9377C85.2242 17.1986 85.2808 16.3925 85.1048 15.6212C84.9288 14.8499 84.528 14.1481 83.9531 13.6046C83.4388 13.1224 82.8037 12.7883 82.1151 12.6375L82.9326 11.7728C84.3901 10.1647 86.4257 9.2001 88.5933 9.09026C90.7608 8.98042 92.8834 9.73434 94.4961 11.1868C96.0366 12.7155 96.9083 14.7926 96.9201 16.9629C96.9319 19.1331 96.0828 21.2196 94.559 22.7649L93.7415 23.6296C93.5523 22.9505 93.1831 22.3352 92.6729 21.8487C92.098 21.3052 91.3749 20.9444 90.5949 20.8118C89.815 20.6793 89.0133 20.781 88.2911 21.1041C87.569 21.4273 86.9589 21.9573 86.538 22.6271C86.1171 23.297 85.9043 24.0766 85.9264 24.8674C85.9486 25.6582 86.2048 26.4247 86.6626 27.0699C87.1204 27.7152 87.7592 28.2101 88.4983 28.4923C89.2374 28.7744 90.0436 28.8311 90.8149 28.655C91.5862 28.479 92.2879 28.0782 92.8315 27.5033L96.0123 24.1389C97.9005 22.2081 98.9458 19.6073 98.9192 16.9068C98.8925 14.2064 97.796 11.6267 95.8701 9.73351ZM82.5791 15.0579C82.8665 15.3297 83.0669 15.6805 83.1549 16.0662C83.2429 16.4518 83.2146 16.8549 83.0736 17.2245C82.9325 17.594 82.685 17.9134 82.3624 18.1423C82.0398 18.3712 81.6565 18.4993 81.2611 18.5104C80.8657 18.5215 80.4759 18.4151 80.141 18.2046C79.806 17.9942 79.541 17.6891 79.3795 17.3281C79.2179 16.967 79.1671 16.5661 79.2333 16.1762C79.2996 15.7862 79.48 15.4246 79.7518 15.1372C80.1162 14.7517 80.6188 14.5269 81.149 14.512C81.6792 14.4971 82.1936 14.6935 82.5791 15.0579ZM88.5508 26.2086C88.2634 25.9368 88.063 25.586 87.975 25.2003C87.887 24.8147 87.9153 24.4116 88.0564 24.042C88.1974 23.6725 88.4449 23.3531 88.7675 23.1242C89.0901 22.8953 89.4734 22.7672 89.8688 22.7561C90.2642 22.745 90.654 22.8514 90.9889 23.0619C91.3239 23.2723 91.5889 23.5774 91.7504 23.9384C91.912 24.2995 91.9629 24.7004 91.8966 25.0903C91.8303 25.4803 91.6499 25.8419 91.3782 26.1293C91.0137 26.5148 90.5111 26.7396 89.9809 26.7545C89.4507 26.7694 88.9363 26.573 88.5508 26.2086Z" fill="#2F3F4A"/>
</g>
<g clip-path="url(#clip1_448_1383)">
<path d="M82.1299 99.7335C84.128 97.9167 86.7651 96.9665 89.4628 97.0912C92.1605 97.2159 94.6987 98.4054 96.5207 100.399L99.7015 103.763C100.245 104.338 100.606 105.061 100.738 105.841C100.871 106.621 100.769 107.423 100.446 108.145C100.123 108.867 99.593 109.477 98.9231 109.898C98.2533 110.319 97.4736 110.532 96.6828 110.51C95.892 110.487 95.1255 110.231 94.4803 109.773C93.8351 109.316 93.3401 108.677 93.058 107.938C92.7758 107.199 92.7192 106.392 92.8952 105.621C93.0712 104.85 93.472 104.148 94.0469 103.605C94.5612 103.122 95.1963 102.788 95.8849 102.638L95.0674 101.773C93.6099 100.165 91.5743 99.2001 89.4067 99.0903C87.2392 98.9804 85.1166 99.7343 83.5039 101.187C81.9634 102.716 81.0917 104.793 81.0799 106.963C81.0681 109.133 81.9172 111.22 83.441 112.765L84.2585 113.63C84.4477 112.951 84.8169 112.335 85.3271 111.849C85.902 111.305 86.6251 110.944 87.4051 110.812C88.185 110.679 88.9867 110.781 89.7089 111.104C90.431 111.427 91.0411 111.957 91.462 112.627C91.8829 113.297 92.0957 114.077 92.0736 114.867C92.0514 115.658 91.7952 116.425 91.3374 117.07C90.8796 117.715 90.2408 118.21 89.5017 118.492C88.7626 118.774 87.9564 118.831 87.1851 118.655C86.4138 118.479 85.7121 118.078 85.1685 117.503L81.9877 114.139C80.0995 112.208 79.0542 109.607 79.0808 106.907C79.1075 104.206 80.204 101.627 82.1299 99.7335ZM95.4209 105.058C95.1335 105.33 94.9331 105.681 94.8451 106.066C94.7571 106.452 94.7854 106.855 94.9264 107.224C95.0675 107.594 95.315 107.913 95.6376 108.142C95.9602 108.371 96.3435 108.499 96.7389 108.51C97.1343 108.522 97.5241 108.415 97.859 108.205C98.194 107.994 98.459 107.689 98.6205 107.328C98.7821 106.967 98.8329 106.566 98.7667 106.176C98.7004 105.786 98.52 105.425 98.2482 105.137C97.8838 104.752 97.3812 104.527 96.851 104.512C96.3208 104.497 95.8064 104.693 95.4209 105.058ZM89.4492 116.209C89.7366 115.937 89.937 115.586 90.025 115.2C90.113 114.815 90.0847 114.412 89.9436 114.042C89.8026 113.672 89.5551 113.353 89.2325 113.124C88.9099 112.895 88.5266 112.767 88.1312 112.756C87.7358 112.745 87.346 112.851 87.0111 113.062C86.6761 113.272 86.4111 113.577 86.2496 113.938C86.088 114.3 86.0371 114.7 86.1034 115.09C86.1697 115.48 86.3501 115.842 86.6218 116.129C86.9863 116.515 87.4889 116.74 88.0191 116.755C88.5493 116.769 89.0637 116.573 89.4492 116.209Z" fill="#2F3F4A"/>
</g>
<g clip-path="url(#clip2_448_1383)">
<path d="M545.87 114.266C543.872 116.083 541.235 117.033 538.537 116.909C535.839 116.784 533.301 115.595 531.479 113.601L528.298 110.237C527.755 109.662 527.394 108.939 527.262 108.159C527.129 107.379 527.231 106.577 527.554 105.855C527.877 105.133 528.407 104.523 529.077 104.102C529.747 103.681 530.526 103.468 531.317 103.49C532.108 103.513 532.874 103.769 533.52 104.227C534.165 104.684 534.66 105.323 534.942 106.062C535.224 106.801 535.281 107.608 535.105 108.379C534.929 109.15 534.528 109.852 533.953 110.395C533.439 110.878 532.804 111.212 532.115 111.362L532.933 112.227C534.39 113.835 536.426 114.8 538.593 114.91C540.761 115.02 542.883 114.266 544.496 112.813C546.037 111.284 546.908 109.207 546.92 107.037C546.932 104.867 546.083 102.78 544.559 101.235L543.741 100.37C543.552 101.049 543.183 101.665 542.673 102.151C542.098 102.695 541.375 103.056 540.595 103.188C539.815 103.321 539.013 103.219 538.291 102.896C537.569 102.573 536.959 102.043 536.538 101.373C536.117 100.703 535.904 99.9234 535.926 99.1326C535.949 98.3418 536.205 97.5753 536.663 96.9301C537.12 96.2848 537.759 95.7899 538.498 95.5077C539.237 95.2256 540.044 95.1689 540.815 95.345C541.586 95.521 542.288 95.9218 542.831 96.4967L546.012 99.8611C547.9 101.792 548.946 104.393 548.919 107.093C548.892 109.794 547.796 112.373 545.87 114.266ZM532.579 108.942C532.867 108.67 533.067 108.319 533.155 107.934C533.243 107.548 533.215 107.145 533.074 106.776C532.932 106.406 532.685 106.087 532.362 105.858C532.04 105.629 531.657 105.501 531.261 105.49C530.866 105.478 530.476 105.585 530.141 105.795C529.806 106.006 529.541 106.311 529.379 106.672C529.218 107.033 529.167 107.434 529.233 107.824C529.3 108.214 529.48 108.575 529.752 108.863C530.116 109.248 530.619 109.473 531.149 109.488C531.679 109.503 532.194 109.307 532.579 108.942ZM538.551 97.7914C538.263 98.0632 538.063 98.414 537.975 98.7997C537.887 99.1853 537.915 99.5884 538.056 99.958C538.197 100.328 538.445 100.647 538.768 100.876C539.09 101.105 539.473 101.233 539.869 101.244C540.264 101.255 540.654 101.149 540.989 100.938C541.324 100.728 541.589 100.423 541.75 100.062C541.912 99.7005 541.963 99.2996 541.897 98.9097C541.83 98.5197 541.65 98.1581 541.378 97.8707C541.014 97.4852 540.511 97.2604 539.981 97.2455C539.451 97.2306 538.936 97.427 538.551 97.7914Z" fill="#2F3F4A"/>
</g>
<g clip-path="url(#clip3_448_1383)">
<path d="M503.311 28.2756C503.741 27.8665 504.039 27.3392 504.169 26.7603C504.299 26.1814 504.255 25.5769 504.041 25.0233C503.828 24.4697 503.455 23.9918 502.97 23.6501C502.485 23.3084 501.909 23.1182 501.316 23.1036C500.723 23.089 500.139 23.2506 499.638 23.568C499.136 23.8854 498.74 24.3443 498.5 24.8867C498.259 25.4292 498.185 26.0307 498.286 26.6153C498.388 27.1999 498.66 27.7414 499.069 28.1711C499.618 28.7474 500.373 29.0822 501.168 29.1018C501.964 29.1214 502.734 28.8242 503.311 28.2756ZM500.553 25.3784C500.696 25.242 500.877 25.1512 501.071 25.1174C501.266 25.0836 501.467 25.1084 501.648 25.1885C501.828 25.2687 501.981 25.4007 502.087 25.5678C502.193 25.7349 502.247 25.9296 502.242 26.1273C502.237 26.3251 502.174 26.5169 502.06 26.6786C501.946 26.8403 501.787 26.9646 501.602 27.0357C501.418 27.1069 501.216 27.1217 501.023 27.0784C500.83 27.035 500.654 26.9354 500.518 26.7922C500.335 26.6001 500.236 26.3432 500.243 26.0781C500.249 25.8129 500.361 25.5613 500.553 25.3784Z" fill="#2E3D49"/>
<path d="M504 29C503.499 29.4772 503.15 30.0925 502.999 30.7679C502.847 31.4433 502.899 32.1485 503.148 32.7944C503.397 33.4402 503.832 33.9978 504.398 34.3964C504.964 34.795 505.635 35.0169 506.327 35.034C507.019 35.051 507.701 34.8625 508.286 34.4922C508.871 34.1219 509.333 33.5865 509.613 32.9537C509.894 32.3208 509.98 31.619 509.862 30.937C509.744 30.2549 509.426 29.6233 508.949 29.1219C508.309 28.4495 507.428 28.059 506.5 28.0361C505.572 28.0132 504.673 28.3599 504 29ZM507.448 32.6215C507.233 32.826 506.962 32.9623 506.67 33.013C506.378 33.0637 506.077 33.0265 505.806 32.9063C505.534 32.786 505.305 32.5881 505.146 32.3374C504.988 32.0868 504.907 31.7947 504.914 31.4981C504.921 31.2015 505.016 30.9138 505.187 30.6712C505.358 30.4287 505.597 30.2422 505.874 30.1355C506.151 30.0288 506.453 30.0065 506.742 30.0715C507.032 30.1365 507.295 30.2859 507.5 30.5008C507.774 30.789 507.923 31.1743 507.913 31.572C507.903 31.9697 507.736 32.3472 507.448 32.6215Z" fill="#2E3D49"/>
<path d="M500.727 18.3095L493.484 25.2042C492.908 25.7528 492.573 26.5079 492.553 27.3033C492.534 28.0987 492.831 28.8693 493.379 29.4456L503.032 39.5859C503.581 40.1622 504.336 40.497 505.131 40.5166C505.927 40.5362 506.697 40.239 507.273 39.6904L514.517 32.7957C515.093 32.2471 515.428 31.4921 515.447 30.6967C515.467 29.9013 515.17 29.1306 514.621 28.5543L504.968 18.414C504.42 17.8377 503.665 17.5029 502.869 17.4833C502.074 17.4637 501.303 17.7609 500.727 18.3095ZM513.172 29.9333C513.355 30.1254 513.454 30.3823 513.448 30.6474C513.441 30.9125 513.33 31.1642 513.138 31.3471L505.895 38.2418C505.702 38.4247 505.446 38.5237 505.18 38.5172C504.915 38.5107 504.664 38.3991 504.481 38.207L494.828 28.0667C494.645 27.8746 494.546 27.6177 494.553 27.3525C494.559 27.0874 494.671 26.8357 494.863 26.6529L502.106 19.7581C502.298 19.5753 502.555 19.4762 502.82 19.4827C503.085 19.4893 503.337 19.6009 503.52 19.793L513.172 29.9333Z" fill="#2E3D49"/>
</g>
<g clip-path="url(#clip4_448_1383)">
<path d="M434.69 129.725C434.26 130.134 433.961 130.661 433.831 131.24C433.701 131.819 433.746 132.423 433.959 132.977C434.173 133.53 434.546 134.008 435.031 134.35C435.516 134.692 436.091 134.882 436.685 134.897C437.278 134.911 437.862 134.75 438.363 134.432C438.864 134.115 439.26 133.656 439.501 133.113C439.741 132.571 439.816 131.969 439.714 131.385C439.613 130.8 439.34 130.259 438.931 129.829C438.383 129.253 437.628 128.918 436.832 128.898C436.037 128.879 435.266 129.176 434.69 129.725ZM437.448 132.622C437.305 132.758 437.124 132.849 436.929 132.883C436.734 132.917 436.534 132.892 436.353 132.812C436.172 132.731 436.019 132.599 435.913 132.432C435.808 132.265 435.754 132.071 435.759 131.873C435.764 131.675 435.827 131.483 435.941 131.322C436.055 131.16 436.214 131.036 436.399 130.964C436.583 130.893 436.785 130.878 436.978 130.922C437.171 130.965 437.346 131.065 437.483 131.208C437.666 131.4 437.765 131.657 437.758 131.922C437.752 132.187 437.64 132.439 437.448 132.622Z" fill="#2E3D49"/>
<path d="M434 129C434.502 128.523 434.85 127.908 435.002 127.232C435.154 126.557 435.102 125.852 434.853 125.206C434.604 124.56 434.169 124.002 433.603 123.604C433.037 123.205 432.365 122.983 431.673 122.966C430.981 122.949 430.3 123.138 429.715 123.508C429.13 123.878 428.668 124.414 428.388 125.046C428.107 125.679 428.02 126.381 428.139 127.063C428.257 127.745 428.575 128.377 429.052 128.878C429.692 129.551 430.573 129.941 431.501 129.964C432.429 129.987 433.328 129.64 434 129ZM430.553 125.379C430.768 125.174 431.039 125.038 431.331 124.987C431.623 124.936 431.924 124.974 432.195 125.094C432.466 125.214 432.696 125.412 432.855 125.663C433.013 125.913 433.094 126.205 433.087 126.502C433.079 126.799 432.984 127.086 432.813 127.329C432.643 127.571 432.404 127.758 432.127 127.865C431.85 127.971 431.548 127.994 431.258 127.929C430.969 127.864 430.705 127.714 430.501 127.499C430.226 127.211 430.078 126.826 430.088 126.428C430.097 126.03 430.265 125.653 430.553 125.379Z" fill="#2E3D49"/>
<path d="M437.274 139.691L444.517 132.796C445.093 132.247 445.428 131.492 445.447 130.697C445.467 129.901 445.17 129.131 444.621 128.555L434.969 118.414C434.42 117.838 433.665 117.503 432.87 117.484C432.074 117.464 431.304 117.761 430.727 118.31L423.484 125.204C422.908 125.753 422.573 126.508 422.554 127.303C422.534 128.099 422.831 128.87 423.38 129.446L433.032 139.586C433.581 140.162 434.336 140.497 435.131 140.517C435.927 140.536 436.697 140.239 437.274 139.691ZM424.828 128.067C424.645 127.875 424.546 127.618 424.553 127.353C424.559 127.088 424.671 126.836 424.863 126.653L432.106 119.758C432.298 119.575 432.555 119.476 432.82 119.483C433.085 119.489 433.337 119.601 433.52 119.793L443.173 129.933C443.356 130.126 443.455 130.382 443.448 130.648C443.442 130.913 443.33 131.164 443.138 131.347L435.895 138.242C435.703 138.425 435.446 138.524 435.181 138.517C434.915 138.511 434.664 138.399 434.481 138.207L424.828 128.067Z" fill="#2E3D49"/>
</g>
<g clip-path="url(#clip5_448_1383)">
<path d="M18.6206 60.5607C18.1909 60.9698 17.8921 61.4971 17.762 62.0761C17.632 62.655 17.6765 63.2595 17.89 63.8131C18.1035 64.3667 18.4763 64.8445 18.9614 65.1862C19.4465 65.5279 20.022 65.7181 20.6152 65.7327C21.2083 65.7473 21.7925 65.5857 22.2938 65.2683C22.7951 64.9509 23.1911 64.492 23.4316 63.9496C23.6721 63.4072 23.7463 62.8056 23.6449 62.221C23.5436 61.6364 23.2711 61.095 22.862 60.6652C22.3134 60.0889 21.5584 59.7541 20.763 59.7345C19.9676 59.7149 19.1969 60.0121 18.6206 60.5607ZM21.3785 63.4579C21.2353 63.5943 21.0548 63.6851 20.8599 63.7189C20.6651 63.7527 20.4645 63.728 20.2837 63.6478C20.1029 63.5676 19.95 63.4357 19.8442 63.2686C19.7384 63.1014 19.6845 62.9067 19.6894 62.709C19.6942 62.5113 19.7576 62.3194 19.8715 62.1577C19.9854 61.9961 20.1447 61.8718 20.3293 61.8006C20.5138 61.7294 20.7153 61.7146 20.9083 61.7579C21.1012 61.8013 21.277 61.9009 21.4134 62.0442C21.5962 62.2363 21.6953 62.4931 21.6888 62.7583C21.6822 63.0234 21.5706 63.2751 21.3785 63.4579Z" fill="#2E3D49"/>
<path d="M17.931 59.8364C18.4324 59.3591 18.781 58.7439 18.9327 58.0685C19.0844 57.3931 19.0325 56.6878 18.7834 56.042C18.5343 55.3961 18.0993 54.8386 17.5334 54.4399C16.9675 54.0413 16.2961 53.8194 15.604 53.8024C14.912 53.7853 14.2305 53.9738 13.6456 54.3441C13.0607 54.7144 12.5988 55.2498 12.3182 55.8827C12.0376 56.5155 11.951 57.2173 12.0693 57.8994C12.1876 58.5814 12.5055 59.2131 12.9827 59.7145C13.6227 60.3868 14.5036 60.7774 15.4316 60.8002C16.3596 60.8231 17.2586 60.4764 17.931 59.8364ZM14.4836 56.2148C14.6985 56.0103 14.9692 55.8741 15.2615 55.8234C15.5538 55.7727 15.8546 55.8098 16.1258 55.93C16.397 56.0503 16.6265 56.2483 16.7852 56.4989C16.9439 56.7496 17.0247 57.0417 17.0174 57.3382C17.0101 57.6348 16.915 57.9226 16.7441 58.1651C16.5733 58.4077 16.3343 58.5941 16.0575 58.7008C15.7807 58.8076 15.4785 58.8298 15.189 58.7648C14.8996 58.6998 14.6359 58.5504 14.4314 58.3355C14.1571 58.0474 14.0085 57.6621 14.0183 57.2644C14.0281 56.8666 14.1955 56.4891 14.4836 56.2148Z" fill="#2E3D49"/>
<path d="M21.2043 70.5268L28.4474 63.6321C29.0237 63.0835 29.3585 62.3285 29.3781 61.5331C29.3977 60.7376 29.1005 59.967 28.5519 59.3907L18.8993 49.2504C18.3507 48.6741 17.5957 48.3393 16.8003 48.3197C16.0048 48.3001 15.2342 48.5973 14.6579 49.1459L7.41484 56.0406C6.83854 56.5892 6.50377 57.3443 6.48417 58.1397C6.46457 58.9351 6.76175 59.7057 7.31033 60.282L16.963 70.4223C17.5116 70.9986 18.2666 71.3334 19.062 71.353C19.8574 71.3726 20.628 71.0754 21.2043 70.5268ZM8.75895 58.903C8.57609 58.7109 8.47703 58.4541 8.48357 58.1889C8.4901 57.9238 8.60169 57.6721 8.79379 57.4893L16.0369 50.5945C16.229 50.4117 16.4859 50.3126 16.751 50.3191C17.0161 50.3257 17.2678 50.4372 17.4507 50.6293L27.1033 60.7697C27.2862 60.9618 27.3852 61.2187 27.3787 61.4838C27.3722 61.7489 27.2606 62.0006 27.0685 62.1835L19.8254 69.0782C19.6333 69.2611 19.3764 69.3601 19.1113 69.3536C18.8461 69.3471 18.5945 69.2355 18.4116 69.0434L8.75895 58.903Z" fill="#2E3D49"/>
</g>
<path d="M192.578 38.2048C192.578 28.7029 200.281 21 209.783 21H377.53C381.894 21 385.878 22.6243 388.91 25.3012H429.861C436.592 25.3012 442.048 30.7574 442.048 37.488C442.048 44.2185 436.592 49.6747 429.861 49.6747H398.675C400.707 52.4995 401.904 55.9654 401.904 59.7108C401.904 69.2128 394.201 76.9156 384.699 76.9156H350.855C352.319 79.4462 353.157 82.3843 353.157 85.5181C353.157 90.1329 351.34 94.3234 348.382 97.4132C352.24 99.4589 354.867 103.516 354.867 108.187C354.867 110.988 353.922 113.568 352.334 115.626H389.717C396.447 115.626 401.904 121.083 401.904 127.813C401.904 134.544 396.447 140 389.717 140H292.223C285.492 140 280.036 134.544 280.036 127.813C280.036 125.012 280.981 122.432 282.57 120.373H245.187C238.456 120.373 233 114.917 233 108.187C233 106.222 233.465 104.366 234.291 102.723H168.205C158.703 102.723 151 95.02 151 85.5181C151 76.0161 158.703 68.3132 168.205 68.3132H202.049C200.585 65.7826 199.747 62.8446 199.747 59.7108C199.747 57.3497 200.223 55.0996 201.083 53.0512C195.995 50.0628 192.578 44.5328 192.578 38.2048Z" fill="#0F131B" fill-opacity="0.2"/>
<defs>
<clipPath id="clip0_448_1383">
<rect width="24" height="24" fill="white" transform="translate(88.5244 0.0361023) rotate(43.3938)"/>
</clipPath>
<clipPath id="clip1_448_1383">
<rect width="24" height="24" fill="white" transform="matrix(-0.726649 0.687008 0.687008 0.726649 89.4756 90.0361)"/>
</clipPath>
<clipPath id="clip2_448_1383">
<rect width="24" height="24" fill="white" transform="matrix(0.726649 -0.687008 -0.687008 -0.726649 538.524 123.964)"/>
</clipPath>
<clipPath id="clip3_448_1383">
<rect width="24" height="24" fill="white" transform="translate(487.035 28.5819) rotate(-43.5886)"/>
</clipPath>
<clipPath id="clip4_448_1383">
<rect width="24" height="24" fill="white" transform="translate(450.966 129.418) rotate(136.411)"/>
</clipPath>
<clipPath id="clip5_448_1383">
<rect width="24" height="24" fill="white" transform="translate(34.8965 60.2544) rotate(136.411)"/>
</clipPath>
</defs>
</svg>
