<svg fill="none" height="16" viewBox="0 0 12 16" width="12" xmlns="http://www.w3.org/2000/svg"><path d="m3.06066 15.061c.2813-.2813.43934-.6628.43934-1.0606v-12.00003c0-.39783-.15804-.77936-.43934-1.060665-.2813-.281304-.66284-.439339-1.06066-.439339s-.77936.158034-1.060661.439339c-.281306.281305-.439339.662835-.439339 1.060665v12.00003c0 .3978.158034.7793.439339 1.0606.281301.2813.662831.4394 1.060661.4394s.77936-.1581 1.06066-.4394zm8.00004 0c.2813-.2813.4393-.6628.4393-1.0606v-12.00003c0-.39783-.158-.77936-.4393-1.060665-.2813-.281304-.6629-.439339-1.0607-.439339-.39782 0-.77935.158035-1.06066.439339-.2813.281305-.43934.662835-.43934 1.060665v12.00003c0 .3978.15804.7793.43934 1.0606s.66283.4394 1.06066.4394c.3978 0 .7794-.1581 1.0607-.4394z" fill="#fff" stroke="#fff"/></svg>