<?xml version="1.0" encoding="UTF-8"?>
<svg width="300px" height="127px" viewBox="0 0 300 127" version="1.1" xmlns="http://www.w3.org/2000/svg" xmlns:xlink="http://www.w3.org/1999/xlink">
    <title>Group</title>
    <g id="Page-1" stroke="none" stroke-width="1" fill="none" fill-rule="evenodd">
        <g id="Group" fill="#515050" fill-rule="nonzero">
            <path d="M41.3933677,24.6726431 L72.0326086,31.4774182 C72.6130005,31.5937016 73.1345017,31.7460948 73.6711126,31.8836984 C81.0146613,33.9234824 85.0304542,37.6297418 85.7490521,41.1957312 C85.7367684,41.2257956 85.7242438,41.2558136 85.7114782,41.2857843 C85.8718667,42.1153585 85.8331425,42.9296767 85.6097063,43.7015918 C85.4378423,44.3087768 85.1252205,44.8849459 84.7346599,45.4767627 C84.5470899,45.7257281 84.3909217,45.943957 84.1879311,46.1462589 C83.8910154,46.4578149 83.5315762,46.8003869 83.1721371,47.0962953 C83.0316699,47.20527 82.9223241,47.2985971 82.7815765,47.3919242 C82.5314832,47.5945055 82.2191468,47.7657915 81.9222311,47.9527251 C80.5158764,48.7778596 78.7814846,49.4319876 76.672233,49.8525184 C76.2034481,49.9458455 75.7189623,50.0391726 75.2033551,50.1014838 C74.6409254,50.1950903 74.0784957,50.2574015 73.4689632,50.3040651 C72.9533559,50.335081 72.484571,50.3817445 71.9378423,50.3973922 L72,50.394 L72.0000852,50.3954362 L71.989,50.395 L71.9378423,50.3973922 L71.937,50.394 L69.7969085,50.3487727 L69.7032637,50.3487727 L64.9374711,48.3400046 C64.4457007,48.1329771 64.0914441,47.7887656 63.9764798,47.4673662 C64.0657842,47.8024208 64.4420324,48.1711863 64.9702748,48.3886241 L64.9702748,48.3886241 L69.735787,50.3973922 L69.7806468,50.397951 L73.1243839,59.725352 L68.2492455,59.725352 L72.5148514,68.7884194 L68.687,68.788 L72.267001,77.5226066 L68.2828904,77.5226066 L73.1266269,87.1615636 L68.5795258,86.8656553 L73.4078417,95.913075 L69.481,95.903 L72.5616738,104.681072 L68.8741986,104.681072 L72.8271877,114.008753 L68.7813948,114.008753 C68.7745607,114.339659 68.7688854,114.671174 68.7625149,115.00237 L68.7522063,115.49881 C68.643037,120.293173 68.1928553,124.922994 61.7501825,126.559851 C61.1720519,126.684473 60.5782203,126.731137 59.9689682,126.668825 C59.7499964,126.653457 59.5470058,126.622162 59.3594358,126.606514 L59.362,126.606 C54.3381847,125.858017 51.4747329,122.09809 51.453157,114.411252 L51.4545789,114.01015 L65.031,114.01 L65.031,114.009 L47.3123375,114.009312 L50.8122427,105.226784 L47.3123375,104.961892 L50.514,95.84 L26.44,95.735 L28.9531854,104.804577 L26.0628127,104.804577 L29.1721573,114.2566 L28.687,114.255 L31.0313155,114.334559 C31.0103809,114.749781 31.0034027,115.158048 30.9964245,115.57327 L30.9842127,116.203057 C30.9842127,116.779226 30.9687922,117.339748 30.9216894,117.931565 C30.8905679,118.429775 30.8437455,118.865953 30.7812221,119.333148 C30.7498203,119.426475 30.7498203,119.535449 30.7343997,119.629056 C30.7029979,119.706735 30.7029979,119.800342 30.6872969,119.893669 C30.6561788,120.080603 30.609353,120.236241 30.5936521,120.391879 C30.5936521,120.423175 30.5779512,120.469838 30.5779512,120.485486 C30.5468297,120.625476 30.5311288,120.750099 30.4843064,120.890369 C30.4843064,120.905737 30.4686054,120.95268 30.4686054,120.999344 C30.421783,121.232941 30.3435588,121.435243 30.2813158,121.637824 C30.2813158,121.699856 30.2499139,121.746799 30.234213,121.793462 C30.1873906,121.886789 30.1716897,121.995764 30.1248672,122.089371 C30.0937458,122.151682 30.0469233,122.229361 30.0312224,122.291673 C29.9529981,122.400647 29.9061757,122.540917 29.8436524,122.649892 C29.7186057,122.883489 29.593559,123.132734 29.4530918,123.350684 C29.3905685,123.475306 29.3280451,123.584281 29.2344003,123.693256 C29.1718769,123.786583 29.0936527,123.848894 29.0311293,123.9425 C28.8281388,124.175818 28.6248678,124.394047 28.4218772,124.596349 C28.3541202,124.663876 28.2829147,124.727926 28.2099863,124.790227 L27.7655504,125.15687 C27.6561788,125.219182 27.5624196,125.312788 27.4530458,125.375099 C27.2655599,125.499442 27.0936628,125.608697 26.9061769,125.717671 C26.7968031,125.779983 26.6718125,125.857662 26.5467938,125.919973 C26.4218032,125.982284 26.2968126,126.060243 26.1561788,126.122554 C25.9218127,126.200234 25.718682,126.29384 25.4999344,126.387168 C25.1874298,126.51179 24.7968132,126.620765 24.4374301,126.729739 C24.1874209,126.792051 23.906178,126.87001 23.6405519,126.932041 C23.359309,126.994353 23.0155428,127.01 22.7186831,126.994353 C22.3593001,126.978984 21.999917,126.932321 21.6561788,126.885378 L21.683,126.889 L21.5933751,126.91835 C18.1814413,126.38923 15.7847196,124.525284 14.5751991,120.998978 L14.468518,120.673817 C14.4060227,120.409203 14.3122657,120.113295 14.2497704,119.817387 C14.1403966,119.36584 14.0466396,118.914293 13.9841443,118.416083 C13.7810135,117.15477 13.7029014,115.753187 13.7185182,114.195966 L13.7185182,114.242629 L23.072,114.242 L13.718,114.22 L9.03151064,114.209937 L12.6096401,105.349451 L9.03151064,105.084838 L12.418,95.674 L9.88973462,95.6638301 L13.9834714,86.8813029 L9.37412734,86.6164104 C10.2022392,85.0591891 12.5616402,80.9639735 12.9522568,80.3098456 L12.9522568,80.3098456 L18.9836565,86.320502 L25.0147757,80.2785503 L30.8743062,86.0869049 L36.9368273,80.3721568 L42.8586008,86.2738385 L48.8900004,80.2165185 L54.9525215,86.2581908 L60.9836408,80.2165185 L66.079,85.295 L66.026,85.179 L61.0013043,80.1701343 L54.9699047,86.2120861 L48.9073836,80.1701343 L42.8448625,86.2120861 L36.923089,80.3104044 L30.8605679,86.0254319 L25.0013178,80.2170773 L18.9701985,86.2590291 L12.9387989,80.2480932 C13.3606772,79.5006381 13.8450509,78.8311419 14.2669292,78.177014 L14.2669292,78.177014 L14.297072,78.2068024 C14.6164341,77.7255265 14.9626904,77.2605612 15.2650597,76.8536692 L15.2650597,76.8536692 L11.8899208,76.8536692 L16.0168214,68.4627253 C9.99583899,70.133352 7.09471165,75.5759772 7.39056733,79.6420259 L7.39056733,79.6420259 L7.3298229,79.642917 C7.07392406,79.6466031 6.05779268,79.6605576 5.21013125,79.6625323 L4.83424697,79.6625121 C4.41756207,79.661307 4.09114945,79.6556361 4,79.6420259 C3.64084911,75.4532039 4.75000757,69.6448492 11.6407527,66.3281047 C8.45318376,64.6306133 5.43751199,64.5372862 2.8437466,67.6050653 C2.71872796,67.7763513 2.5624925,67.9630055 2.42186825,68.1655868 L2.42186825,68.1655868 L0,65.9542374 C0.859457623,64.9888328 1.73444795,64.0390759 2.84383071,63.3226367 C4.98448412,61.952349 7.99990355,61.4071958 13.3281259,63.213662 C12.3593786,60.5974295 11.0937435,59.0248399 9.57812726,58.0748036 C7.81233353,56.9537607 5.71861468,56.7511794 3.54672765,56.8134906 L3.54672765,56.8134906 L3.64048462,53.3411077 C9.76552906,53.3877713 12.859341,55.2719169 14.6249665,58.0437877 C15.9218632,60.0835716 16.484349,62.6374929 16.937489,65.2690936 L16.9376011,65.2690936 L16.982,66.531 L33.6085108,68.7562858 L33.6556977,68.7719335 L33.671,68.771 L33.6710341,68.7571241 L33.6239314,68.7571241 L37.3585094,59.725352 L33.4052398,59.725352 L37.3428085,50.397951 L32.8918756,50.3973922 L37.9700045,39.9486688 L33.7355201,39.8553417 L41.3916855,24.6726431 L41.3916855,24.6726431 L41.3933677,24.6726431 Z M27.327,114.252 L27.2651611,114.252625 C27.1812867,119.066149 27.2953283,124.002657 23.190715,126.251275 L23.2535166,126.218754 C26.8870437,124.230387 27.2148169,120.142519 27.3002707,115.881746 L27.3102944,115.32517 C27.3163964,114.953678 27.3216733,114.581511 27.3281393,114.209937 L27.327,114.252 Z M26.4533733,95.7571572 L31.578605,95.7728049 L35.2345663,105.022526 L31.1876519,104.991511 L35.7033511,114.318912 L29.2188676,114.25688 L26.0941024,104.835593 L28.9847555,104.835593 L26.4533733,95.7571572 Z M64.351,95.9 L64.327,95.9 L66.702704,104.681631 L66.7335451,104.681072 L64.351,95.9 Z M41.3611247,24.6566601 C49.3453273,7.55880002 52.5485972,-1.19271133 58.0486886,0.130912851 C60.7674726,0.816056714 61.6422386,3.50996862 61.4235471,8.4618934 L61.4235471,8.4618934 L61.4224256,8.47759694 C67.2505543,4.13296893 70.8600857,2.56021169 73.5317669,4.78698513 C75.8766154,6.76145549 75.1555498,9.95807385 72.131096,15.066294 L71.8042579,15.6110916 C69.6249404,19.1985555 66.3798308,23.6922495 62.313173,29.3130118 L62.313173,29.3130118 L58.5942959,28.4875979 C59.9692959,20.4510355 61.0293087,14.2334104 61.3527833,9.67868354 L61.3219638,10.0816314 C60.9627962,14.5962029 59.9147938,20.6788641 58.5954173,28.4718944 L58.5954173,28.4718944 Z" id="Combined-Shape"></path>
            <path d="M147.813141,48.0482876 C150.485103,50.3842593 151.844635,53.6076768 151.844635,57.7652035 C151.844635,61.907362 150.516504,65.1307795 147.813141,67.4821194 C145.14146,69.8180912 141.438284,71.0014453 136.719594,71.0014453 L128.063335,71.0014453 L128.063335,85.499 L119.4696,85.499 L119.4696,44.5608159 L136.719594,44.5608159 C141.438284,44.5608159 145.125759,45.7288018 147.813141,48.0488464 L147.813141,48.0482876 Z M143.110152,57.7652035 C143.110152,53.4674067 140.532116,51.318648 135.407164,51.318648 L128.063335,51.318648 L128.063335,64.2276861 L135.407164,64.2276861 C140.532116,64.2276861 143.110152,62.0632797 143.110152,57.7652035 L143.110152,57.7652035 Z" id="Shape"></path>
            <path d="M155.921549,45.4943663 C155.921549,42.4268666 157.687063,40.9006611 161.21837,40.9006611 C164.749677,40.9006611 166.51519,42.4268666 166.51519,45.4943663 C166.51519,48.5154819 164.749677,50.0260397 161.21837,50.0260397 C157.687063,50.0260397 155.921549,48.4998343 155.921549,45.4943663 Z M165.437153,85.4992794 L156.921362,85.4992794 L156.921362,54.4805925 L165.437153,54.4805925 L165.437153,85.4992794 L165.437153,85.4992794 Z" id="Shape"></path>
            <path d="M199.281346,56.7662682 C201.344056,58.6973568 202.359569,61.5002435 202.359569,65.1441917 L202.359569,85.4967646 L193.844058,85.4967646 L193.844058,67.5578429 C193.844058,62.9018265 191.968919,60.5504865 188.234621,60.5504865 C186.250136,60.5504865 184.578267,61.2509986 183.187614,62.6215658 C181.812661,64.0228694 181.125185,66.1562599 181.125185,69.0371054 L181.125185,85.4967646 L172.609674,85.4967646 L172.609674,54.4780777 L180.265839,54.4780777 L180.578456,60.2397688 C181.578269,58.122026 182.968922,56.549157 184.81266,55.45913 C186.640977,54.3847506 188.750229,53.8395974 191.172097,53.8395974 C194.500133,53.8708927 197.218917,54.8362973 199.281346,56.7671065 L199.281346,56.7662682 Z" id="Path"></path>
            <path d="M239.686004,79.969509 L239.186098,85.2483581 C238.10778,85.7932319 236.763949,86.0581244 235.139183,86.0581244 C233.310866,86.0111814 231.748343,85.6375936 230.435914,84.8901385 C229.123484,84.1426834 228.248438,83.0683041 227.795354,81.666721 C226.842083,83.0683041 225.45171,84.1736993 223.639094,84.9524497 C221.811057,85.7465683 219.904796,86.1204356 217.920311,86.1204356 C214.68592,86.1204356 212.154706,85.4039964 210.34209,83.9557498 C208.529754,82.5075032 207.623586,80.4364239 207.623586,77.7581597 C207.623586,75.4847786 208.373586,73.6160012 209.842183,72.1521069 C211.311061,70.6884921 213.451434,69.6451287 216.279564,69.0846072 L226.998532,66.9202009 L226.998532,65.752215 C226.998532,64.0237077 226.498345,62.6377723 225.482832,61.6257042 C224.467318,60.6133566 223.139188,60.1151464 221.451618,60.1151464 C218.045358,60.1151464 215.842181,61.7969901 214.857789,65.2070618 L207.576483,62.9803442 C208.326483,60.1618099 209.904707,57.9504606 212.295453,56.3312075 C214.68592,54.7116749 217.873489,53.9175563 221.811057,53.9175563 C225.998439,53.9175563 229.311054,54.9139768 231.779745,56.8760812 C234.217314,58.8381857 235.436099,61.6723677 235.436099,65.4096431 L235.436099,77.913798 C235.436099,79.486667 236.185818,80.2807856 237.670397,80.2807856 C238.404696,80.2964333 239.076471,80.1718109 239.686004,79.969509 L239.686004,79.969509 Z M225.045449,78.6769007 C226.357878,77.7271438 227.013953,76.2009383 227.013953,74.0831955 L227.013953,72.1677546 L220.482927,73.4757311 C218.951526,73.7716395 217.842087,74.1455068 217.186012,74.643717 C216.529657,75.1422067 216.185919,75.90503 216.185919,76.9483934 C216.185919,77.9450933 216.57648,78.7079166 217.311059,79.2687175 C218.061059,79.8292389 218.982927,80.1094997 220.107787,80.1094997 C222.076571,80.1094997 223.732739,79.6112894 225.045449,78.6769007 Z" id="Shape"></path>
            <path d="M264.642069,83.5824414 C263.595154,84.37656 262.360677,84.983745 260.860677,85.4509394 C259.392071,85.902486 257.829548,86.120715 256.15768,86.120715 C249.110767,86.120715 245.57946,82.9906246 245.57946,76.746371 L245.57946,60.8005696 L239.860677,60.8005696 L239.860677,54.4627095 L245.57946,54.4627095 L245.57946,47.3153625 L254.095251,44.9483748 L254.095251,54.4316936 L264.063939,54.4316936 L264.063939,60.784922 L254.095251,60.784922 L254.095251,75.3760833 C254.095251,78.2412811 255.517026,79.6582324 258.391978,79.6582324 C260.267118,79.6582324 261.876463,79.0664156 263.251416,77.9297251 L264.642069,83.5824414 L264.642069,83.5824414 Z" id="Path"></path>
            <path d="M300,79.969509 L299.500935,85.2483581 C298.421496,85.7932319 297.078506,86.0581244 295.452338,86.0581244 C293.624301,86.0111814 292.06262,85.6375936 290.750471,84.8901385 C289.438322,84.1426834 288.563556,83.0683041 288.10935,81.666721 C287.15608,83.0683041 285.765426,84.1736993 283.954212,84.9524497 C282.126175,85.7465683 280.218512,86.1204356 278.234307,86.1204356 C274.999916,86.1204356 272.468702,85.4039964 270.656086,83.9557498 C268.84375,82.5075032 267.937302,80.4364239 267.937302,77.7581597 C267.937302,75.4847786 268.687301,73.6160012 270.156179,72.1521069 C271.624777,70.6884921 273.76543,69.6451287 276.59356,69.0846072 L287.313089,66.9202009 L287.313089,65.752215 C287.313089,64.0237077 286.81122,62.6377723 285.796267,61.6257042 C284.781314,60.6133566 283.452343,60.1151464 281.764493,60.1151464 C278.359354,60.1151464 276.156177,61.7969901 275.171785,65.2070618 L267.890479,62.9803442 C268.640479,60.1618099 270.218703,57.9504606 272.609169,56.3312075 C274.999916,54.7116749 278.187485,53.9175563 282.126175,53.9175563 C286.312155,53.9175563 289.626172,54.9139768 292.093461,56.8760812 C294.529909,58.8381857 295.749534,61.6723677 295.749534,65.4096431 L295.749534,77.913798 C295.749534,79.486667 296.500936,80.2807856 297.984113,80.2807856 C298.718692,80.2964333 299.391589,80.1718109 300,79.969509 L300,79.969509 Z M285.358884,78.6769007 C286.671033,77.7271438 287.327108,76.2009383 287.327108,74.0831955 L287.327108,72.1677546 L280.797203,73.4757311 C279.265522,73.7716395 278.156083,74.1455068 277.500008,74.643717 C276.843654,75.1422067 276.499915,75.90503 276.499915,76.9483934 C276.499915,77.9450933 276.890476,78.7079166 277.624775,79.2687175 C278.374774,79.8292389 279.296643,80.1094997 280.421503,80.1094997 C282.389726,80.1094997 284.046735,79.6112894 285.358884,78.6769007 Z" id="Shape"></path>
        </g>
    </g>
</svg>