<svg height="127" viewBox="0 0 300 127" width="300" xmlns="http://www.w3.org/2000/svg"><g fill="#515050"><path d="m41.3933677 24.6726431 30.6392409 6.8047751c.5803919.1162834 1.1018931.2686766 1.638504.4062802 7.3435487 2.039784 11.3593416 5.7460434 12.0779395 9.3120328-.0122837.0300644-.0248083.0600824-.0375739.0900531.1603885.8295742.1216643 1.6438924-.1017719 2.4158075-.171864.607185-.4844858 1.1833541-.8750464 1.7751709-.18757.2489654-.3437382.4671943-.5467288.6694962-.2969157.311556-.6563549.654128-1.015794.9500364-.1404672.1089747-.249813.2023018-.3905606.2956289-.2500933.2025813-.5624297.3738673-.8593454.5608009-1.4063547.8251345-3.1407465 1.4792625-5.2499981 1.8997933-.4687849.0933271-.9532707.1866542-1.4688779.2489654-.5624297.0936065-1.1248594.1559177-1.7343919.2025813-.5156073.0310159-.9843922.0776794-1.5311209.0933271l.0621577-.0033922.0000852.0014362-.0110852-.0004362-.0511577.0023922-.0008423-.0033922-2.1400915-.0452273h-.0936448l-4.7657926-2.0087681c-.4917704-.2070275-.846027-.551239-.9609913-.8726384.0893044.3350546.4655526.7038201.993795.9212579l4.7655122 2.0087681.0448598.0005588 3.3437371 9.327401h-4.8751384l4.2656059 9.0630674-3.8278514-.0004194 3.580001 8.7346066h-3.9841106l4.8437365 9.638957-4.5471011-.2959083 4.8283159 9.0474197-3.9268417-.010075 3.0806738 8.778072h-3.6874752l3.9529891 9.327681h-4.0457929c-.0068341.330906-.0125094.662421-.0188799.993617l-.0103086.49644c-.1091693 4.794363-.559351 9.424184-7.0020238 11.061041-.5781306.124622-1.1719622.171286-1.7812143.108974-.2189718-.015368-.4219624-.046663-.6095324-.062311l.0025642-.000514c-5.0238153-.747983-7.8872671-4.50791-7.908843-12.194748l.0014219-.401102 13.5764211-.00015v-.001l-17.7186625.000312 3.4999052-8.782528-3.4999052-.264892 3.2016625-9.121892-24.074-.105 2.5131854 9.069577h-2.8903727l3.1093446 9.452023-.4851573-.0016 2.3443155.079559c-.0209346.415222-.0279128.823489-.034891 1.238711l-.0122118.629787c0 .576169-.0154205 1.136691-.0625233 1.728508-.0311215.49821-.0779439.934388-.1404673 1.401583-.0314018.093327-.0314018.202301-.0468224.295908-.0314018.077679-.0314018.171286-.0471028.264613-.0311181.186934-.0779439.342572-.0936448.49821 0 .031296-.0157009.077959-.0157009.093607-.0311215.13999-.0468224.264613-.0936448.404883 0 .015368-.015701.062311-.015701.108975-.0468224.233597-.1250466.435899-.1872896.63848 0 .062032-.0314019.108975-.0471028.155638-.0468224.093327-.0625233.202302-.1093458.295909-.0311214.062311-.0779439.13999-.0936448.202302-.0782243.108974-.1250467.249244-.18757.358219-.1250467.233597-.2500934.482842-.3905606.700792-.0625233.124622-.1250467.233597-.2186915.342572-.0625234.093327-.1407476.155638-.203271.249244-.2029905.233318-.4062615.451547-.6092521.653849-.067757.067527-.1389625.131577-.2118909.193878l-.4444359.366643c-.1093716.062312-.2031308.155918-.3125046.218229-.1874859.124343-.359383.233598-.5468689.342572-.1093738.062312-.2343644.139991-.3593831.202302-.1249906.062311-.2499812.14027-.390615.202581-.2343661.07768-.4374968.171286-.6562444.264614-.3125046.124622-.7031212.233597-1.0625043.342571-.2500092.062312-.5312521.140271-.7968782.202302-.2812429.062312-.6250091.077959-.9218688.062312-.359383-.015369-.7187661-.062032-1.0625043-.108975l.0268212.003622-.0896249.02935c-3.4119338-.52912-5.8086555-2.393066-7.018176-5.919372l-.1066811-.325161c-.0624953-.264614-.1562523-.560522-.2187476-.85643-.1093738-.451547-.2031308-.903094-.2656261-1.401304-.2031308-1.261313-.2812429-2.662896-.2656261-4.220117v.046663l9.3534818-.000629-9.354-.022-4.68648936-.010063 3.57812946-8.860486-3.57812946-.264613 3.38648936-9.410838-2.52826538-.0101699 4.09373678-8.7825272-4.60934406-.2648925c.82811186-1.5572213 3.18751286-5.6524369 3.57812946-6.3065648l6.0313997 6.0106564 6.0311192-6.0419517 5.8595305 5.8083546 6.0625211-5.7147481 5.9217735 5.9016817 6.0313996-6.05732 6.0625211 6.0416723 6.0311193-6.0416723 5.0953592 5.0784815-.053-.116-5.0246957-5.0088657-6.0313996 6.0419518-6.0625211-6.0419518-6.0625211 6.0419518-5.9217735-5.9016817-6.0625211 5.7150275-5.8592501-5.8083546-6.0311193 6.0419518-6.0313996-6.0109359c.4218783-.7474551.906252-1.4169513 1.3281303-2.0710792l.0301428.0297884c.3193621-.4812759.6656184-.9462412.9679877-1.3531332h-3.3751389l4.1269006-8.3909439c-6.02098241 1.6706267-8.92210975 7.1132519-8.62625407 11.1793006l-.06074443.0008911c-.25589884.0036861-1.27203022.0176406-2.11969165.0196153l-.37588428-.0000202c-.4166849-.0012051-.74309752-.006876-.83424697-.0204862-.35915089-4.188822.75000757-9.9971767 7.6407527-13.3139212-3.18756894-1.6974914-6.20324071-1.7908185-8.7970061 1.2769606-.12501864.171286-.2812541.3579402-.42187835.5605215l-2.42186825-2.2113494c.85945762-.9654046 1.73444795-1.9151615 2.84383071-2.6316007 2.14065341-1.3702877 5.15607284-1.9154409 10.48429519-.1089747-.9687473-2.6162325-2.2343824-4.1888221-3.74999864-5.1388584-1.76579373-1.1210429-3.85951258-1.3236242-6.03139961-1.261313l.09375697-3.4723829c6.12504444.0466636 9.21885638 1.9308092 10.98448188 4.70268 1.2968967 2.0397839 1.8593825 4.5937052 2.3125225 7.2253059h.0001121l.0443989 1.2619064 16.6265108 2.2252858.0471869.0156477.0153023-.0009335.0000341-.0138759h-.0471027l3.734578-9.0317721h-3.9532696l3.9375687-9.327401-4.4509329-.0005588 5.0781289-10.4487234-4.2344844-.0933271 7.6561654-15.1826986zm-14.0663677 89.5793569-.0618389.000625c-.0838744 4.813524.0301672 9.750032-4.0744461 11.99865l.0628016-.032521c3.6335271-1.988367 3.9613003-6.076235 4.0467541-10.337008l.0100237-.556576c.006102-.371492.0113789-.743659.0178449-1.115233zm-.8736267-18.4948428 5.1252317.0156477 3.6559613 9.2497211-4.0469144-.031015 4.5156992 9.327401-6.4844835-.062032-3.1247652-9.421287h2.8906531zm37.8976267.1428428h-.024l2.375704 8.781631.0308411-.000559zm-22.9898753-71.2433399c7.9842026-17.09786008 11.1874725-25.84937143 16.6875639-24.52574725 2.718784.68514386 3.59355 3.37905577 3.3748585 8.33098055l-.0011215.01570354c5.8281287-4.34462801 9.4376601-5.91738525 12.1093413-3.69061181 2.3448485 1.97447036 1.6237829 5.17108872-1.4006709 10.27930887l-.3268381.5447976c-2.1793175 3.5874639-5.4244271 8.0811579-9.4910849 13.7019202l-3.7188771-.8254139c1.375-8.0365624 2.4350128-14.2541875 2.7584874-18.80891436l-.0308195.40294786c-.3591676 4.5145715-1.40717 10.5972327-2.7265465 18.390263z"/><path d="m147.813141 48.0482876c2.671962 2.3359717 4.031494 5.5593892 4.031494 9.7169159 0 4.1421585-1.328131 7.365576-4.031494 9.7169159-2.671681 2.3359718-6.374857 3.5193259-11.093547 3.5193259h-8.656259v14.4975547h-8.593735v-40.9381841h17.249994c4.71869 0 8.406165 1.1679859 11.093547 3.4880305zm-4.702989 9.7169159c0-4.2977968-2.578036-6.4465555-7.702988-6.4465555h-7.343829v12.9090381h7.343829c5.124952 0 7.702988-2.1644064 7.702988-6.4624826z"/><path d="m155.921549 45.4943663c0-3.0674997 1.765514-4.5937052 5.296821-4.5937052s5.29682 1.5262055 5.29682 4.5937052c0 3.0211156-1.765513 4.5316734-5.29682 4.5316734s-5.296821-1.5262054-5.296821-4.5316734zm9.515604 40.0049131h-8.515791v-31.0186869h8.515791z"/><path d="m199.281346 56.7662682c2.06271 1.9310886 3.078223 4.7339753 3.078223 8.3779235v20.3525729h-8.515511v-17.9389217c0-4.6560164-1.875139-7.0073564-5.609437-7.0073564-1.984485 0-3.656354.7005121-5.047007 2.0710793-1.374953 1.4013036-2.062429 3.5346941-2.062429 6.4155396v16.4596592h-8.515511v-31.0186869h7.656165l.312617 5.7616911c.999813-2.1177428 2.390466-3.6906118 4.234204-4.7806388 1.828317-1.0743794 3.937569-1.6195326 6.359437-1.6195326 3.328036.0312953 6.04682.9966999 8.109249 2.9275091z"/><path d="m239.686004 79.969509-.499906 5.2788491c-1.078318.5448738-2.422149.8097663-4.046915.8097663-1.828317-.046943-3.39084-.4205308-4.703269-1.1679859-1.31243-.7474551-2.187476-1.8218344-2.64056-3.2234175-.953271 1.4015831-2.343644 2.5069783-4.15626 3.2857287-1.828037.7941186-3.734298 1.1679859-5.718783 1.1679859-3.234391 0-5.765605-.7164392-7.578221-2.1646858-1.812336-1.4482466-2.718504-3.5193259-2.718504-6.1975901 0-2.2733811.75-4.1421585 2.218597-5.6060528 1.468878-1.4636148 3.609251-2.5069782 6.437381-3.0674997l10.718968-2.1644063v-1.1679859c0-1.7285073-.500187-3.1144427-1.5157-4.1265108-1.015514-1.0123476-2.343644-1.5105578-4.031214-1.5105578-3.40626 0-5.609437 1.6818437-6.593829 5.0919154l-7.281306-2.2267176c.75-2.8185343 2.328224-5.0298836 4.71897-6.6491367 2.390467-1.6195326 5.578036-2.4136512 9.515604-2.4136512 4.187382 0 7.499997.9964205 9.968688 2.9585249 2.437569 1.9621045 3.656354 4.7962865 3.656354 8.5335619v12.5041549c0 1.572869.749719 2.3669876 2.234298 2.3669876.734299.0156477 1.406074-.1089747 2.015607-.3112766zm-14.640555-1.2926083c1.312429-.9497569 1.968504-2.4759624 1.968504-4.5937052v-1.9154409l-6.531026 1.3079765c-1.531401.2959084-2.64084.6697757-3.296915 1.1679859-.656355.4984897-1.000093 1.261313-1.000093 2.3046764 0 .9966999.390561 1.7595232 1.12514 2.3203241.75.5605214 1.671868.8407822 2.796728.8407822 1.968784 0 3.624952-.4982103 4.937662-1.432599z"/><path d="m264.642069 83.5824414c-1.046915.7941186-2.281392 1.4013036-3.781392 1.868498-1.468606.4515466-3.031129.6697756-4.702997.6697756-7.046913 0-10.57822-3.1300904-10.57822-9.374344v-15.9458014h-5.718783v-6.3378601h5.718783v-7.147347l8.515791-2.3669877v9.4833188h9.968688v6.3532284h-9.968688v14.5911613c0 2.8651978 1.421775 4.2821491 4.296727 4.2821491 1.87514 0 3.484485-.5918168 4.859438-1.7285073z"/><path d="m300 79.969509-.499065 5.2788491c-1.079439.5448738-2.422429.8097663-4.048597.8097663-1.828037-.046943-3.389718-.4205308-4.701867-1.1679859s-2.186915-1.8218344-2.641121-3.2234175c-.95327 1.4015831-2.343924 2.5069783-4.155138 3.2857287-1.828037.7941186-3.7357 1.1679859-5.719905 1.1679859-3.234391 0-5.765605-.7164392-7.578221-2.1646858-1.812336-1.4482466-2.718784-3.5193259-2.718784-6.1975901 0-2.2733811.749999-4.1421585 2.218877-5.6060528 1.468598-1.4636148 3.609251-2.5069782 6.437381-3.0674997l10.719529-2.1644063v-1.1679859c0-1.7285073-.501869-3.1144427-1.516822-4.1265108-1.014953-1.0123476-2.343924-1.5105578-4.031774-1.5105578-3.405139 0-5.608316 1.6818437-6.592708 5.0919154l-7.281306-2.2267176c.75-2.8185343 2.328224-5.0298836 4.71869-6.6491367 2.390747-1.6195326 5.578316-2.4136512 9.517006-2.4136512 4.18598 0 7.499997.9964205 9.967286 2.9585249 2.436448 1.9621045 3.656073 4.7962865 3.656073 8.5335619v12.5041549c0 1.572869.751402 2.3669876 2.234579 2.3669876.734579.0156477 1.407476-.1089747 2.015887-.3112766zm-14.641116-1.2926083c1.312149-.9497569 1.968224-2.4759624 1.968224-4.5937052v-1.9154409l-6.529905 1.3079765c-1.531681.2959084-2.64112.6697757-3.297195 1.1679859-.656354.4984897-1.000093 1.261313-1.000093 2.3046764 0 .9966999.390561 1.7595232 1.12486 2.3203241.749999.5605214 1.671868.8407822 2.796728.8407822 1.968223 0 3.625232-.4982103 4.937381-1.432599z"/></g></svg>