<svg fill="none" height="47" viewBox="0 0 47 47" width="47" xmlns="http://www.w3.org/2000/svg"><path d="m31.3913 23.7393-12.913-8.1304v15.7826z" fill="#fff"/><circle cx="23.5" cy="23.5" r="15.5" stroke="#fff" stroke-width="2"/><path d="m38.5043 13.5564c-1.7205-2.5961-4.0852-4.70135-6.863-6.10999-2.7777-1.40865-5.8734-2.07246-8.9844-1.92655-3.1111.14591-6.1311 1.09655-8.7648 2.75899-2.6336 1.66245-4.79091 3.97985-6.26089 6.72555-1.46999 2.7458-2.20238 5.8259-2.1256 8.9395.07679 3.1135.96013 6.1539 2.56368 8.8238 1.60354 2.67 3.87241 4.8782 6.58481 6.4088 2.7125 1.5306 5.7756 2.3312 8.8901 2.3235" stroke="#fa7c05" stroke-miterlimit="1.33344" stroke-width="3"/></svg>