<svg fill="none" height="20" viewBox="0 0 20 20" width="20" xmlns="http://www.w3.org/2000/svg"><path d="m10 20c-5.523 0-10-4.477-10-10s4.477-10 10-10 10 4.477 10 10-4.477 10-10 10zm-1.378-13.585c-.06018-.04015-.13013-.06323-.20239-.06678-.07227-.00355-.14414.01257-.20796.04664-.06383.03407-.11722.08481-.15449.14682s-.05703.13297-.05716.20532v6.506c.00013.0723.01989.1433.05716.2053s.09066.1128.15449.1468c.06382.0341.13569.0502.20796.0467.07226-.0036.14221-.0266.20239-.0668l4.879-3.252c.0549-.0365.0999-.086.131-.1441s.0474-.123.0474-.1889c0-.06591-.0163-.13079-.0474-.18889-.0311-.05809-.0761-.1076-.131-.14411l-4.88-3.252z" fill="#fff"/></svg>