<svg fill="none" height="22" viewBox="0 0 18 22" width="18" xmlns="http://www.w3.org/2000/svg"><path d="m2.66658 10.1109 13.63072-9.08667c.1003-.066802.217-.105126.3374-.110888.1205-.005763.2402.021255.3466.078172.1063.056916.1951.141606.2571.245046s.0948.22175.0949.34234v18.8427c-.0001.1206-.0329.2389-.0949.3423s-.1508.1881-.2571.2451c-.1064.0569-.2261.0839-.3466.0781-.1204-.0057-.2371-.0441-.3374-.1109l-13.63072-9.0866v8.444c0 .3536-.14047.6927-.39052.9428-.25005.25-.58919.3905-.94281.3905s-.69276-.1405-.942808-.3905c-.25005-.2501-.39052402-.5892-.39052402-.9428v-18.6667c0-.35362.14047402-.69276.39052402-.942808.250048-.250049.589188-.390523.942808-.390523s.69276.140474.94281.390523c.25005.250048.39052.589188.39052.942808z" fill="#fff"/></svg>