<svg height="23" viewBox="0 0 29 23" width="29" xmlns="http://www.w3.org/2000/svg"><path d="m11.115.379v4.5h-2.61c-2.16 0-3.24 1.08-3.24 3.24v2.88h1.26c1.74 0 3.195.54 4.365 1.62s1.755 2.43 1.755 4.05c0 1.741-.585 3.15-1.755 4.23s-2.625 1.62-4.365 1.62c-1.741 0-3.181-.57-4.32-1.71-1.14-1.139-1.71-2.579-1.71-4.32v-8.37c0-5.16 2.579-7.74 7.74-7.74zm15.66 0v4.5h-2.61c-2.16 0-3.24 1.08-3.24 3.24v2.88h1.26c1.739 0 3.195.54 4.365 1.62s1.755 2.43 1.755 4.05c0 1.741-.585 3.15-1.755 4.23s-2.626 1.62-4.365 1.62c-1.741 0-3.181-.57-4.32-1.71-1.14-1.139-1.71-2.579-1.71-4.32v-8.37c0-5.16 2.579-7.74 7.74-7.74z" fill="#fff"/></svg>