<?xml version="1.0" encoding="UTF-8"?>
<svg width="903px" height="237px" viewBox="0 0 903 237" version="1.1" xmlns="http://www.w3.org/2000/svg" xmlns:xlink="http://www.w3.org/1999/xlink">
    <title>Group</title>
    <g id="Page-1" stroke="none" stroke-width="1" fill="none" fill-rule="evenodd">
        <g id="Group" transform="translate(0.000000, -0.000000)" fill="#515050" fill-rule="nonzero">
            <g transform="translate(262.170000, 39.770000)" id="Shape">
                <path d="M79.96,98.59 L56.98,98.59 L38.89,62.01 L19.85,62.01 L19.85,98.59 L0,98.59 L0,2.04 L43.78,2.04 C54.03,2.04 61.96,4.81 67.58,10.34 C73.2,15.87 76.01,23.17 76.01,32.23 C76.01,38.75 74.53,44.42 71.59,49.23 C68.65,54.04 64.41,57.58 58.88,59.84 L79.96,98.59 Z M53.03,40.73 C55.11,38.69 56.16,35.86 56.16,32.23 C56.16,28.61 55.09,25.7 52.97,23.53 C50.83,21.35 47.78,20.27 43.79,20.27 L19.85,20.27 L19.85,43.8 L43.79,43.8 C47.87,43.79 50.94,42.77 53.03,40.73 Z M161.14,80.37 L161.14,98.59 L91.65,98.59 L91.65,2.04 L161.14,2.04 L161.14,20.26 L111.5,20.26 L111.5,40.52 L159.09,40.52 L159.09,58.74 L111.5,58.74 L111.5,80.37 L161.14,80.37 L161.14,80.37 Z M219.87,98.59 L177.3,98.59 L177.3,2.04 L218.1,2.04 C228.71,2.04 236.71,4.51 242.1,9.45 C247.49,14.39 250.19,20.76 250.19,28.56 C250.19,33.55 248.99,37.87 246.59,41.54 C244.18,45.22 240.89,48 236.73,49.9 C241.26,51.63 244.86,54.34 247.54,58.06 C250.21,61.78 251.56,66.18 251.56,71.25 C251.56,79.78 248.84,86.46 243.4,91.31 C237.96,96.16 230.11,98.59 219.87,98.59 Z M217.97,19.85 L196.62,19.85 L196.62,40.79 L217.97,40.79 C221.87,40.79 224.88,39.91 227.01,38.14 C229.14,36.37 230.21,33.77 230.21,30.32 C230.21,27.24 229.19,24.73 227.15,22.77 C225.11,20.83 222.05,19.85 217.97,19.85 Z M219.33,58.74 L196.62,58.74 L196.62,80.78 L219.33,80.78 C227.49,80.78 231.57,77.1 231.57,69.76 C231.57,66.4 230.55,63.73 228.51,61.73 C226.47,59.75 223.41,58.74 219.33,58.74 Z M329.58,80.37 L329.58,98.59 L266.89,98.59 L266.89,2.04 L286.74,2.04 L286.74,80.37 L329.58,80.37 Z M420.19,14.28 C429.62,23.8 434.33,35.81 434.33,50.32 C434.33,64.82 429.62,76.83 420.19,86.35 C410.76,95.87 398.75,100.63 384.15,100.63 C369.56,100.63 357.55,95.87 348.11,86.35 C338.68,76.83 333.97,64.82 333.97,50.32 C333.97,35.81 338.68,23.8 348.11,14.28 C357.54,4.76 369.55,0 384.15,0 C398.75,0 410.76,4.76 420.19,14.28 Z M405.24,73.09 C410.68,67.34 413.4,59.74 413.4,50.31 C413.4,40.88 410.68,33.29 405.24,27.53 C399.8,21.78 392.78,18.9 384.16,18.9 C375.55,18.9 368.52,21.78 363.09,27.53 C357.65,33.29 354.93,40.88 354.93,50.31 C354.93,59.74 357.65,67.33 363.09,73.09 C368.53,78.85 375.55,81.720026 384.16,81.720026 C392.77,81.73 399.8,78.85 405.24,73.09 Z M459.49,86.48 C450.33,77.24 445.75,65.13 445.75,50.18 C445.75,35.22 450.33,23.12 459.49,13.87 C468.64,4.63 480.25,0 494.3,0 C505.72,0 515.6,3.02 523.94,9.04 C532.28,15.07 537.72,23.26 540.26,33.59 L519.86,37.81 C518.41,31.82 515.42,27.18 510.89,23.87 C506.35,20.56 500.83,18.91 494.3,18.91 C485.6,18.91 478.82,21.72 473.97,27.35 C469.12,32.96 466.69,40.58 466.69,50.19 C466.69,59.8 469.11,67.41 473.97,73.03 C478.81,78.66 485.6,81.47 494.3,81.47 C500.83,81.47 506.35,79.81 510.89,76.5 C515.42,73.19 518.41,68.55 519.86,62.56 L540.26,66.78 C537.72,77.11 532.28,85.3 523.94,91.33 C515.6,97.36 505.72,100.37 494.3,100.37 C480.25,100.36 468.65,95.74 459.49,86.48 Z M640.36,98.59 L615.87,98.59 L588.44,57.09 L573.72,73.14 L573.72,98.58 L553.86,98.58 L553.86,2.04 L573.72,2.04 L573.72,48 L613.01,2.04 L638.86,2.04 L602.14,42.16 L640.36,98.59 Z"></path>
                <path d="M31.96,114.1 L39.8,114.1 L23.59,155.97 L16.16,155.97 L-5.68434189e-14,114.1 L8.08,114.1 L19.96,146.52 L20.08,146.52 L31.96,114.1 Z M121.71,149.37 L121.71,155.98 L92.28,155.98 L92.28,114.11 L121.71,114.11 L121.71,120.71 L99.42,120.71 L99.42,131.44 L120.71,131.44 L120.71,138.04 L99.42,138.04 L99.42,149.37 L121.71,149.37 Z M183.98,125.92 L183.98,155.97 L176.97,155.97 L176.97,114.1 L184.11,114.1 L204.57,144.39 L204.57,114.1 L211.58,114.1 L211.58,155.97 L204.27,155.97 L183.98,125.92 Z M295.5,114.1 L295.5,120.88 L283.35,120.88 L283.35,155.97 L276.21,155.97 L276.21,120.88 L264.06,120.88 L264.06,114.1 L295.5,114.1 Z M377.52,152.2 C374.26,155.31 370.09,156.86 365.02,156.86 C359.94,156.86 355.78,155.3 352.51,152.2 C349.25,149.1 347.62,144.62 347.62,138.76 L347.62,114.11 L354.75,114.11 L354.75,139.05 C354.75,142.51 355.63,145.24 357.38,147.24 C359.13,149.25 361.68,150.25 365.02,150.25 C368.36,150.25 370.9,149.25 372.65,147.24 C374.4,145.23 375.27,142.5 375.27,139.05 L375.27,114.11 L382.400182,114.11 L382.400182,138.76 C382.42,144.61 380.79,149.1 377.52,152.2 Z M472.71,155.97 L464.34,155.97 L455.85,139.45 L446.24,139.45 L446.24,155.97 L439.1,155.97 L439.1,114.1 L457.5,114.1 C461.98,114.1 465.4,115.26 467.75,117.58 C470.12,119.9 471.3,122.97 471.3,126.78 C471.3,129.65 470.61,132.12 469.23,134.18 C467.85,136.25 465.81,137.71 463.1,138.57 L472.71,155.97 Z M462.44,131.2 C463.54,130.1 464.09,128.62 464.09,126.78 C464.09,124.93 463.54,123.46 462.44,122.36 C461.34,121.26 459.71,120.71 457.55,120.71 L446.23,120.71 L446.23,132.86 L457.55,132.86 C459.72,132.85 461.35,132.3 462.44,131.2 Z M555.39,149.37 L555.39,155.98 L525.96,155.98 L525.96,114.11 L555.39,114.11 L555.39,120.71 L533.1,120.71 L533.1,131.44 L554.39,131.44 L554.39,138.04 L533.1,138.04 L533.1,149.37 L555.39,149.37 Z M624.09,150.37 C626.96,150.37 629.18,149.87 630.75,148.87 C632.32,147.87 633.12,146.43 633.12,144.54 C633.12,143.17 632.68,142.05 631.82,141.18 C630.95,140.31 629.82,139.7 628.41,139.32 C627.01,138.95 625.51,138.54 623.89,138.11 C622.28,137.68 620.63,137.23 618.95,136.78 C617.27,136.33 615.73,135.71 614.36,134.92 C612.98,134.13 611.86,132.96 611,131.38 C610.14,129.81 609.71,127.88 609.71,125.6 C609.71,122.14 611.08,119.21 613.8,116.81 C616.54,114.42 620.16,113.21 624.69,113.21 C629.44,113.21 633.15,114.5 635.8,117.07 C638.46,119.65 639.82,122.98 639.9,127.07 L632.89,127.07 C632.85,124.9 632.12,123.12 630.71,121.73 C629.3,120.33 627.29,119.64 624.7,119.64 C622.23,119.64 620.28,120.14 618.89,121.13 C617.49,122.13 616.79,123.54 616.79,125.38 C616.79,126.59 617.23,127.59 618.1,128.39 C618.97,129.19 620.11,129.78 621.51,130.16 C622.91,130.54 624.43,130.94 626.08,131.39 C627.73,131.84 629.4,132.28 631.09,132.74 C632.77,133.19 634.32,133.85 635.71,134.69 C637.1,135.54 638.22,136.77 639.09,138.37 C639.96,139.98 640.39,141.92 640.39,144.22 C640.39,148.03 638.87,151.08 635.84,153.36 C632.81,155.64 628.79,156.78 623.75,156.78 C618.6,156.78 614.73,155.43 612.14,152.71 C609.54,150 608.19,146.72 608.07,142.87 L615.14,142.87 C615.3,145.19 616.15,147.01 617.68,148.35 C619.19,149.7 621.33,150.37 624.09,150.37 Z"></path>
            </g>
            <path d="M106.26,0 L212.51,61.35 L212.51,175.05 L106.26,236.39 L0,175.05 L0,61.35 L106.26,0 Z M106.26,10.24 L73.79,28.98 L8.86,66.47 L8.86,169.93 L41.33,188.67 L41.33,85.21 L106.26,47.72 L138.72,66.46 L73.79,103.95 L106.26,122.7 L171.19,188.67 L203.65,169.93 L138.72,103.95 L203.64,66.47 L138.71,28.98 L138.72,28.98 L106.26,10.24 Z" id="Combined-Shape"></path>
        </g>
    </g>
</svg>