<svg height="237" viewBox="0 0 903 237" width="903" xmlns="http://www.w3.org/2000/svg"><g fill="#515050"><g transform="translate(262.17 39.77)"><path d="m79.96 98.59h-22.98l-18.09-36.58h-19.04v36.58h-19.85v-96.55h43.78c10.25 0 18.18 2.77 23.8 8.3s8.43 12.83 8.43 21.89c0 6.52-1.48 12.19-4.42 17s-7.18 8.35-12.71 10.61zm-26.93-57.86c2.08-2.04 3.13-4.87 3.13-8.5 0-3.62-1.07-6.53-3.19-8.7-2.14-2.18-5.19-3.26-9.18-3.26h-23.94v23.53h23.94c4.08-.01 7.15-1.03 9.24-3.07zm108.11 39.64v18.22h-69.49v-96.55h69.49v18.22h-49.64v20.26h47.59v18.22h-47.59v21.63zm58.73 18.22h-42.57v-96.55h40.8c10.61 0 18.61 2.47 24 7.41s8.09 11.31 8.09 19.11c0 4.99-1.2 9.31-3.6 12.98-2.41 3.68-5.7 6.46-9.86 8.36 4.53 1.73 8.13 4.44 10.81 8.16 2.67 3.72 4.02 8.12 4.02 13.19 0 8.53-2.72 15.21-8.16 20.06s-13.29 7.28-23.53 7.28zm-1.9-78.74h-21.35v20.94h21.35c3.9 0 6.91-.88 9.04-2.65s3.2-4.37 3.2-7.82c0-3.08-1.02-5.59-3.06-7.55-2.04-1.94-5.1-2.92-9.18-2.92zm1.36 38.89h-22.71v22.04h22.71c8.16 0 12.24-3.68 12.24-11.02 0-3.36-1.02-6.03-3.06-8.03-2.04-1.98-5.1-2.99-9.18-2.99zm110.25 21.63v18.22h-62.69v-96.55h19.85v78.33zm90.61-66.09c9.43 9.52 14.14 21.53 14.14 36.04 0 14.5-4.71 26.51-14.14 36.03s-21.44 14.28-36.04 14.28c-14.59 0-26.6-4.76-36.04-14.28-9.43-9.52-14.14-21.53-14.14-36.03 0-14.51 4.71-26.52 14.14-36.04s21.44-14.28 36.04-14.28 26.61 4.76 36.04 14.28zm-14.95 58.81c5.44-5.75 8.16-13.35 8.16-22.78s-2.72-17.02-8.16-22.78c-5.44-5.75-12.46-8.63-21.08-8.63-8.61 0-15.64 2.88-21.07 8.63-5.44 5.76-8.16 13.35-8.16 22.78s2.72 17.02 8.16 22.78 12.46 8.630026 21.07 8.630026c8.61.009974 15.64-2.870026 21.08-8.630026zm54.25 13.39c-9.16-9.24-13.74-21.35-13.74-36.3 0-14.96 4.58-27.06 13.74-36.31 9.15-9.24 20.76-13.87 34.81-13.87 11.42 0 21.3 3.02 29.64 9.04 8.34 6.03 13.78 14.22 16.32 24.55l-20.4 4.22c-1.45-5.99-4.44-10.63-8.97-13.94-4.54-3.31-10.06-4.96-16.59-4.96-8.7 0-15.48 2.81-20.33 8.44-4.85 5.61-7.28 13.23-7.28 22.84s2.42 17.22 7.28 22.84c4.84 5.63 11.63 8.44 20.33 8.44 6.53 0 12.05-1.66 16.59-4.97 4.53-3.31 7.52-7.95 8.97-13.94l20.4 4.22c-2.54 10.33-7.98 18.52-16.32 24.55s-18.22 9.04-29.64 9.04c-14.05-.01-25.65-4.63-34.81-13.89zm180.87 12.11h-24.49l-27.43-41.5-14.72 16.05v25.44h-19.86v-96.54h19.86v45.96l39.29-45.96h25.85l-36.72 40.12z"/><path d="m31.96 114.1h7.84l-16.21 41.87h-7.43l-16.16-41.87h8.08l11.88 32.42h.12zm89.75 35.27v6.61h-29.43v-41.87h29.43v6.6h-22.29v10.73h21.29v6.6h-21.29v11.33zm62.27-23.45v30.05h-7.01v-41.87h7.14l20.46 30.29v-30.29h7.01v41.87h-7.31zm111.52-11.82v6.78h-12.15v35.09h-7.14v-35.09h-12.15v-6.78zm82.02 38.1c-3.26 3.11-7.43 4.66-12.5 4.66-5.08 0-9.24-1.56-12.51-4.66-3.26-3.1-4.89-7.58-4.89-13.44v-24.65h7.13v24.94c0 3.46.88 6.19 2.63 8.19 1.75 2.01 4.3 3.01 7.64 3.01s5.88-1 7.63-3.01 2.62-4.74 2.62-8.19v-24.94h7.130182v24.65c.019818 5.85-1.610182 10.34-4.880182 13.44zm95.19 3.77h-8.37l-8.49-16.52h-9.61v16.52h-7.14v-41.87h18.4c4.48 0 7.9 1.16 10.25 3.48 2.37 2.32 3.55 5.39 3.55 9.2 0 2.87-.69 5.34-2.07 7.4-1.38 2.07-3.42 3.53-6.13 4.39zm-10.27-24.77c1.1-1.1 1.65-2.58 1.65-4.42 0-1.85-.55-3.32-1.65-4.42s-2.73-1.65-4.89-1.65h-11.32v12.15h11.32c2.17-.01 3.8-.56 4.89-1.66zm92.95 18.17v6.61h-29.43v-41.87h29.43v6.6h-22.29v10.73h21.29v6.6h-21.29v11.33zm68.7 1c2.87 0 5.09-.5 6.66-1.5s2.37-2.44 2.37-4.33c0-1.37-.44-2.49-1.3-3.36-.87-.87-2-1.48-3.41-1.86-1.4-.37-2.9-.78-4.52-1.21-1.61-.43-3.26-.88-4.94-1.33s-3.22-1.07-4.59-1.86c-1.38-.79-2.5-1.96-3.36-3.54-.86-1.57-1.29-3.5-1.29-5.78 0-3.46 1.37-6.39 4.09-8.79 2.74-2.39 6.36-3.6 10.89-3.6 4.75 0 8.46 1.29 11.11 3.86 2.66 2.58 4.02 5.91 4.1 10h-7.01c-.04-2.17-.77-3.95-2.18-5.34-1.41-1.4-3.42-2.09-6.01-2.09-2.47 0-4.42.5-5.81 1.49-1.4 1-2.1 2.41-2.1 4.25 0 1.21.44 2.21 1.31 3.01s2.01 1.39 3.41 1.77 2.92.78 4.57 1.23 3.32.89 5.01 1.35c1.68.45 3.23 1.11 4.62 1.95 1.39.85 2.51 2.08 3.38 3.68.87 1.61 1.3 3.55 1.3 5.85 0 3.81-1.52 6.86-4.55 9.14s-7.05 3.42-12.09 3.42c-5.15 0-9.02-1.35-11.61-4.07-2.6-2.71-3.95-5.99-4.07-9.84h7.07c.16 2.32 1.01 4.14 2.54 5.48 1.51 1.35 3.65 2.02 6.41 2.02z"/></g><path d="m106.26 0 106.25 61.35v113.7l-106.25 61.34-106.26-61.34v-113.7zm0 10.24-32.47 18.74-64.93 37.49v103.46l32.47 18.74v-103.46l64.93-37.49 32.46 18.74-64.93 37.49 32.47 18.75 64.93 65.97 32.46-18.74-64.93-65.98 64.92-37.48-64.93-37.49h.01z"/></g></svg>