<?xml version="1.0" encoding="UTF-8"?>
<svg width="601px" height="112px" viewBox="0 0 601 112" version="1.1" xmlns="http://www.w3.org/2000/svg" xmlns:xlink="http://www.w3.org/1999/xlink">
    <title>Group</title>
    <g id="Page-1" stroke="none" stroke-width="1" fill="none" fill-rule="evenodd">
        <g id="Group" fill="#515050">
            <polygon id="Path" fill-rule="nonzero" points="71.2139237 111.9992 111.908622 111.9992 71.2139237 71.2720602"></polygon>
            <polygon id="Path" fill-rule="nonzero" points="111.91062 2.07679693e-06 88.1719798 0 111.91062 23.7575304"></polygon>
            <path d="M72.9101689,71.2724602 C72.3414232,71.2724602 71.7758748,71.2576602 71.214723,71.2288603 L71.214723,45.734498 L98.9142003,19.992976 C102.820281,25.3279281 105.126838,31.9095184 105.126838,39.0302279 C105.126838,56.8372815 90.7027585,71.2724602 72.9101689,71.2724602 Z M91.6795784,12.8218666 L71.214723,31.8400385 L71.214723,6.83171547 C71.7758748,6.80259551 72.3414232,6.78783553 72.9101689,6.78783553 C79.912976,6.78783553 86.3941996,9.02403223 91.6795784,12.8218666 Z" id="Shape"></path>
            <path d="M67.8270287,6.78783553 L37.305885,6.78783553 L37.305885,36.921751 L51.0008672,50.6276907 L67.8270287,34.9910738 L67.8270287,6.78783553 Z M67.8270287,48.8856933 L50.739476,64.7652698 L37.305885,51.3208897 L37.305885,112 L67.8270287,112 L67.8270287,48.8856933 Z" id="Shape"></path>
            <path d="M33.9123153,6.78783553 L0,6.78783553 L0,50.4988909 L25.4362049,25.0423285 L33.9123153,33.525236 L33.9123153,6.78783553 Z M33.9123153,47.9244947 L25.4362049,39.4415873 L0,64.8980696 L0,112 L33.9123153,112 L33.9123153,47.9244947 Z" id="Shape"></path>
            <path d="M152.242808,82.6660434 L152.242808,26.6662461 L176.303592,26.6662461 C183.178101,26.6662461 188.480666,28.5328834 192.210887,32.2661979 C195.088589,35.1462336 196.52744,38.8262282 196.52744,43.3061015 L196.52744,43.4661013 C196.52744,47.9460947 195.141746,51.5728893 192.370759,54.3460852 C189.599773,57.1196811 185.922709,58.9328784 181.33957,59.7860772 L198.525844,82.6660434 L190.772036,82.6660434 L174.544996,60.9060755 L174.385124,60.9060755 L158.557765,60.9060755 L158.557765,82.6660434 L152.242808,82.6660434 Z M158.557765,55.2260839 L175.744039,55.2260839 C180.007434,55.2260839 183.471067,54.1860855 186.135739,52.1060885 C188.800411,50.0260916 190.132547,47.2260958 190.132547,43.706101 L190.132547,43.5461012 C190.132547,40.0797063 188.853569,37.3862303 186.295611,35.4662331 C183.790812,33.4928761 180.3004,32.5062375 175.823975,32.5062375 L158.557765,32.5062375 L158.557765,55.2260839 Z M211.866389,64.5060702 C212.292848,68.719664 213.864793,72.079659 216.582622,74.5860553 C219.353609,77.0396517 222.630992,78.2660499 226.41477,78.2660499 C231.370811,78.2660499 235.714142,76.3196527 239.444363,72.4260585 L243.281299,75.8660534 C238.645002,81.0396458 232.969534,83.6260419 226.254897,83.6260419 C220.446336,83.6260419 215.543452,81.6260449 211.546644,77.6260508 C207.602994,73.5728568 205.631369,68.3728645 205.631369,62.0260739 C205.631369,55.9996828 207.523058,50.9060903 211.306836,46.7460965 C215.090614,42.5329027 219.806847,40.4261058 225.455536,40.4261058 C231.370811,40.4261058 236.060266,42.5061027 239.524299,46.6660966 C242.988333,50.8260904 244.72015,56.0528827 244.72015,62.3460734 C244.72015,63.1460722 244.693371,63.8660712 244.640213,64.5060702 L211.866389,64.5060702 Z M211.866389,59.5460775 L238.485129,59.5460775 C238.112227,55.5460835 236.779691,52.2396883 234.488321,49.6260981 C232.250109,46.9596961 229.185756,45.6260981 225.295663,45.6260981 C221.778472,45.6260981 218.767677,46.9328962 216.262878,49.5460923 C213.758078,52.1596885 212.292848,55.4928835 211.866389,59.5460775 Z M257.813293,82.6660434 L257.813293,46.7460965 L252.137825,46.7460965 L252.137825,41.3861044 L257.813293,41.3861044 L257.813293,37.7861897 C257.813293,33.0928766 259.012335,29.5462419 261.41042,27.1462454 C263.542317,25.0128886 266.499955,23.9462502 270.283333,23.9462502 C272.894847,23.9462502 275.159439,24.2928897 277.077906,24.9862486 L277.077906,30.3462407 C274.626664,29.6528817 272.62826,29.3062022 271.082695,29.3062022 C266.286525,29.3062022 263.888441,32.2395579 263.888441,38.1062292 L263.888441,41.4661043 L276.99797,41.4661043 L276.99797,46.7460965 L263.968377,46.7460965 L263.968377,82.6660434 L257.813293,82.6660434 Z M280.536344,82.6660434 L280.536344,74.2660558 L287.890471,74.2660558 L287.890471,82.6660434 L280.536344,82.6660434 Z" id="Shape" fill-rule="nonzero"></path>
            <path d="M327.133129,82.6660434 L327.133129,46.7460965 L321.457662,46.7460965 L321.457662,41.3861044 L327.133129,41.3861044 L327.133129,37.7861897 C327.133129,33.0928766 328.332171,29.5462419 330.730256,27.1462454 C332.861754,25.0128886 335.819392,23.9462502 339.60317,23.9462502 C342.214284,23.9462502 344.479275,24.2928897 346.397743,24.9862486 L346.397743,30.3462407 C343.946501,29.6528817 341.948097,29.3062022 340.402531,29.3062022 C335.606362,29.3062022 333.208277,32.2395579 333.208277,38.1062292 L333.208277,41.4661043 L346.317807,41.4661043 L346.317807,46.7460965 L333.288213,46.7460965 L333.288213,82.6660434 L327.133129,82.6660434 Z M354.326211,32.2661979 L354.326211,25.4662479 L361.360593,25.4662479 L361.360593,32.2661979 L354.326211,32.2661979 Z M354.725891,82.6660434 L354.725891,41.3061045 L360.880976,41.3061045 L360.880976,82.6660434 L354.725891,82.6660434 Z M375.165167,82.6660434 L375.165167,41.3061045 L381.320251,41.3061045 L381.320251,48.5060939 C384.571255,43.1197018 389.287488,40.4261058 395.468951,40.4261058 C400.372235,40.4261058 404.237148,41.9461036 407.058895,44.9860991 C409.884638,47.9728946 411.295511,51.9728887 411.295511,56.9860813 L411.295511,82.6660434 L405.140427,82.6660434 L405.140427,58.5060791 C405.140427,54.6128848 404.129235,51.5728893 402.102853,49.3860926 C400.132427,47.1460959 397.334261,46.0260975 393.710356,46.0260975 C390.140007,46.0260975 387.182369,47.2260958 384.837442,49.6260922 C382.492915,52.0260887 381.320251,55.146084 381.320251,58.9860784 L381.320251,82.6660434 L375.165167,82.6660434 Z M436.731196,83.5460421 C432.574516,83.5460421 428.953408,82.3996438 425.859879,80.1060471 C422.822305,77.8128505 421.303518,74.6660552 421.303518,70.6660611 L421.303518,70.5060613 C421.303518,66.1860677 422.902241,62.8528727 426.099687,60.5060761 C429.297134,58.1596796 433.589705,56.9860813 438.969409,56.9860813 C443.234003,56.9860813 447.442641,57.5728805 451.599322,58.7460787 L451.599322,57.4660806 C451.599322,53.839686 450.536171,51.0660901 448.401875,49.1460929 C446.271577,47.2260958 443.26198,46.2660972 439.36909,46.2660972 C435.320323,46.2660972 431.135665,47.2528957 426.819113,49.2260928 L424.980581,44.1861002 C430.096495,41.8397037 435.108492,40.6661055 440.008579,40.6661055 C445.871896,40.6661055 450.320343,42.1861032 453.357917,45.2260987 C456.235619,48.1060945 457.67447,52.1596885 457.67447,57.3860807 L457.67447,82.6660434 L451.599322,82.6660434 L451.599322,76.5060525 C447.922258,81.1996455 442.966217,83.5460421 436.731196,83.5460421 Z M437.930239,78.5860494 C441.767174,78.5860494 445.020576,77.5460509 447.68245,75.466054 C450.348321,73.3860571 451.679258,70.719661 451.679258,67.4660658 L451.679258,63.6260715 C447.630491,62.4528732 443.605706,61.8660741 439.608898,61.8660741 C435.827918,61.8660741 432.87028,62.639673 430.735985,64.1860707 C428.605686,65.6796685 427.538538,67.6796655 427.538538,70.1860618 L427.538538,70.3460616 C427.538538,72.8528579 428.52575,74.8528549 430.496176,76.3460527 C432.522558,77.8396505 435.000579,78.5860494 437.930239,78.5860494 Z M470.712057,82.6660434 L470.712057,41.3061045 L476.867141,41.3061045 L476.867141,48.5060939 C480.120543,43.1197018 484.836776,40.4261058 491.015841,40.4261058 C495.919924,40.4261058 499.784837,41.9461036 502.606584,44.9860991 C505.432327,47.9728946 506.8432,51.9728887 506.8432,56.9860813 L506.8432,82.6660434 L500.688116,82.6660434 L500.688116,58.5060791 C500.688116,54.6128848 499.676924,51.5728893 497.650542,49.3860926 C495.680116,47.1460959 492.88235,46.0260975 489.257245,46.0260975 C485.688096,46.0260975 482.730458,47.2260958 480.384332,49.6260922 C478.042203,52.0260887 476.867141,55.146084 476.867141,58.9860784 L476.867141,82.6660434 L470.712057,82.6660434 Z M538.597839,83.6260419 C532.626608,83.6260419 527.59063,81.5196451 523.489905,77.3060513 C519.437142,73.0928575 517.414757,68.052865 517.414757,62.1860736 L517.414757,62.0260739 C517.414757,56.1060826 519.437142,51.0396901 523.489905,46.8260963 C527.59063,42.5597027 532.626608,40.4261058 538.597839,40.4261058 C544.992731,40.4261058 550.508326,42.8797022 555.144623,47.7860949 L551.067879,52.1060885 C547.12303,47.9460947 542.938372,45.8660978 538.517903,45.8660978 C534.361222,45.8660978 530.844031,47.4128955 527.96633,50.5060909 C525.140587,53.5996863 523.729713,57.3860807 523.729713,61.8660741 L523.729713,62.0260739 C523.729713,66.5060673 525.168564,70.3196616 528.046266,73.466057 C530.975926,76.5596524 534.601031,78.1060501 538.917583,78.1060501 C543.497925,78.1060501 547.710561,76.0528531 551.547496,71.9460592 L555.464368,75.6260538 C550.668198,80.9596459 545.04469,83.6260419 538.597839,83.6260419 Z M568.146239,64.5060702 C568.569901,68.719664 570.144643,72.079659 572.862473,74.5860553 C575.63226,77.0396517 578.909643,78.2660499 582.69462,78.2660499 C587.650662,78.2660499 591.991195,76.3196527 595.724214,72.4260585 L599.561149,75.8660534 C594.924852,81.0396458 589.249385,83.6260419 582.534748,83.6260419 C576.723389,83.6260419 571.823303,81.6260449 567.826495,77.6260508 C563.881645,73.5728568 561.911219,68.3728645 561.911219,62.0260739 C561.911219,55.9996828 563.801709,50.9060903 567.586686,46.7460965 C571.367666,42.5329027 576.0839,40.4261058 581.735386,40.4261058 C587.650662,40.4261058 592.338917,42.5061027 595.80415,46.6660966 C599.265385,50.8260904 601,56.0528827 601,62.3460734 C601,63.1460722 600.972022,63.8660712 600.920064,64.5060702 L568.146239,64.5060702 Z M568.146239,59.5460775 L594.76498,59.5460775 C594.38928,55.5460835 593.058343,52.2396883 590.768172,49.6260981 C588.529959,46.9596961 585.464408,45.6260981 581.575514,45.6260981 C578.058323,45.6260981 575.04473,46.9328962 572.542728,49.5460923 C570.036729,52.1596885 568.569901,55.4928835 568.146239,59.5460775 Z" id="Shape" fill-rule="nonzero"></path>
        </g>
    </g>
</svg>