<svg fill="none" height="24" viewBox="0 0 24 24" width="24" xmlns="http://www.w3.org/2000/svg" xmlns:xlink="http://www.w3.org/1999/xlink"><clipPath id="a"><path d="m0 0h24v24h-24z"/></clipPath><g clip-path="url(#a)" opacity=".4"><path d="m18.031 16.617 4.283 4.282-1.415 1.415-4.282-4.283c-1.5933 1.2772-3.575 1.9719-5.617 1.969-4.968 0-9-4.032-9-9s4.032-9 9-9 9 4.032 9 9c.0029 2.042-.6918 4.0237-1.969 5.617zm-2.006-.742c1.2691-1.3051 1.9779-3.0546 1.975-4.875 0-3.868-3.133-7-7-7-3.868 0-7 3.132-7 7 0 3.867 3.132 7 7 7 1.8204.0029 3.5699-.7059 4.875-1.975z" fill="#fff"/></g></svg>