<svg fill="none" height="25" viewBox="0 0 24 25" width="24" xmlns="http://www.w3.org/2000/svg" xmlns:xlink="http://www.w3.org/1999/xlink"><clipPath id="a"><path d="m0 0h24v25h-24z"/></clipPath><g clip-path="url(#a)"><path d="m13.576 17.9906-5.10998-2.9031c-.49051.5072-1.11419.8517-1.79241.9902-.67823.1385-1.38063.0647-2.01867-.212-.63803-.2767-1.18313-.744-1.56657-1.343-.38345-.599-.58806-1.3028-.58806-2.0227 0-.72.20461-1.4238.58806-2.0227.38344-.59901.92854-1.06632 1.56657-1.34306.63804-.27673 1.34044-.3505 2.01867-.212.67822.13849 1.3019.48305 1.79241.99023l5.10998-2.90312c-.1752-.85653-.0487-1.75015.3566-2.51745s1.0622-1.357 1.8505-1.66127c.7884-.30427 1.6555-.30277 2.4429.00422.7874.307 1.4424.89897 1.8452 1.66766.4029.7687.5266 1.66275.3486 2.51866-.178.85592-.6458 1.6165-1.3179 2.14266s-1.5035.78273-2.3423.72281c-.8387-.05993-1.6288-.43235-2.2256-1.04917l-5.10998 2.90313c.10193.5007.10193 1.0181 0 1.5187l5.10998 2.9032c.5968-.6168 1.3869-.9893 2.2256-1.0492.8388-.0599 1.6702.1967 2.3423.7228.6721.5262 1.1399 1.2868 1.3179 2.1427s.0543 1.7499-.3486 2.5186c-.4028.7687-1.0578 1.3607-1.8452 1.6677s-1.6545.3085-2.4429.0042c-.7883-.3043-1.4452-.894-1.8505-1.6613s-.5318-1.6609-.3566-2.5174z" fill="#000"/></g></svg>