<svg fill="none" height="22" viewBox="0 0 24 22" width="24" xmlns="http://www.w3.org/2000/svg"><path d="m13.5762 15.9188-5.11-2.4793c-.49051.4332-1.11419.7274-1.79241.8457s-1.38063.0553-2.01866-.1811c-.63804-.2363-1.18314-.6354-1.56658-1.1469s-.58806-1.1125-.58806-1.7273c0-.6149.20462-1.2159.58806-1.72741.38344-.51152.92854-.91059 1.56658-1.14692.63803-.23632 1.34044-.29932 2.01866-.18105s1.3019.41252 1.79241.84565l5.11-2.47922c-.1753-.73146-.0487-1.4946.3566-2.14986s1.0621-1.15885 1.8505-1.41869 1.6555-.25856 2.4429.0036c.7874.26217 1.4424.7677 1.8452 1.42415.4028.65646.5266 1.41996.3486 2.1509s-.6458 1.38046-1.3179 1.82979-1.5035.66844-2.3423.61727c-.8387-.05118-1.6288-.36922-2.2256-.89597l-5.11 2.47926c.10193.4275.10193.8694 0 1.2969l5.11 2.4793c.5968-.5268 1.3869-.8448 2.2256-.896.8388-.0512 1.6702.1679 2.3423.6173.6721.4493 1.1399 1.0988 1.3179 1.8298.178.7309.0542 1.4944-.3486 2.1508-.4028.6565-1.0578 1.162-1.8452 1.4242s-1.6545.2634-2.4429.0036-1.4452-.7634-1.8505-1.4187-.5319-1.4184-.3566-2.1498z" fill="#000"/></svg>