<svg fill="none" height="12" viewBox="0 0 12 12" width="12" xmlns="http://www.w3.org/2000/svg" xmlns:xlink="http://www.w3.org/1999/xlink"><clipPath id="a"><path d="m0 0h12v12h-12z"/></clipPath><g clip-path="url(#a)" opacity=".3"><path d="m10.5 6.621v3.379h.5v1h-10v-1h.5v-3.379c-.30781-.20546-.560143-.48373-.73459-.81012s-.265614-.6908-.26541-1.06088c0-.4135.112-.812.3165-1.1515l1.356-2.3485c.04388-.07601.107-.13913.18301-.18301.076-.04388.16222-.06699.24999-.06699h6.7895c.08777 0 .17399.02311.24999.06699.07601.04388.13913.107.18301.18301l1.351 2.341c.2983.49544.3942 1.08677.2677 1.65107s-.4655 1.05817-.9467 1.37893zm-1 .365c-.34378.03857-.69183-.00273-1.01704-.12067-.32521-.11795-.61882-.30936-.85796-.55933-.20989.21954-.4621.39426-.74139.51363-.2793.11936-.57988.18089-.88361.18087-.30366.00015-.6042-.06122-.88349-.18041-.27928-.1192-.53153-.29374-.74151-.51309-.23919.24988-.53281.4412-.85802.55906-.32521.11785-.67324.15907-1.01698.12044v3.0135h7v-3.0135zm-6.6055-4.986-1.2165 2.1065c-.11821.29207-.12176.61801-.00993.91259.11182.29458.33077.53606.61302.67611s.60698.16834.9092.07921.55963-.28911.72071-.55991c.1675-.4185.76-.4185.928 0 .09265.23221.2528.4313.45976.57155.20697.14025.45123.21522.70124.21522s.49427-.07497.70124-.21522c.20696-.14025.36711-.33934.45976-.57155.1675-.4185.76-.4185.928 0 .06489.15972.16211.3043.28557.42464.12345.12034.27047.21384.4318.27462s.33349.08754.50566.07858c.17217-.00895.34062-.05343.49477-.13063.15415-.07719.2907-.18544.401-.31794s.192-.28639.2399-.45198c.048-.1656.0612-.33933.0388-.51026-.0224-.17094-.08-.3354-.169-.48303l-1.2125-2.0985h-6.21z" fill="#fff"/></g></svg>