<svg width="12" height="12" viewBox="0 0 12 12" fill="none" xmlns="http://www.w3.org/2000/svg">
<g opacity="0.3" clip-path="url(#clip0_4776_10677)">
<path d="M10.5 6.621V10H11V11H1V10H1.5V6.621C1.19219 6.41554 0.939857 6.13727 0.76541 5.81088C0.590963 5.48449 0.499796 5.12008 0.5 4.75C0.5 4.3365 0.612 3.938 0.8165 3.5985L2.1725 1.25C2.21638 1.17399 2.2795 1.11087 2.35551 1.06699C2.43151 1.02311 2.51773 1 2.6055 1H9.395C9.48277 1 9.56899 1.02311 9.64499 1.06699C9.721 1.11087 9.78412 1.17399 9.828 1.25L11.179 3.591C11.4773 4.08644 11.5732 4.67777 11.4467 5.24207C11.3202 5.80637 10.9812 6.30024 10.5 6.621ZM9.5 6.986C9.15622 7.02457 8.80817 6.98327 8.48296 6.86533C8.15775 6.74738 7.86414 6.55597 7.625 6.306C7.41511 6.52554 7.1629 6.70026 6.88361 6.81963C6.60431 6.93899 6.30373 7.00052 6 7.0005C5.69634 7.00065 5.3958 6.93928 5.11651 6.82009C4.83723 6.70089 4.58498 6.52635 4.375 6.307C4.13581 6.55688 3.84219 6.7482 3.51698 6.86606C3.19177 6.98391 2.84374 7.02513 2.5 6.9865V10H9.5V6.9865V6.986ZM2.8945 2L1.678 4.1065C1.55979 4.39857 1.55624 4.72451 1.66807 5.01909C1.77989 5.31367 1.99884 5.55515 2.28109 5.6952C2.56334 5.83525 2.88807 5.86354 3.19029 5.77441C3.49251 5.68528 3.74992 5.4853 3.911 5.2145C4.0785 4.796 4.671 4.796 4.839 5.2145C4.93165 5.44671 5.0918 5.6458 5.29876 5.78605C5.50573 5.9263 5.74999 6.00127 6 6.00127C6.25001 6.00127 6.49427 5.9263 6.70124 5.78605C6.9082 5.6458 7.06835 5.44671 7.161 5.2145C7.3285 4.796 7.921 4.796 8.089 5.2145C8.15389 5.37422 8.25111 5.5188 8.37457 5.63914C8.49802 5.75948 8.64504 5.85298 8.80637 5.91376C8.9677 5.97454 9.13986 6.0013 9.31203 5.99234C9.4842 5.98339 9.65265 5.93891 9.8068 5.86171C9.96095 5.78452 10.0975 5.67627 10.2078 5.54377C10.3181 5.41127 10.3998 5.25738 10.4477 5.09179C10.4957 4.92619 10.5089 4.75246 10.4865 4.58153C10.4641 4.41059 10.4065 4.24613 10.3175 4.0985L9.105 2H2.895H2.8945Z" fill="white"/>
</g>
<defs>
<clipPath id="clip0_4776_10677">
<rect width="12" height="12" fill="white"/>
</clipPath>
</defs>
</svg>
