<svg xmlns="http://www.w3.org/2000/svg" width="28" height="23" viewBox="0 0 28 23"><g><g><path fill="#fff" d="M.475 19.92c1.46.16 2.894.031 4.304-.358a11.103 11.103 0 0 0 3.872-1.957c-.028-.009-.045-.018-.062-.019-.133-.008-.266-.007-.397-.023-.203-.026-.407-.05-.606-.103-.157-.044-.318-.077-.473-.126a7.73 7.73 0 0 1-.54-.198 4.08 4.08 0 0 1-.361-.169 5.812 5.812 0 0 1-.872-.558 5.574 5.574 0 0 1-1.6-2.014c-.09-.194-.16-.396-.236-.595-.006-.015-.006-.032-.01-.058.21.021.412.036.614.064.209.029.419.012.628.014.206.001.408-.035.613-.06.28-.033.508-.081.589-.135-.14-.037-.28-.071-.418-.115-.182-.058-.363-.12-.542-.188a4.792 4.792 0 0 1-.934-.493 4.43 4.43 0 0 1-.614-.47c-.153-.143-.311-.282-.453-.436-.14-.151-.263-.316-.388-.48a4.89 4.89 0 0 1-.584-1.002 5.407 5.407 0 0 1-.347-1.062c-.037-.177-.063-.356-.093-.534-.04-.235-.031-.472-.026-.713.048-.008.079.02.11.037.242.128.49.242.749.326.258.084.522.149.786.212.122.029.248.036.372.049.135.016.27.027.405.04.014 0 .027-.002.062-.005-.081-.062-.147-.115-.215-.163a3.534 3.534 0 0 1-.427-.354c-.114-.113-.233-.221-.34-.34-.1-.112-.203-.221-.293-.341a7.448 7.448 0 0 1-.374-.542 4.02 4.02 0 0 1-.337-.66c-.045-.117-.098-.232-.141-.35a4.097 4.097 0 0 1-.191-.67c-.024-.13-.053-.258-.074-.388-.015-.092-.018-.187-.031-.28-.042-.3-.016-.6-.02-.901 0-.114.023-.228.037-.342.006-.055.018-.11.024-.165.019-.194.069-.383.118-.571.057-.215.133-.426.21-.635.089-.24.208-.466.333-.69a.284.284 0 0 1 .02-.02c.02.017.042.032.059.05.12.14.244.279.359.424.154.195.332.368.506.546.077.079.146.168.227.244.19.18.38.359.576.535.155.14.313.277.474.41.134.112.273.218.41.324.157.118.312.237.472.348.22.154.442.306.667.452.19.123.384.242.58.355.205.119.415.23.624.342.144.077.288.155.435.226.164.08.329.155.496.227.205.089.41.175.619.258.149.059.3.11.452.164.134.047.268.096.404.139.205.065.413.122.619.188.248.08.502.139.758.19.21.043.42.097.63.139.209.04.418.076.627.107.145.02.29.03.436.046.162.018.324.045.486.058.167.015.335.017.502.024.006 0 .013-.004.029-.01 0-.021.009-.05.002-.074-.044-.165-.057-.336-.082-.503-.05-.328-.044-.656-.036-.983.004-.173.04-.345.057-.518.029-.307.116-.602.205-.894.104-.341.255-.665.426-.98.137-.25.3-.485.47-.713a4.34 4.34 0 0 1 .287-.334 6.64 6.64 0 0 1 .689-.642c.196-.158.406-.295.623-.421a5.513 5.513 0 0 1 1.366-.568c.133-.038.27-.062.407-.088a6.62 6.62 0 0 1 .37-.06c.097-.012.194-.022.292-.023.213-.004.427 0 .64-.002.148-.002.292.02.437.037.177.02.35.054.524.09a5.525 5.525 0 0 1 1.434.542c.14.077.27.17.408.254.183.11.346.247.513.379.096.075.183.162.27.246.067.063.13.129.196.197a11.27 11.27 0 0 0 3.532-1.35c-.448 1.314-1.24 2.326-2.403 3.052.013.009.02.02.027.02.14-.02.282-.036.422-.061.198-.036.396-.076.593-.12.193-.043.387-.087.577-.143.26-.077.518-.165.776-.25a4.61 4.61 0 0 0 .305-.11c.126-.05.25-.103.376-.156a.1.1 0 0 1 .05-.006 11.192 11.192 0 0 1-2.748 2.854v.119c0 .389.009.778-.004 1.167-.005.183-.002.369-.036.552-.004.02-.002.04-.001.063 0 .152-.018.304-.04.456-.02.127-.027.256-.046.383-.031.214-.068.426-.1.638-.061.41-.16.812-.26 1.214-.062.26-.143.515-.221.772-.065.213-.13.427-.205.637-.107.29-.222.58-.338.868a12.66 12.66 0 0 1-.521 1.144c-.2.384-.402.766-.635 1.132-.13.202-.25.41-.387.609a27.655 27.655 0 0 1-1.008 1.346c-.06.077-.13.146-.195.219l-.217.255-.028.03c-.174.182-.345.366-.522.543a8.675 8.675 0 0 1-.471.449c-.216.187-.423.385-.653.556-.207.153-.403.32-.61.476a22.68 22.68 0 0 1-1.054.699c-.154.096-.313.183-.468.277-.254.154-.522.282-.788.412-.364.177-.734.34-1.116.478-.295.107-.59.218-.885.322-.121.042-.248.07-.372.104-.211.058-.422.117-.635.169a14.529 14.529 0 0 1-1.398.282c-.196.029-.393.046-.59.067-.208.022-.416.036-.622.067-.098.015-.195.014-.292.017-.192.008-.385.003-.576.024-.286.033-.573.02-.86.012-.187-.006-.376-.005-.564-.017-.194-.013-.387-.04-.581-.06-.093-.008-.188-.011-.281-.022-.148-.018-.296-.04-.444-.06l-.31-.044c-.1-.015-.2-.028-.298-.047a27.45 27.45 0 0 1-.57-.12c-.221-.05-.442-.1-.66-.157-.23-.06-.458-.12-.683-.195a17.125 17.125 0 0 1-1.005-.356 12.384 12.384 0 0 1-1.15-.507c-.204-.108-.415-.201-.617-.312-.274-.152-.543-.315-.814-.473-.057-.034-.112-.07-.168-.104z"/></g></g></svg>