<svg fill="none" height="24" viewBox="0 0 23 24" width="23" xmlns="http://www.w3.org/2000/svg" xmlns:xlink="http://www.w3.org/1999/xlink"><clipPath id="a"><path d="m.381348 0h22.0499v24h-22.0499z"/></clipPath><g clip-path="url(#a)"><path d="m16.9188 7h2.7563c.2436 0 .4773.10536.6496.29289.1723.18754.2691.44189.2691.70711v12c0 .2652-.0968.5196-.2691.7071s-.406.2929-.6496.2929h-16.53748c-.24367 0-.47735-.1054-.64965-.2929s-.2691-.4419-.2691-.7071v-16c0-.26522.0968-.51957.2691-.70711.1723-.18753.40598-.29289.64965-.29289h13.78118zm-12.86243 2v10h14.69993v-10zm0-4v2h11.02493v-2zm10.10623 8h2.7562v2h-2.7562z" fill="#fff"/></g></svg>