<svg height="25" viewBox="0 0 27 25" width="27" xmlns="http://www.w3.org/2000/svg"><path d="m26.336 7.81c-.106 4.528-.022 9.06-.036 13.589-.007 2.519-.973 3.586-3.313 3.593-6.482.02-12.963.022-19.445 0-2.372-.008-3.407-1.15-3.417-3.757-.02-5.645-.024-11.292.001-16.938.014-2.707 1.181-4.02 3.664-4.038 5.633-.042 11.267-.03 16.9.01.615.004 1.23.326 1.972.538v3.153c.303.074.521.164.742.176 1.803.105 2.986 1.427 2.933 3.673zm-23.34-4.777c-.173.099-.264.368-.392.562.04.18.078.363.116.543 5.77.004 11.54.038 17.365-.024v-.987c-.187-.08-.297-.165-.407-.166-5.324-.015-10.648-.023-15.973-.027-.239 0-.51-.014-.709.099zm20.74 7.367c.317-2.066.317-2.066-.13-3.475h-20.791c-.329 2.259-.265 13.905.075 15.285h20.94v-3.363c-.422-.042-.719-.096-1.017-.097-2.3-.008-4.6.022-6.9-.018-1.547-.026-2.3-.87-2.36-2.555-.032-.917-.016-1.836-.005-2.754.026-2.286.703-3.01 2.855-3.02 2.417-.012 4.834-.003 7.331-.003zm.07 2.504c-1.414 0-2.677-.036-3.937.01-1.239.046-2.502-.224-3.725.2v3.027h7.662z" fill="#fff"/></svg>