<?xml version="1.0" standalone="no"?>
<!DOCTYPE svg PUBLIC "-//W3C//DTD SVG 20010904//EN"
 "http://www.w3.org/TR/2001/REC-SVG-20010904/DTD/svg10.dtd">
<svg version="1.0" xmlns="http://www.w3.org/2000/svg"
 width="700.000000pt" height="700.000000pt" viewBox="0 0 700.000000 700.000000"
 preserveAspectRatio="xMidYMid meet">
<metadata>
Created by potrace 1.14, written by Peter Selinger 2001-2017
</metadata>
<g transform="translate(0.000000,700.000000) scale(0.100000,-0.100000)"
fill="#000000" stroke="none">
<path d="M4059 5207 c-20 -34 -232 -379 -471 -767 -400 -650 -787 -1278 -929
-1510 -32 -52 -62 -99 -66 -105 -5 -5 -28 -43 -52 -83 -49 -84 -104 -126 -212
-163 -213 -72 -476 21 -585 206 -58 100 -78 180 -77 307 2 175 87 313 245 401
177 98 411 49 589 -124 41 -39 61 -53 69 -45 5 5 10 13 10 17 0 4 75 125 166
270 253 401 276 438 270 447 -10 17 -166 123 -245 166 -454 250 -956 236
-1366 -37 -257 -171 -431 -395 -525 -675 -27 -83 -34 -108 -46 -177 -3 -16
-10 -50 -15 -75 -14 -75 -5 -375 15 -465 119 -540 484 -923 1005 -1056 311
-80 631 -46 926 96 215 104 368 234 470 400 38 61 85 137 107 170 21 33 44 72
50 88 7 15 16 27 20 27 4 0 8 4 8 9 0 5 27 51 60 102 33 52 65 103 70 114 5
11 36 61 67 112 32 50 155 249 273 442 118 193 217 350 220 350 4 0 366 -574
420 -668 9 -14 33 -52 53 -84 21 -31 40 -64 43 -72 5 -13 -41 -15 -356 -17
l-361 -3 -36 -65 c-20 -36 -118 -213 -218 -395 -100 -181 -189 -344 -198 -360
l-15 -30 1369 0 c753 -1 1369 1 1369 3 0 2 -609 978 -685 1097 -36 57 -130
206 -481 768 -137 218 -256 408 -264 422 -8 13 -55 89 -105 167 -49 79 -94
151 -100 161 -39 70 -438 697 -444 697 -3 0 -22 -28 -42 -63z"/>
</g>
</svg>
