<?xml version="1.0" standalone="no"?>
<!DOCTYPE svg PUBLIC "-//W3C//DTD SVG 20010904//EN"
 "http://www.w3.org/TR/2001/REC-SVG-20010904/DTD/svg10.dtd">
<svg version="1.0" xmlns="http://www.w3.org/2000/svg"
 width="3383.000000pt" height="3383.000000pt" viewBox="0 0 3383.000000 3383.000000"
 preserveAspectRatio="xMidYMid meet">
<metadata>
Created by potrace 1.14, written by Peter Selinger 2001-2017
</metadata>
<g transform="translate(0.000000,3383.000000) scale(0.100000,-0.100000)"
fill="#000000" stroke="none">
<path d="M20258 26833 c-26 -43 -88 -143 -137 -223 -49 -80 -103 -167 -120
-195 -17 -27 -74 -119 -126 -204 -52 -84 -95 -155 -95 -156 0 -2 -18 -31 -40
-64 -22 -33 -40 -64 -40 -70 0 -5 -4 -11 -9 -13 -4 -1 -19 -22 -32 -45 -32
-56 -139 -231 -160 -263 -9 -14 -79 -126 -154 -250 -76 -124 -147 -241 -160
-260 -42 -66 -90 -144 -100 -162 -15 -28 -354 -578 -380 -618 -13 -19 -60 -96
-105 -170 -45 -74 -92 -151 -105 -170 -23 -36 -335 -543 -364 -592 -9 -15 -50
-81 -91 -148 -41 -66 -80 -128 -85 -138 -6 -9 -17 -28 -26 -42 -9 -14 -41 -65
-71 -115 -30 -49 -90 -146 -133 -215 -43 -69 -86 -138 -95 -155 -21 -37 -384
-627 -415 -675 -34 -53 -287 -464 -312 -507 -12 -21 -26 -43 -32 -50 -6 -7
-11 -15 -11 -17 0 -3 -19 -36 -43 -73 -24 -38 -70 -113 -104 -168 -33 -55
-117 -192 -187 -305 -69 -113 -130 -212 -135 -220 -19 -32 -249 -404 -374
-605 -72 -115 -137 -221 -144 -235 -8 -14 -29 -48 -46 -76 -60 -96 -202 -325
-219 -355 -30 -49 -419 -682 -444 -719 -19 -30 -474 -766 -772 -1250 -53 -85
-114 -184 -136 -221 -23 -36 -46 -74 -53 -85 -6 -10 -92 -149 -191 -309 -98
-159 -340 -551 -537 -870 -197 -319 -372 -602 -390 -630 -30 -47 -165 -264
-210 -338 -69 -115 -133 -219 -160 -262 -18 -27 -81 -129 -140 -225 -60 -96
-129 -208 -154 -248 -25 -40 -53 -85 -62 -100 -20 -34 -249 -405 -303 -492
-23 -36 -46 -74 -53 -85 -19 -33 -244 -395 -288 -465 -23 -36 -59 -94 -80
-130 -21 -36 -57 -94 -80 -130 -23 -36 -82 -130 -130 -209 -79 -128 -96 -150
-163 -203 -67 -53 -209 -154 -237 -168 -5 -3 -32 -19 -60 -37 -27 -17 -53 -31
-56 -30 -4 1 -15 -5 -25 -14 -45 -40 -306 -155 -489 -217 -100 -34 -267 -78
-370 -97 -16 -3 -39 -7 -51 -9 -12 -2 -45 -7 -74 -11 -29 -4 -61 -8 -70 -10
-115 -22 -528 -23 -660 -1 -14 2 -46 7 -71 10 -410 56 -829 215 -1174 443
-112 75 -198 136 -215 153 -3 3 -34 30 -70 60 -423 359 -728 869 -871 1457
-38 157 -36 142 -74 408 -22 157 -22 499 0 680 2 17 6 53 10 80 23 191 110
523 180 690 45 106 92 204 134 278 11 20 30 54 42 74 59 104 191 274 296 380
308 311 755 590 1133 708 68 21 148 44 175 49 6 1 24 5 40 9 40 9 82 16 125
22 19 3 64 10 100 15 65 9 453 6 520 -4 19 -3 51 -8 70 -11 203 -30 481 -109
695 -200 417 -176 1036 -590 1233 -825 79 -95 192 -248 192 -262 0 -37 55 42
255 362 127 203 237 380 245 394 8 14 92 147 185 296 94 149 231 367 305 485
74 119 233 372 353 563 120 191 223 356 230 367 7 11 29 45 50 77 20 31 37 62
37 67 0 6 4 11 9 11 5 0 11 6 13 13 2 6 44 76 93 155 50 78 99 158 110 176 22
36 571 913 630 1006 12 19 43 67 68 107 l45 71 -41 35 c-79 66 -402 308 -517
388 -36 25 -89 62 -117 82 -29 20 -57 37 -62 37 -5 0 -11 3 -13 8 -6 14 -306
204 -493 312 -378 218 -800 423 -1144 556 -64 25 -125 49 -136 54 -24 10 -131
49 -245 88 -84 29 -442 139 -477 147 -10 2 -81 20 -158 39 -77 19 -151 37
-165 40 -14 2 -45 9 -70 15 -25 5 -61 13 -80 16 -19 3 -55 11 -80 16 -25 6
-57 12 -72 14 -15 2 -51 8 -80 14 -29 6 -73 13 -98 16 -25 3 -72 10 -105 15
-124 18 -212 30 -275 35 -36 3 -83 8 -105 10 -291 27 -1025 27 -1195 1 -14 -3
-59 -7 -100 -11 -41 -3 -88 -8 -105 -10 -16 -3 -66 -9 -110 -15 -44 -6 -91
-12 -105 -15 -39 -7 -163 -27 -185 -30 -11 -2 -58 -10 -105 -20 -47 -9 -96
-19 -110 -21 -226 -43 -700 -180 -965 -279 -55 -21 -118 -44 -140 -52 -22 -8
-53 -21 -70 -28 -16 -7 -95 -41 -175 -75 -445 -190 -975 -491 -1395 -793 -155
-112 -488 -371 -541 -422 -6 -5 -38 -32 -70 -60 -181 -154 -437 -402 -595
-578 -50 -56 -97 -106 -103 -112 -6 -5 -28 -31 -49 -57 -21 -26 -43 -53 -50
-60 -7 -7 -28 -33 -47 -58 -19 -25 -37 -47 -41 -50 -3 -3 -55 -70 -115 -150
-157 -209 -243 -338 -434 -650 -83 -136 -272 -501 -358 -690 -36 -79 -142
-330 -142 -335 0 -4 -16 -48 -75 -200 -5 -11 -9 -24 -11 -30 -1 -5 -19 -57
-39 -115 -31 -90 -108 -333 -120 -380 -2 -8 -24 -96 -50 -194 -42 -163 -85
-355 -100 -446 -3 -19 -10 -53 -15 -75 -5 -22 -11 -60 -15 -85 -3 -25 -8 -52
-10 -60 -12 -43 -58 -402 -71 -550 -3 -41 -8 -83 -9 -92 -26 -135 -26 -957 -1
-1248 13 -140 18 -198 21 -220 2 -14 7 -52 10 -85 4 -33 8 -71 10 -85 2 -14
11 -74 20 -135 9 -60 25 -159 36 -220 27 -154 26 -148 54 -275 9 -41 18 -86
21 -100 11 -55 86 -350 110 -430 74 -246 172 -542 205 -615 5 -11 20 -49 33
-85 100 -269 303 -697 471 -995 57 -101 98 -172 132 -229 43 -71 322 -489 332
-496 3 -3 33 -41 65 -85 51 -69 129 -168 201 -254 200 -242 575 -624 830 -846
44 -39 86 -76 94 -83 37 -35 360 -289 458 -360 480 -349 1035 -660 1545 -867
62 -25 122 -50 133 -55 67 -31 445 -160 640 -219 230 -70 721 -182 900 -206
11 -2 47 -8 80 -14 33 -6 85 -13 115 -16 30 -3 62 -8 70 -10 8 -2 44 -7 80
-10 36 -4 79 -8 95 -10 17 -3 59 -7 95 -10 36 -4 83 -8 105 -10 257 -27 1104
-27 1243 0 9 1 62 6 117 10 55 4 102 8 105 10 3 2 39 6 80 10 41 4 84 9 95 11
11 2 40 6 65 10 25 3 70 9 100 14 30 5 69 12 85 14 17 3 48 8 70 11 155 24
646 138 815 190 502 154 854 292 1260 494 96 48 202 102 235 121 33 18 78 43
101 55 36 20 188 110 284 168 108 65 432 285 515 349 6 4 55 42 110 84 84 65
292 234 331 269 6 5 40 35 75 65 92 80 222 204 394 375 137 137 158 163 239
295 49 80 111 181 139 225 76 120 106 170 191 307 21 35 49 79 61 98 24 37
298 482 422 685 40 66 77 127 82 135 5 8 67 107 137 220 70 113 169 275 222
360 52 85 111 182 132 215 21 33 68 110 105 170 37 61 78 126 90 145 24 38 93
149 585 950 177 289 336 548 354 575 34 55 43 69 82 135 15 25 41 68 59 95 18
28 130 210 250 405 119 195 228 371 240 390 13 19 43 68 67 107 55 92 157 259
268 438 48 77 167 271 265 430 98 160 206 335 240 390 34 55 131 213 215 350
84 138 167 273 185 300 18 28 79 126 136 219 57 93 113 184 124 201 11 18 35
59 54 91 19 33 42 70 51 84 22 33 69 109 235 380 76 124 143 231 150 238 9 10
76 -90 316 -473 167 -267 313 -500 324 -518 11 -19 61 -98 110 -176 50 -79 97
-155 106 -169 22 -37 455 -728 483 -772 52 -81 141 -222 471 -750 230 -368
302 -484 315 -505 55 -88 195 -311 267 -425 47 -74 93 -147 102 -162 9 -15 52
-84 96 -154 44 -70 88 -141 98 -158 10 -17 74 -119 141 -226 68 -107 122 -197
120 -199 -2 -3 -912 -5 -2021 -5 l-2017 -1 -34 -60 c-19 -33 -52 -94 -74 -135
-23 -41 -44 -79 -48 -85 -4 -5 -25 -44 -47 -85 -22 -41 -120 -219 -218 -395
-97 -176 -192 -347 -210 -380 -18 -33 -41 -76 -52 -95 -22 -40 -17 -29 -268
-485 -103 -187 -196 -355 -207 -375 -10 -19 -23 -42 -29 -50 -5 -8 -30 -53
-55 -100 -26 -47 -177 -321 -337 -610 -160 -289 -299 -541 -309 -560 -10 -19
-29 -53 -41 -75 -13 -22 -40 -71 -61 -110 -21 -38 -46 -83 -56 -100 -9 -16
-31 -55 -47 -85 -109 -203 -319 -580 -334 -602 -11 -15 -19 -30 -19 -33 0 -3
-43 -82 -95 -177 -52 -94 -95 -174 -95 -178 0 -3 3447 -6 7660 -6 4213 0 7660
3 7660 7 0 4 -21 42 -47 83 -274 438 -381 609 -408 651 -61 94 -89 140 -101
160 -13 23 -421 676 -469 750 -18 28 -101 160 -185 295 -84 135 -168 268 -185
295 -42 64 -227 360 -240 383 -12 20 -182 292 -233 372 -66 103 -80 125 -228
362 -82 131 -167 267 -189 303 -49 79 -130 209 -495 790 -155 248 -290 462
-299 477 -22 38 -336 539 -386 618 -54 83 -210 333 -506 807 -20 32 -129 206
-243 387 -113 181 -206 332 -206 336 0 5 -3 10 -8 12 -5 2 -439 688 -527 834
-11 18 -60 98 -110 176 -49 78 -93 149 -97 158 -12 23 -315 503 -327 517 -6 7
-11 15 -11 18 0 3 -22 40 -50 82 -27 42 -50 77 -50 79 0 1 -40 66 -90 144 -49
78 -90 145 -90 150 0 5 -3 10 -8 12 -4 2 -27 35 -50 73 -62 101 -61 100 -128
204 -33 53 -75 121 -94 151 -19 30 -48 78 -66 105 -17 28 -137 219 -266 425
-129 206 -287 458 -351 560 -113 180 -181 289 -222 355 -11 18 -173 276 -360
574 -187 297 -344 549 -350 559 -13 23 -291 467 -320 512 -28 42 -681 1083
-704 1122 -9 15 -203 325 -431 688 -228 363 -419 668 -425 678 -5 9 -50 81
-100 160 -49 79 -97 155 -106 170 -9 15 -121 194 -249 397 -128 204 -255 406
-282 450 -27 44 -111 179 -188 300 -76 121 -177 283 -225 360 -48 77 -98 156
-110 175 -32 49 -178 281 -190 302 -21 36 -353 566 -396 633 -11 17 -62 97
-113 180 -52 82 -98 151 -102 152 -5 2 -30 -32 -56 -74z"/>
</g>
</svg>
